<svg xmlns="http://www.w3.org/2000/svg" width="198.7" height="52.325" viewBox="0 0 198.7 52.325"><defs><style>.a{fill:#cdcccc;}.b{fill:#444;}.c{fill:#0d3953;}.d{fill:#256a93;}</style></defs><g transform="translate(-17.1 -13.3)"><g transform="translate(64.629 13.3)"><g transform="translate(1.161 1.161)"><path class="a" d="M110.689,52.6H104.3c0-.249-1.078-1.907-3.317-5.058a101.843,101.843,0,0,0-7.049-9.122c-2.9-3.234-4.975-4.893-6.385-4.893h-.912c0,4.561.083,10.863.332,19.073H81.5c.332-6.053.415-12.687.415-19.9,0-6.8-.166-12.853-.415-17.995h5.473c-.166,5.141-.332,10.448-.332,15.756H87.3c1.078,0,3.732-2.488,8.044-7.463,4.229-4.975,6.385-7.712,6.385-8.292h6.053q0,.871-6.219,7.214a83.489,83.489,0,0,1-9.288,8.541V30.7c2.239.829,5.971,4.727,11.195,11.609C108.285,48.533,110.689,52.016,110.689,52.6Z" transform="translate(-81.5 -14.7)"/><path class="a" d="M145.877,37.358c0,.829,0,1.907-.083,3.4l-20.068.332a10.5,10.5,0,0,0,3.317,7.131,11.048,11.048,0,0,0,7.961,2.9,29.5,29.5,0,0,0,8.292-1.078l-.5,4.146a23.327,23.327,0,0,1-8.21,1.161c-5.058,0-8.873-1.41-11.526-4.146A14.213,14.213,0,0,1,121,41.007a17.244,17.244,0,0,1,3.649-10.946,11.7,11.7,0,0,1,9.785-4.561c3.732,0,6.634,1.078,8.541,3.317A12.684,12.684,0,0,1,145.877,37.358Zm-4.893,0c0-5.473-2.322-8.21-6.883-8.21-4.644,0-7.38,2.819-8.209,8.541Z" transform="translate(-88.245 -16.544)"/><path class="a" d="M182.794,37.375c0,.829,0,1.907-.083,3.4l-20.068.332a10.5,10.5,0,0,0,3.317,7.131,11.048,11.048,0,0,0,7.961,2.9,29.5,29.5,0,0,0,8.292-1.078l-.5,4.146a23.327,23.327,0,0,1-8.209,1.161c-5.058,0-8.873-1.41-11.526-4.146A14.017,14.017,0,0,1,158,41.107a17.244,17.244,0,0,1,3.649-10.946,11.7,11.7,0,0,1,9.785-4.561c3.732,0,6.634,1.078,8.541,3.317A12.416,12.416,0,0,1,182.794,37.375Zm-4.893,0c0-5.473-2.322-8.209-6.883-8.209-4.644,0-7.38,2.819-8.21,8.541Z" transform="translate(-94.563 -16.561)"/><path class="a" d="M222.316,39.465a17.58,17.58,0,0,1-3.566,11.029,11.874,11.874,0,0,1-10.034,4.727c-3.566,0-5.888-.663-7.049-1.907h-.332c0,5.39.083,10.2.166,14.429h-5.473c.415-5.141.663-11.526.663-19.155,0-9.37-.5-16.585-1.493-21.726l5.141-.746.415,2.9h.332c1.907-2.156,4.975-3.317,9.122-3.317A10.524,10.524,0,0,1,219,29.763,15.275,15.275,0,0,1,222.316,39.465Zm-5.141.746a12.178,12.178,0,0,0-2.239-7.38,7.4,7.4,0,0,0-6.385-3.068c-3.483,0-5.971,1.078-7.546,3.151.332,6.551.5,12.107.5,16.834a9.253,9.253,0,0,0,6.136,1.99,8.254,8.254,0,0,0,7.214-3.4A14.417,14.417,0,0,0,217.175,40.212Z" transform="translate(-100.915 -16.578)"/><path class="a" d="M257.619,54.475l-4.561.166a10.3,10.3,0,0,1-.332-2.736h-.332c-2.4,2.156-5.639,3.234-9.785,3.234a8.965,8.965,0,0,1-5.8-1.99,6.68,6.68,0,0,1-2.4-5.639,8.412,8.412,0,0,1,3.815-7.214c2.488-1.824,7.214-2.736,14.1-2.9a9.52,9.52,0,0,0,.083-1.576c0-2.4-.663-3.98-1.907-4.81s-3.234-1.161-5.8-1.161a37.011,37.011,0,0,0-9.039,1.161l.5-4.063A36.908,36.908,0,0,1,246.175,25.7c3.483,0,6.136.746,8.044,2.156s2.819,3.9,2.819,7.3c0,.912-.083,2.571-.166,4.975s-.166,3.98-.166,4.81A73.091,73.091,0,0,0,257.619,54.475Zm-5.141-5.639c-.083-2.985-.166-5.639-.166-7.961a30.959,30.959,0,0,0-8.375.829c-3.151,1-4.81,2.819-4.81,5.556,0,2.654,1.907,3.98,5.639,3.98A11.751,11.751,0,0,0,252.478,48.836Z" transform="translate(-107.609 -16.578)"/></g><path class="b" d="M109.289,51.2H102.9c0-.249-1.078-1.907-3.317-5.058a101.841,101.841,0,0,0-7.049-9.122c-2.9-3.234-4.975-4.893-6.385-4.893h-.912c0,4.561.083,10.863.332,19.073H80.1c.332-6.053.415-12.687.415-19.9,0-6.8-.166-12.853-.415-17.995h5.473c-.166,5.141-.332,10.448-.332,15.756H85.9c1.078,0,3.732-2.488,8.044-7.463,4.229-4.975,6.385-7.712,6.385-8.292h6.053q0,.871-6.219,7.214a83.491,83.491,0,0,1-9.287,8.541v.332c2.239.829,5.971,4.727,11.195,11.609C106.885,47.133,109.289,50.616,109.289,51.2Z" transform="translate(-80.1 -13.3)"/><path class="b" d="M144.394,35.975c0,.829,0,1.907-.083,3.4l-20.068.332a10.5,10.5,0,0,0,3.317,7.131,11.048,11.048,0,0,0,7.961,2.9,29.5,29.5,0,0,0,8.292-1.078l-.5,4.146a23.327,23.327,0,0,1-8.209,1.161c-5.058,0-8.873-1.41-11.526-4.146a14.017,14.017,0,0,1-3.98-10.117,17.244,17.244,0,0,1,3.649-10.946,11.7,11.7,0,0,1,9.785-4.561c3.732,0,6.634,1.078,8.541,3.317A12.416,12.416,0,0,1,144.394,35.975Zm-4.81,0c0-5.473-2.322-8.209-6.883-8.209-4.644,0-7.38,2.819-8.21,8.541Z" transform="translate(-86.845 -15.161)"/><path class="b" d="M181.394,35.975c0,.829,0,1.907-.083,3.4l-20.068.332a10.5,10.5,0,0,0,3.317,7.131,11.048,11.048,0,0,0,7.961,2.9,29.5,29.5,0,0,0,8.292-1.078l-.5,4.146a23.327,23.327,0,0,1-8.209,1.161c-5.058,0-8.873-1.41-11.526-4.146a14.017,14.017,0,0,1-3.98-10.117,17.244,17.244,0,0,1,3.649-10.946,11.7,11.7,0,0,1,9.785-4.561c3.732,0,6.634,1.078,8.541,3.317A12.416,12.416,0,0,1,181.394,35.975Zm-4.893,0c0-5.473-2.322-8.209-6.883-8.209-4.644,0-7.38,2.819-8.209,8.541Z" transform="translate(-93.163 -15.161)"/><path class="b" d="M220.916,38.065a17.58,17.58,0,0,1-3.566,11.029,11.874,11.874,0,0,1-10.034,4.727c-3.566,0-5.888-.663-7.049-1.907h-.332c0,5.39.083,10.2.166,14.429h-5.473c.415-5.141.663-11.526.663-19.155,0-9.37-.5-16.585-1.493-21.726l5.141-.746.415,2.9h.332c1.907-2.156,4.975-3.317,9.122-3.317a10.524,10.524,0,0,1,8.79,4.063A15.275,15.275,0,0,1,220.916,38.065Zm-5.224.746a12.178,12.178,0,0,0-2.239-7.38,7.4,7.4,0,0,0-6.385-3.068c-3.483,0-5.971,1.078-7.546,3.151.332,6.551.5,12.107.5,16.834a9.253,9.253,0,0,0,6.136,1.99,8.254,8.254,0,0,0,7.214-3.4A13.8,13.8,0,0,0,215.692,38.812Z" transform="translate(-99.515 -15.178)"/><path class="b" d="M256.219,53.075l-4.561.166a10.3,10.3,0,0,1-.332-2.736h-.332c-2.4,2.156-5.639,3.234-9.785,3.234a8.965,8.965,0,0,1-5.8-1.99,6.68,6.68,0,0,1-2.4-5.639,8.412,8.412,0,0,1,3.815-7.214c2.488-1.824,7.214-2.736,14.1-2.9a9.523,9.523,0,0,0,.083-1.576c0-2.4-.663-3.98-1.907-4.81s-3.234-1.161-5.8-1.161a37.011,37.011,0,0,0-9.039,1.161l.5-4.063A36.909,36.909,0,0,1,244.775,24.3c3.483,0,6.136.746,8.044,2.156s2.819,3.9,2.819,7.3c0,.912-.083,2.571-.166,4.975s-.166,3.98-.166,4.81A73.076,73.076,0,0,0,256.219,53.075Zm-5.141-5.639c-.083-2.985-.166-5.639-.166-7.961a30.959,30.959,0,0,0-8.375.829c-3.151,1-4.81,2.819-4.81,5.556,0,2.654,1.907,3.98,5.639,3.98A11.751,11.751,0,0,0,251.077,47.436Z" transform="translate(-106.209 -15.178)"/></g><g transform="translate(17.1 18.524)"><g transform="translate(1.244 1.161)"><path class="c" d="M39.945,41.565H29.165v10.78H19.38V41.565H8.6V31.78H19.38V21h9.785V31.78h10.78ZM19.878,32.278v8.79H28.5v-8.79Z" transform="translate(-8.6 -21)"/></g><path class="d" d="M38.528,40.165H27.748v10.78H17.88V40.165H7.1V30.38H17.88V19.6h9.785V30.38h10.78v9.785ZM18.461,30.878v8.79h8.624v-8.79Z" transform="translate(-7.1 -19.6)"/></g></g></svg>