<svg xmlns="http://www.w3.org/2000/svg" width="226.633" height="33.989" viewBox="0 0 226.633 33.989"><defs><style>.a{fill:#0b2e3a;}.b{fill:#46afe3;}</style></defs><g transform="translate(0 -0.027)"><path class="a" d="M89.726,10.037A1.2,1.2,0,0,1,90.252,7.8h8.728c1.272,0,1.535.614,1.535,1.184a1.169,1.169,0,0,1-.79,1.14,12.49,12.49,0,0,1-2.5.877V28.108s1.447.395,1.93.57a1.333,1.333,0,0,1,1.009,1.447,1.224,1.224,0,0,1-1.228,1.14H90.515a.953.953,0,0,1-1.009-1.009,1.732,1.732,0,0,1,1.14-1.447c.658-.307,1.842-.746,1.842-.746V11.046A19.829,19.829,0,0,1,89.726,10.037Z" transform="translate(-50.031 -4.364)"/><path class="a" d="M158.845,25.288a1.342,1.342,0,0,1,.526-2.588H164.9a1.3,1.3,0,0,1,.746,2.456,6.508,6.508,0,0,1-1.36.614l2.544,8.9,2.719-8.816s-.658-.263-1.184-.526a1.507,1.507,0,0,1-.746-1.447,1.407,1.407,0,0,1,1.316-1.184h4.386a1.327,1.327,0,0,1,.7,2.5,13.539,13.539,0,0,1-1.754.746L168.231,38.49a2.11,2.11,0,0,1-1.535,1.4,2.255,2.255,0,0,1-2.763-1.4c-1.316-3.509-4.167-12.676-4.167-12.676S159.635,25.726,158.845,25.288Z" transform="translate(-88.71 -12.728)"/><path class="a" d="M196.6,30.886a11.328,11.328,0,0,1,.658-3.86,8.661,8.661,0,0,1,1.754-2.983,6.937,6.937,0,0,1,5.176-2.544,4.413,4.413,0,0,1,3.684,1.754,7.5,7.5,0,0,1,1.36,4.737,11.845,11.845,0,0,1-.175,2.149,1.112,1.112,0,0,1-1.184.746c-2.061.044-7.018.175-7.018.175a6.042,6.042,0,0,0,1.272,3.6,4.046,4.046,0,0,0,3.333,1.447,4.979,4.979,0,0,0,2.676-.526,1.261,1.261,0,0,1,1.447.044,1.006,1.006,0,0,1-.088,1.316,5.059,5.059,0,0,1-2.632,1.842,9.814,9.814,0,0,1-3.553.658,6.085,6.085,0,0,1-4.869-2.281C197.214,35.755,196.6,33.606,196.6,30.886Zm8.421-3.421c0-2.018-.614-3.07-1.886-3.07-.658,0-1.184.439-1.623,1.316a7.973,7.973,0,0,0-.7,3.553l4.123-.439A10,10,0,0,0,205.021,27.465Z" transform="translate(-110.368 -12.055)"/><path class="a" d="M228.346,38.041a1.42,1.42,0,0,1,1.009-1.316c.482-.219,1.623-.79,1.623-.79V26.374s-1.491-.921-2.237-1.272a1.282,1.282,0,0,1,.307-2.369c1.491-.132,3.2-.351,4.693-.482,1.316-.132,1.4.526,1.36,1.009-.044.395-.263,1.579-.263,1.579l.219.044c1.623-1.974,3.246-2.983,4.956-2.983a3.56,3.56,0,0,1,3.026,1.36,6.508,6.508,0,0,1,1.1,4.035v8.6s1.1.482,2.456.965c1.14.395,1.1,2.281-.263,2.281H239.4c-.921,0-1.009-1.491-.219-2.149a12.04,12.04,0,0,0,.965-1.1V29.707c0-2.237-.746-3.377-2.281-3.377a3.56,3.56,0,0,0-2.719,1.272v8.334a21.854,21.854,0,0,0,2.061.965c.965.395,1.1,2.281-.351,2.281h-6.886C228.96,39.181,228.3,38.787,228.346,38.041Z" transform="translate(-128.035 -12.279)"/><path class="a" d="M118.846,38.041a1.42,1.42,0,0,1,1.009-1.316c.482-.219,1.623-.79,1.623-.79V26.374s-1.491-.921-2.237-1.272a1.282,1.282,0,0,1,.307-2.369c1.491-.132,3.2-.351,4.693-.482,1.316-.132,1.4.526,1.36,1.009-.044.395-.263,1.579-.263,1.579l.219.044c1.623-1.974,3.246-2.983,4.956-2.983a3.56,3.56,0,0,1,3.026,1.36,6.509,6.509,0,0,1,1.1,4.035v8.6s1.053.482,2.456.965c1.14.395,1.1,2.281-.263,2.281H129.9c-.921,0-1.009-1.491-.219-2.149a12.036,12.036,0,0,0,.965-1.1V29.707c0-2.237-.746-3.377-2.281-3.377a3.56,3.56,0,0,0-2.719,1.272v8.334a21.855,21.855,0,0,0,2.062.965c.965.395,1.1,2.281-.351,2.281h-6.886C119.46,39.181,118.846,38.787,118.846,38.041Z" transform="translate(-66.563 -12.279)"/><path class="a" d="M276.237,30.587a2.1,2.1,0,0,0,1.754.7c.789,0,1.053-.79,2.105-.833.965-.044,1.053,1.14.658,1.8a5.933,5.933,0,0,1-2.061,1.974,6.136,6.136,0,0,1-3.246.79,3.658,3.658,0,0,1-2.983-1.272c-.658-.833-1.009-2.325-.965-4.43l.044-8.378h-1.667a.863.863,0,0,1-.877-.921c0-.526.658-.965.658-.965a18.784,18.784,0,0,0,4.3-4.869,1.346,1.346,0,0,1,.877-.482c.877,0,.965.658.965,1.14v3.509h3.509c1.1,0,1.711.746,1.667,1.316a1.559,1.559,0,0,1-1.711,1.36h-3.509l-.044,7.237A3.646,3.646,0,0,0,276.237,30.587Z" transform="translate(-151.012 -7.676)"/><path class="a" d="M297.439,33.9A12.6,12.6,0,0,1,297,30.392a9.717,9.717,0,0,1,.7-3.728,7.941,7.941,0,0,1,1.8-2.895,7.6,7.6,0,0,1,5.57-2.369,6.216,6.216,0,0,1,5.088,2.281,9.746,9.746,0,0,1,1.886,6.448,10.025,10.025,0,0,1-2.149,6.711,6.8,6.8,0,0,1-5.483,2.588Q298.886,39.427,297.439,33.9Zm6.711-9.518c-1.886,0-2.851,1.623-2.851,4.869,0,3.07.526,5.22,1.535,6.4a2.749,2.749,0,0,0,2.193,1.009,2.236,2.236,0,0,0,2.018-1.184,5.827,5.827,0,0,0,.658-2.851c0-1.1-.044-1.974-.088-2.676a11.723,11.723,0,0,0-.351-2.105,10.674,10.674,0,0,0-.614-1.8A2.813,2.813,0,0,0,304.149,24.383Z" transform="translate(-166.731 -11.998)"/><path class="a" d="M333.914,39.181c-1.1,0-1.491-1.842-.175-2.369,1.272-.482,2.456-.877,2.456-.877V26.242a26.408,26.408,0,0,0-2.544-1.184,1.216,1.216,0,0,1,.307-2.281c1.886-.263,2.851-.439,4.693-.57,1.1-.088,1.36.614,1.316,1.053-.132,1.316-.307,2.983-.307,2.983l.307.088A7,7,0,0,1,341.677,23a3.2,3.2,0,0,1,2.281-1.1,2.377,2.377,0,0,1,1.842.746,2.634,2.634,0,0,1,.658,1.842,3.667,3.667,0,0,1-.79,2.456c-.175.219-.833.746-1.4.395a2.679,2.679,0,0,0-1.447-.395,1.981,1.981,0,0,0-1.623.921,5.9,5.9,0,0,0-.965,2.325v5.746l3.377.921c1.711.439.833,2.412-.088,2.412C340.625,39.181,336.721,39.181,333.914,39.181Z" transform="translate(-186.89 -12.279)"/><path class="a" d="M367.273,41.736c1.667,0,1.579.7,2.763.7a2.719,2.719,0,0,0,2.632-1.974l.263-.658-5-13.948s-1.1-.57-1.755-.877a1.225,1.225,0,0,1,.746-2.281h5.658c2.281,0,1.8,2.018,1.053,2.412-.526.263-1.36.658-1.36.658l2.895,8.728,3.114-8.6s-1.228-.57-2.105-1.009a1.206,1.206,0,0,1,.833-2.193h5.044a1.184,1.184,0,0,1,.7,2.193c-.439.219-1.667.965-1.667.965l-5.527,14.43a15.264,15.264,0,0,1-2.851,5.088,5.07,5.07,0,0,1-6.009.658C364.247,44.455,365.387,41.736,367.273,41.736Z" transform="translate(-205.073 -12.728)"/><path class="a" d="M403.582,31.266s-.175-1.667.7-2.281a9.944,9.944,0,0,1,2.237-.877v-16.8a21.764,21.764,0,0,1-2.456-1.14,1.359,1.359,0,0,1,1.1-2.369h7.807c1.316,0,1.535,1.93.7,2.412-.57.307-2.369,1.053-2.369,1.053V28.459s4.167.307,5.483-.351c2.763-1.4,2.105-3.465,3.07-4.386a1.23,1.23,0,0,1,2.105.351c.57,2.412.132,7.149-1.754,7.149C416.565,31.266,403.582,31.266,403.582,31.266Z" transform="translate(-226.556 -4.364)"/><path class="a" d="M448.1,35.736a5.248,5.248,0,0,1,2.018-4.167,9.342,9.342,0,0,1,5.746-1.886v-1.4a5.6,5.6,0,0,0-.658-2.851,1.974,1.974,0,0,0-1.711-1.14,1.2,1.2,0,0,0-1.316.833c-.175.439.132,1.14-.395,2.105a1.752,1.752,0,0,1-2.763.044,2.381,2.381,0,0,1,.7-3.2,9.291,9.291,0,0,1,2.719-1.711,8.033,8.033,0,0,1,3.026-.658c2.939,0,4.386,1.93,4.386,5.79v6.579c0,.526.044.833.044.921.439,1.447.965,1.228,1.491,1.272.789.088,1.272.482,1.228,1.316-.044.746-.483,1.93-3.158,1.93a3.1,3.1,0,0,1-3.114-2.763l-.219-.044a4.579,4.579,0,0,1-1.667,1.974,4.679,4.679,0,0,1-2.807.921,3.436,3.436,0,0,1-2.544-1.009A4.037,4.037,0,0,1,448.1,35.736Zm3.991-1.316a1.763,1.763,0,0,0,.439,1.228,1.69,1.69,0,0,0,1.36.526,2.849,2.849,0,0,0,1.974-1.1V31.262C453.319,31.744,452.091,32.8,452.091,34.42Z" transform="translate(-251.556 -12.167)"/><path class="a" d="M477.92,8.9a1.418,1.418,0,0,1,.482-2.369,6.831,6.831,0,0,1,5.263-.307c.746.219.658,1.14.658,1.14v6.492l-.219,1.974.219.044a10.446,10.446,0,0,1,2.237-2.193,4.346,4.346,0,0,1,2.412-.746A4.765,4.765,0,0,1,493.1,15.17a10.014,10.014,0,0,1,1.579,5.877,11,11,0,0,1-.746,4.035,8.247,8.247,0,0,1-1.974,3.026,8.514,8.514,0,0,1-6.141,2.5,14.416,14.416,0,0,1-2.895-.351,7.417,7.417,0,0,1-2.588-1.009V10.433C480.289,9.687,479.06,9.512,477.92,8.9Zm6.4,17.369a3.507,3.507,0,0,0,2.632,1.184A2.636,2.636,0,0,0,489.324,26a7.742,7.742,0,0,0,.877-3.948,8.854,8.854,0,0,0-.439-3.114,3.88,3.88,0,0,0-1.009-1.667,2.115,2.115,0,0,0-1.316-.482,4.236,4.236,0,0,0-3.026,1.535v7.939Z" transform="translate(-268.042 -3.268)"/><g transform="translate(0 0.027)"><g transform="translate(0 0.427)"><path class="b" d="M26.887,28.413H1.447A1.46,1.46,0,0,1,0,26.966V2.447A1.46,1.46,0,0,1,1.447,1,1.46,1.46,0,0,1,2.895,2.447V25.475H26.843a1.46,1.46,0,0,1,1.447,1.447A1.407,1.407,0,0,1,26.887,28.413Z" transform="translate(0 -1)"/></g><g transform="translate(4.333 4.507)"><path class="b" d="M9.888,27.934c.307-2.193-.088-7.9,5.921-10.746,5.79-2.719,11.272,1.053,16.141-5.79,1.272-1.8,2.281-1.316,1.447.965-1.009,2.763-2.588,6.4-5.877,7.018-3.333.658-3.377.307-6.974.833-4.386.658-6.1,1.272-9.65,8.246C10.371,29.382,9.8,28.548,9.888,27.934Z" transform="translate(-9.879 -10.303)"/></g><path class="b" d="M47.814,3.393C50.227,1.9,55.315-.73,57.157.234c2.281,1.14,1.184,7.018.439,9.562-.219.7-.746.746-.833,0-.175-2.061-.658-5.965-1.711-6.535-.877-.439-4.649.57-6.886,1.053C47.332,4.489,47.025,3.831,47.814,3.393Z" transform="translate(-26.585 -0.027)"/></g></g></svg>