<svg xmlns="http://www.w3.org/2000/svg" width="84" height="84" viewBox="0 0 84 84"><defs><style>.a{fill:#fff;stroke:rgba(112,112,112,0.21);}.b{fill:#800033;}.c{stroke:none;}.d{fill:none;}</style></defs><g transform="translate(-209 -612)"><g class="a" transform="translate(209 612)"><circle class="c" cx="42" cy="42" r="42"/><circle class="d" cx="42" cy="42" r="41.5"/></g><g transform="translate(-10.899 1592.21)"><path class="b" d="M228.9-941.43h4.57v3.1h.03l3.484-3.1h5.123l-4.2,3.806,4.863,5.223h-5.783l-3.484-3.7h-.03v3.7H228.9v-9.029Z" transform="translate(0 -1.529)"/><path class="b" d="M333.794-935.5c2.032,0,1.9-2.267,1.9-3.016s.023-2.826-1.9-2.826-1.9,2.078-1.9,2.826-.135,3.016,1.9,3.016m0-7.714c5.188,0,6.6,1.088,6.6,4.793s-1.411,4.793-6.6,4.793-6.6-1.088-6.6-4.793,1.411-4.793,6.6-4.793" transform="translate(-84.427)"/><path class="b" d="M441.542-935.418v3.451h4.691v-9.029h-4.691v3.1h-3.366v-3.1h-4.692v9.029h4.692v-3.451Z" transform="translate(-175.721 -1.903)"/><path class="b" d="M539.568-940.995h4.8v6.88s3.831.011,4.34.011a1.065,1.065,0,0,0,.811-.457v2.595h-9.951Z" transform="translate(-266.837 -1.902)"/><path class="b" d="M628.282-938.929a4.287,4.287,0,0,0-2.759-1.077c-.895-.016-1.712.3-1.712.84,0,.43.611.608,2.747,1.053,1.755.367,2.924,1.264,2.924,2.933,0,1.884-3.134,2.949-5.938,2.949a11.383,11.383,0,0,1-4.831-.961v-2.529a6.4,6.4,0,0,0,4.138,1.335c.795,0,1.185-.117,1.185-.749,0-.391-.5-.748-2-1.023-2.842-.521-3.8-1.334-3.8-2.725,0-2,2.484-3.187,5.546-3.187a10.561,10.561,0,0,1,4.5.671Z" transform="translate(-334.408 -0.98)"/><path class="b" d="M586.95-937.478l.329-.58a1.747,1.747,0,0,1-.779-2.444,1.757,1.757,0,0,1,2.851.091,1.547,1.547,0,0,1-.27,2.108,14.325,14.325,0,0,1-2.131.824" transform="translate(-306.941 -1.736)"/></g></g></svg>