<svg xmlns="http://www.w3.org/2000/svg" width="84" height="84" viewBox="0 0 84 84"><defs><style>.a{fill:#fff;stroke:rgba(112,112,112,0.21);}.b{fill:#0076bd;}.b,.c,.d,.e{fill-rule:evenodd;}.d{fill:#0a0b09;}.e{fill:#1a1919;}.f{stroke:none;}.g{fill:none;}</style></defs><g transform="translate(-1271 -921)"><g class="a" transform="translate(1271 921)"><circle class="f" cx="42" cy="42" r="42"/><circle class="g" cx="42" cy="42" r="41.5"/></g><g transform="translate(1283.133 950.399)"><g transform="translate(0 0.263)"><g transform="translate(0 0)"><g transform="translate(30.965)"><path class="b" d="M9.333,188.285a1.488,1.488,0,0,0-.234.882c0,.814.3,1.221.875,1.221a.786.786,0,0,0,.642-.322,1.473,1.473,0,0,0,.234-.9c0-.8-.3-1.188-.876-1.188A.771.771,0,0,0,9.333,188.285Zm-1.61-.627-.36.627A1.08,1.08,0,0,0,6.549,188a.942.942,0,0,0-.766.323,1.324,1.324,0,0,0-.282.9c0,.764.36,1.154,1.095,1.154a1.262,1.262,0,0,0,.845-.322l.312.678a2.023,2.023,0,0,1-.657.289,2.47,2.47,0,0,1-.658.067,1.848,1.848,0,0,1-1.344-.491,1.89,1.89,0,0,1-.485-1.375,1.836,1.836,0,0,1,.532-1.391,2.008,2.008,0,0,1,1.47-.526A1.759,1.759,0,0,1,7.723,187.658Zm3.549.152a1.852,1.852,0,0,1,.469,1.357,1.905,1.905,0,0,1-.485,1.391,1.606,1.606,0,0,1-1.283.525,1.6,1.6,0,0,1-1.3-.525,1.993,1.993,0,0,1-.469-1.391,1.835,1.835,0,0,1,.485-1.341,1.648,1.648,0,0,1,1.282-.526A1.661,1.661,0,0,1,11.272,187.81Zm4.394-.407a1.649,1.649,0,0,1,.578-.1,1.186,1.186,0,0,1,1.3,1.29v2.426h-.86v-2.307c0-.475-.219-.713-.656-.713a.65.65,0,0,0-.376.12.758.758,0,0,0-.25.254v2.647h-.844v-2.426a.585.585,0,0,0-.173-.441.662.662,0,0,0-.469-.153.637.637,0,0,0-.36.12,1.145,1.145,0,0,0-.281.254v2.647h-.844v-3.647h.579l.187.323a1.133,1.133,0,0,1,.923-.391,1.466,1.466,0,0,1,1.095.391A1.035,1.035,0,0,1,15.666,187.4ZM1.311,189.626a.988.988,0,0,1,.938-1.035,1.032,1.032,0,0,1,0,2.052A.983.983,0,0,1,1.311,189.626ZM.217,187.487v3.445a.779.779,0,0,0,.751.8H18.684a.78.78,0,0,0,.751-.8v-3.445a.8.8,0,0,0-.751-.814H.968a.8.8,0,0,0-.751.814Z" transform="translate(-0.217 -170.514)"/><path class="b" d="M255.242,12.707c-.1.3-.191.592-.305.882a2.422,2.422,0,0,1-.148.341l-.029-.006-.455-.1-1.809-.386-1.6-.342c-.014-.291-.013-.582-.026-.872s.029-.591.025-.887l2.835.646,1.622.37C255.312,12.472,255.277,12.589,255.242,12.707Zm-4.135-3.554c.129-.631.23-1.267.381-1.894.076-.314.17-.622.269-.93.023-.069.241-.778.264-.773l1.314.3,1.633.369-3.912,3.306Q251.082,9.34,251.108,9.152Zm1.632-5.246a6.267,6.267,0,0,1,1-1.406c.326-.315.829-.647,1.263-.327a2.468,2.468,0,0,1,.718,1.2,7.5,7.5,0,0,1,.354,1.753c-1.178-.282-2.361-.541-3.541-.81Zm-.636,6.284,4.054-3.65a18.277,18.277,0,0,1-.1,2.228c-.084.744-.218,1.484-.371,2.217l-2.964-.657ZM255.033.3a2.253,2.253,0,0,0-2.188,1.012,9.206,9.206,0,0,0-1.351,2.632,24.654,24.654,0,0,0-.987,3.766,26.083,26.083,0,0,0-.444,3.97c-.022.658-.021,1.318.018,1.975.019.325.049.649.1.972q.034.231.079.46.023.114.049.228c.017.017.088-.007.107-.011a6.49,6.49,0,0,1,1.766-.111,4.024,4.024,0,0,1,1.746.543c.131.075.26.155.384.24q.1.066.191.136a1.169,1.169,0,0,0,.165.129,7.974,7.974,0,0,0,.444-.808,14.849,14.849,0,0,0,.677-1.721,25.58,25.58,0,0,0,.952-3.776A28.513,28.513,0,0,0,257.149,6a12.626,12.626,0,0,0-.267-3.365A2.793,2.793,0,0,0,255.033.3Z" transform="translate(-228.392 -0.263)"/></g><path class="c" d="M13.648,15.682H5.658a1.252,1.252,0,0,1-.892-.356,1.136,1.136,0,0,1-.359-.814,3.058,3.058,0,0,1,.438-1.34l5.723-11.01h-3a2.411,2.411,0,0,0-1.579.39,2.154,2.154,0,0,0-.454,1.561H4.579V.668H11.74c1.079,0,1.626.441,1.626,1.307a1.914,1.914,0,0,1-.25.882L7.206,14.206h6.442v1.476" transform="translate(-4.025 -0.633)"/><path class="c" d="M119.381,61.244v-2.07c-1.642.1-2.471.713-2.471,1.866,0,.916.313,1.391.939,1.391A1.692,1.692,0,0,0,119.381,61.244Zm2.3,1.306h-1.094a1.72,1.72,0,0,0-1.157.373c-.594.458-.891.713-.922.729a2.389,2.389,0,0,1-1.3.356,2.738,2.738,0,0,1-1.97-.763,2.445,2.445,0,0,1-.8-1.832c0-2.086,1.657-3.223,4.941-3.392v-.95a6.137,6.137,0,0,0-.219-1.985.786.786,0,0,0-.766-.61.688.688,0,0,0-.719.543c-.016.017-.078.407-.187,1.137a1.208,1.208,0,0,1-1.345,1.119l-1.266-1.306a2.42,2.42,0,0,1,.985-1.918,4.068,4.068,0,0,1,2.549-.729,3.207,3.207,0,0,1,2.533.882,4.774,4.774,0,0,1,.735,2.986V62.55Z" transform="translate(-104.52 -48.723)"/><path class="c" d="M215.544,59.814c0,2.07.563,3.088,1.673,3.088,1.079,0,1.611-1.306,1.611-3.9,0-2.493-.516-3.749-1.564-3.749-.7,0-1.282.7-1.72,2.1Zm-2.252-4.259h.3a2.094,2.094,0,0,0,.282.018,2.329,2.329,0,0,0,1.3-.255c.39-.356.8-.712,1.219-1.086a2.432,2.432,0,0,1,1.548-.526,2.806,2.806,0,0,1,2.486,1.408,7.233,7.233,0,0,1,.923,3.936,7.146,7.146,0,0,1-.97,4.021,3.109,3.109,0,0,1-2.7,1.407,2.584,2.584,0,0,1-2.127-1.051v4.037a1.3,1.3,0,0,1-.313.883,1.043,1.043,0,0,1-.8.356,1.014,1.014,0,0,1-.813-.373,1.23,1.23,0,0,1-.328-.866V55.556Z" transform="translate(-194.803 -49.074)"/><path class="c" d="M319.264,59.814c0,2.07.548,3.088,1.673,3.088,1.078,0,1.61-1.306,1.61-3.9,0-2.493-.532-3.749-1.579-3.749-.7,0-1.267.7-1.7,2.1Zm-2.251-4.259h.3a1.864,1.864,0,0,0,.282.018,2.326,2.326,0,0,0,1.3-.255c.391-.356.8-.712,1.2-1.086a2.505,2.505,0,0,1,1.564-.526,2.8,2.8,0,0,1,2.471,1.408,7.236,7.236,0,0,1,.907,3.936,7.153,7.153,0,0,1-.954,4.021,3.1,3.1,0,0,1-2.689,1.407,2.585,2.585,0,0,1-2.127-1.051v4.037a1.241,1.241,0,0,1-.328.883,1.054,1.054,0,0,1-1.595-.017,1.23,1.23,0,0,1-.328-.866V55.556Z" transform="translate(-289.533 -49.074)"/><path class="c" d="M423.157,59.616a24.446,24.446,0,0,0-.125-3.1c-.2-1.34-.7-2.019-1.47-2.019a1.314,1.314,0,0,0-1.267,1.034,10.046,10.046,0,0,0-.375,3.223,10.082,10.082,0,0,0,.344,3.071,1.32,1.32,0,0,0,1.282,1.018C422.61,62.839,423.157,61.77,423.157,59.616Zm2.252-.866c0,3.5-1.3,5.259-3.862,5.259-2.58,0-3.878-1.764-3.878-5.259,0-3.613,1.3-5.428,3.878-5.428a3.313,3.313,0,0,1,2.83,1.441,6.723,6.723,0,0,1,1.032,3.987Z" transform="translate(-381.464 -48.723)"/><path class="c" d="M519.5,55.968c0-.9-.485-1.34-1.455-1.34-.829,0-1.235.339-1.235,1.051,0,.441.438.933,1.313,1.51.438.272.954.628,1.549,1.034a3.662,3.662,0,0,1,1.2,2.715,2.909,2.909,0,0,1-.892,2.206,3.225,3.225,0,0,1-2.314.83,3.93,3.93,0,0,1-2.063-.475,1.425,1.425,0,0,1-.814-1.187c0-.288.2-.424.61-.424a1.576,1.576,0,0,1,.3.017,3.025,3.025,0,0,0,1.735.7c.892,0,1.346-.357,1.346-1.069a1.412,1.412,0,0,0-.516-1.053,12.435,12.435,0,0,0-1.361-1,6.927,6.927,0,0,1-1.626-1.425,2.778,2.778,0,0,1-.563-1.731,2.746,2.746,0,0,1,.907-2.206,3.723,3.723,0,0,1,2.549-.8,8.213,8.213,0,0,1,2.142.407v2.239H519.5" transform="translate(-470.096 -48.723)"/><path class="b" d="M.543,263.681a.913.913,0,0,0,.267.027c.409,0,.659-.2.659-.552,0-.329-.231-.507-.61-.507a1.51,1.51,0,0,0-.316.027ZM0,262.288a4.809,4.809,0,0,1,.837-.062,1.343,1.343,0,0,1,.881.245.847.847,0,0,1,.294.663.913.913,0,0,1-.254.676,1.333,1.333,0,0,1-.948.325,1.2,1.2,0,0,1-.267-.022v1.135H0v-2.96Z" transform="translate(0 -239.518)"/><path class="b" d="M42.126,264.575c.53,0,.828-.49.828-1.117,0-.565-.28-1.1-.828-1.1s-.832.521-.832,1.117.3,1.1.828,1.1Zm-.027.441a1.389,1.389,0,0,1-1.384-1.527,1.442,1.442,0,0,1,1.429-1.571,1.384,1.384,0,0,1,1.389,1.518,1.416,1.416,0,0,1-1.429,1.58Z" transform="translate(-37.186 -239.237)"/><path class="b" d="M90.328,265.483l-.734-3h.583l.285,1.362c.076.365.147.748.2,1.046h.009c.049-.316.134-.672.218-1.055l.325-1.353h.574l.3,1.38c.071.356.138.69.182,1.015h.009c.053-.334.125-.672.2-1.042l.312-1.353h.556l-.81,3h-.583l-.312-1.415a9.448,9.448,0,0,1-.169-.948h-.009a9.074,9.074,0,0,1-.2.952l-.347,1.411h-.592" transform="translate(-81.828 -239.753)"/><path class="b" d="M152.576,264.152h-1.131v.881h1.264v.449H150.9v-3h1.745v.45h-1.2v.774h1.131v.445" transform="translate(-137.818 -239.753)"/><path class="b" d="M191.694,263.615h.325c.369,0,.6-.2.6-.494,0-.325-.227-.481-.583-.481a1.573,1.573,0,0,0-.338.027Zm-.543-1.322a4.707,4.707,0,0,1,.828-.067,1.4,1.4,0,0,1,.926.24.762.762,0,0,1,.258.605.788.788,0,0,1-.548.748v.013a.744.744,0,0,1,.418.579,7.621,7.621,0,0,0,.236.837h-.561a3.818,3.818,0,0,1-.2-.708c-.089-.392-.227-.516-.539-.525h-.276v1.233h-.543v-2.955Z" transform="translate(-174.581 -239.518)"/><path class="b" d="M235.854,264.152h-1.131v.881h1.264v.449h-1.812v-3h1.745v.45h-1.2v.774h1.131v.445" transform="translate(-213.877 -239.753)"/><path class="b" d="M274.977,264.834a2.038,2.038,0,0,0,.3.013,1.031,1.031,0,0,0,1.135-1.153.954.954,0,0,0-1.064-1.041,1.788,1.788,0,0,0-.374.031Zm-.547-2.541a5.524,5.524,0,0,1,.872-.067,1.813,1.813,0,0,1,1.22.347,1.337,1.337,0,0,1,.472,1.1,1.546,1.546,0,0,1-.467,1.193,2,2,0,0,1-1.358.409,6.106,6.106,0,0,1-.739-.04v-2.947Z" transform="translate(-250.641 -239.518)"/><path class="d" d="M322.307,264.18a1.432,1.432,0,0,0-.026.279c0,.228.129.352.4.352.649,0,1.019-.726,1.019-1.247,0-.288-.129-.576-.473-.576-.361,0-.739.378-.864.937Zm.464-2.3-.292,1.44.009,0a.93.93,0,0,1,.787-.5c.464,0,.628.387.628.748a1.381,1.381,0,0,1-1.242,1.41c-.284,0-.572-.116-.572-.507a2.186,2.186,0,0,1,.03-.284l.46-2.309Z" transform="translate(-294.168 -239.202)"/><path class="d" d="M355.7,273.286l.254,1.242c.052.254.082.408.107.576h.013c.06-.133.129-.288.241-.52l.628-1.3h.206l-.8,1.625a3.816,3.816,0,0,1-.658,1.027,1.271,1.271,0,0,1-.563.357l-.056-.168a1.3,1.3,0,0,0,.4-.219,1.958,1.958,0,0,0,.443-.55.136.136,0,0,0,.009-.09l-.421-1.982h.2" transform="translate(-324.291 -249.619)"/><path class="b" d="M393.208,264.418a1.5,1.5,0,0,0,.725.191c.347,0,.543-.165.543-.409,0-.227-.151-.361-.53-.5-.5-.174-.814-.441-.814-.868,0-.494.41-.863,1.064-.863a1.632,1.632,0,0,1,.717.147l-.129.445a1.308,1.308,0,0,0-.6-.142c-.347,0-.494.182-.494.361,0,.231.174.338.574.49.521.2.77.463.77.89,0,.485-.365.9-1.135.9a1.789,1.789,0,0,1-.814-.187l.125-.454" transform="translate(-359.009 -239.284)"/><path class="b" d="M436.76,264.152h-1.131v.881h1.264v.449h-1.811v-3h1.745v.45h-1.2v.774h1.131v.445" transform="translate(-397.367 -239.753)"/><path class="b" d="M475.878,263.615h.325c.369,0,.6-.2.6-.494,0-.325-.227-.481-.583-.481a1.574,1.574,0,0,0-.338.027Zm-.543-1.322a4.709,4.709,0,0,1,.828-.067,1.4,1.4,0,0,1,.926.24.762.762,0,0,1,.258.605.788.788,0,0,1-.547.748v.013a.744.744,0,0,1,.418.579,7.606,7.606,0,0,0,.236.837h-.561a3.832,3.832,0,0,1-.2-.708c-.089-.392-.227-.516-.539-.525h-.276v1.233h-.543v-2.955Z" transform="translate(-434.131 -239.518)"/><path class="b" d="M516.25,265.483l-.97-3h.6l.409,1.366c.116.378.218.73.294,1.09h.009c.08-.356.191-.721.307-1.086l.436-1.371h.583l-1.037,3h-.628" transform="translate(-470.613 -239.753)"/><path class="b" d="M563.235,265.483h.547v-3h-.547Z" transform="translate(-514.411 -239.753)"/><path class="b" d="M591.062,264.925a1.983,1.983,0,0,1-.779.134,1.415,1.415,0,0,1-1.531-1.509,1.509,1.509,0,0,1,1.607-1.58,1.717,1.717,0,0,1,.725.129l-.116.436a1.474,1.474,0,0,0-.588-.116,1,1,0,0,0-1.05,1.1.979.979,0,0,0,1.046,1.077,1.662,1.662,0,0,0,.6-.107l.089.432" transform="translate(-537.717 -239.284)"/><path class="b" d="M636.281,264.152H635.15v.881h1.264v.449H634.6v-3h1.745v.45h-1.2v.774h1.131v.445" transform="translate(-579.593 -239.753)"/><path class="b" d="M605.289,191.382a2.353,2.353,0,1,1-2.01-2.707,2.386,2.386,0,0,1,2.01,2.707" transform="translate(-548.541 -172.324)"/><path class="e" d="M663.109,256.22h.083c.1,0,.176-.032.176-.111s-.051-.116-.162-.116a.415.415,0,0,0-.1.009Zm0,.426h-.176v-.758a2.051,2.051,0,0,1,.291-.023.4.4,0,0,1,.259.06.191.191,0,0,1,.078.162.2.2,0,0,1-.157.18v.009c.074.023.111.083.134.185a.677.677,0,0,0,.055.185H663.4a.6.6,0,0,1-.06-.185c-.014-.079-.06-.116-.157-.116H663.1Zm.116-1a.606.606,0,0,0,.009,1.212.581.581,0,0,0,.578-.6.59.59,0,0,0-.583-.61Zm.009-.153a.761.761,0,1,1,0,1.521.761.761,0,1,1,0-1.521Z" transform="translate(-605.02 -233.37)"/></g></g></g></g></svg>