<?xml version="1.0" standalone="no"?>
<!DOCTYPE svg PUBLIC "-//W3C//DTD SVG 1.1//EN" "http://www.w3.org/Graphics/SVG/1.1/DTD/svg11.dtd" >
<svg>
<metadata>
Created by FontForge 20090914 at Thu Aug 19 18:18:38 2021
 By www-data
Copyright 2018 Airbnb. All rights reserved.
</metadata>
<defs>
<font id="AirbnbCerealApp-Bold" horiz-adv-x="594" >
  <font-face 
    font-family="Airbnb Cereal App"
    font-weight="700"
    font-stretch="normal"
    units-per-em="1000"
    panose-1="2 11 7 2 2 2 3 2 2 4"
    ascent="800"
    descent="-200"
    x-height="528"
    cap-height="710"
    bbox="-226 -278.006 1519 975"
    underline-thickness="63"
    underline-position="-68"
    unicode-range="U+000D-U+F9001"
  />
<missing-glyph horiz-adv-x="500" 
d="M450 0h-400v750h400v-750zM100 50h300v650h-300v-650z" />
    <glyph glyph-name="f_i.liga" unicode="fi" horiz-adv-x="646" 
d="M108 0v418h-90v110h90v30c0 29.333 4.5 56 13.5 80s21.833 44.833 38.5 62.5s36.5 31.334 59.5 41.001s48.5 14.5 76.5 14.5c19.333 0 37 -2.33301 53 -7s30 -10.334 42 -17.001l-28 -106l-23 8c-8 2.66699 -16.667 4 -26 4c-22 0 -38.5 -7.66699 -49.5 -23
s-16.5 -37.333 -16.5 -66v-21h342v-528h-140v418h-202v-418h-140zM600 671c0 -15.333 -3.5 -29 -10.5 -41s-16.667 -21.5 -29 -28.5s-25.833 -10.5 -40.5 -10.5s-28.167 3.5 -40.5 10.5s-22 16.5 -29 28.5s-10.5 25.667 -10.5 41s3.5 29 10.5 41s16.667 21.5 29 28.5
s25.833 10.5 40.5 10.5s28.167 -3.5 40.5 -10.5s22 -16.5 29 -28.5s10.5 -25.667 10.5 -41z" />
    <glyph glyph-name="f_f.liga" unicode="ff" horiz-adv-x="752" 
d="M108 0l-0.00390625 417.998h-90v110h90v30c0 28.667 4.83301 55.167 14.5 79.5s23.334 45.333 41.001 63s38.667 31.334 63 41.001s50.833 14.5 79.5 14.5c22 0 41.833 -2.66699 59.5 -8s32.834 -11.333 45.501 -18l-28 -107c-8 4 -17.167 7.5 -27.5 10.5
s-20.166 4.5 -29.499 4.5c-26.667 0 -46.334 -7.83301 -59.001 -23.5s-19 -37.5 -19 -65.5v-21h202v30c0 28.667 4.83301 55.167 14.5 79.5s23.334 45.333 41.001 63s38.667 31.334 63 41.001s50.833 14.5 79.5 14.5c22 0 41.833 -2.66699 59.5 -8
s32.834 -11.333 45.501 -18l-28 -107c-8 4 -17.167 7.5 -27.5 10.5s-20.166 4.5 -29.499 4.5c-26.667 0 -46.334 -7.83301 -59.001 -23.5s-19 -37.5 -19 -65.5v-21h140v-110h-140v-418h-140v418h-202v-418h-140z" />
    <glyph glyph-name="f_f_i.liga" unicode="ffi" horiz-adv-x="988" 
d="M108 0l-0.00195312 417.999h-90v110h90v30c0 28.667 4.83301 55.167 14.5 79.5s23.334 45.333 41.001 63s38.667 31.334 63 41.001s50.833 14.5 79.5 14.5c22 0 41.833 -2.66699 59.5 -8s32.834 -11.333 45.501 -18l-28 -107c-8 4 -17.167 7.5 -27.5 10.5
s-20.166 4.5 -29.499 4.5c-26.667 0 -46.334 -7.83301 -59.001 -23.5s-19 -37.5 -19 -65.5v-21h202v30c0 29.333 4.5 56 13.5 80s21.833 44.833 38.5 62.5s36.5 31.334 59.5 41.001s48.5 14.5 76.5 14.5c19.333 0 37 -2.33301 53 -7s30 -10.334 42 -17.001l-28 -106l-23 8
c-8 2.66699 -16.667 4 -26 4c-22 0 -38.5 -7.66699 -49.5 -23s-16.5 -37.333 -16.5 -66v-21h342v-528h-140v418h-202v-418h-140v418h-202v-418h-140zM941.998 670.999c0 -15.333 -3.5 -29 -10.5 -41s-16.667 -21.5 -29 -28.5s-25.833 -10.5 -40.5 -10.5
s-28.167 3.5 -40.5 10.5s-22 16.5 -29 28.5s-10.5 25.667 -10.5 41s3.5 29 10.5 41s16.667 21.5 29 28.5s25.833 10.5 40.5 10.5s28.167 -3.5 40.5 -10.5s22 -16.5 29 -28.5s10.5 -25.667 10.5 -41z" />
    <glyph glyph-name=".notdef" horiz-adv-x="500" 
d="M450 0h-400v750h400v-750zM100 50h300v650h-300v-650z" />
    <glyph glyph-name="uni0000" horiz-adv-x="0" 
 />
    <glyph glyph-name="uni000D" unicode="&#xd;" horiz-adv-x="209" 
 />
    <glyph glyph-name="space" unicode=" " horiz-adv-x="209" 
 />
    <glyph glyph-name="exclam" unicode="!" horiz-adv-x="264" 
d="M65 221l-9 489h152l-9 -489h-134zM132 -4c-16 0 -30.333 3.66699 -43 11s-22.834 17.5 -30.501 30.5s-11.5 27.5 -11.5 43.5s3.83301 30.5 11.5 43.5s17.834 23.167 30.501 30.5s27 11 43 11s30.333 -3.66699 43 -11s22.834 -17.5 30.501 -30.5s11.5 -27.5 11.5 -43.5
s-3.83301 -30.5 -11.5 -43.5s-17.834 -23.167 -30.501 -30.5s-27 -11 -43 -11z" />
    <glyph glyph-name="quotedbl" unicode="&#x22;" horiz-adv-x="435" 
d="M60 432l-6 278h126l-6 -278h-114zM261 432l-6 278h126l-6 -278h-114z" />
    <glyph glyph-name="numbersign" unicode="#" horiz-adv-x="664" 
d="M130 0l14 177h-94l8 95h94l12 146h-93l8 95h93l14 177h107l-14 -177h134l14 177h107l-14 -177h94l-8 -95h-94l-12 -146h94l-8 -95h-94l-14 -177h-107l14 177h-134l-14 -177h-107zM259 272h134l12 146h-134z" />
    <glyph glyph-name="dollar" unicode="$" 
d="M550 206c0 -38 -8.50098 -72.167 -25.501 -102.5s-40.667 -55 -71 -74s-65.166 -31.167 -104.499 -36.5v-133h-101v135c-33.333 6.66699 -64 18.167 -92 34.5s-51.5 37 -70.5 62s-32.833 53.5 -41.5 85.5l136 28c10.667 -28.667 27 -51 49 -67s47.667 -24 77 -24
c20 0 37.667 3.5 53 10.5s27.5 16.667 36.5 29s13.5 26.5 13.5 42.5c0 42 -32.333 69.667 -97 83l-49 10c-66 13.333 -116.5 37.333 -151.5 72s-52.5 77.667 -52.5 129c0 35.333 8 67.5 24 96.5s38.167 53 66.5 72s61.166 31.5 98.499 37.5v124h101v-125
c32.667 -5.33301 62 -16.166 88 -32.499s47.833 -36.833 65.5 -61.5s29.834 -52.667 36.501 -84l-132 -29c-10.667 29.333 -25 51.333 -43 66s-40.667 22 -68 22c-29.333 0 -52.666 -7 -69.999 -21s-26 -32.667 -26 -56c0 -20 8 -36.5 24 -49.5s42.333 -23.167 79 -30.5
l49 -10c63.333 -12.667 112.166 -36.334 146.499 -71.001s51.5 -78.667 51.5 -132z" />
    <glyph glyph-name="percent" unicode="%" horiz-adv-x="757" 
d="M192 385c-30.667 0 -57.833 6.83301 -81.5 20.5s-42.5 32.167 -56.5 55.5s-21 50 -21 80c0 22.667 4 43.5 12 62.5s19.333 35.667 34 50s31.834 25.5 51.501 33.5s41.167 12 64.5 12c22.667 0 43.667 -4 63 -12s36.333 -19 51 -33s26 -30.5 34 -49.5s12 -39.833 12 -62.5
s-4.16699 -43.5 -12.5 -62.5s-19.833 -35.5 -34.5 -49.5s-31.834 -25 -51.501 -33s-41.167 -12 -64.5 -12zM218.001 0h-112l432 690h112zM137.001 542c0 -18.667 5.5 -34.334 16.5 -47.001s24.5 -19 40.5 -19s29.5 6.33301 40.5 19s16.5 28.334 16.5 47.001
s-5.5 34.334 -16.5 47.001s-24.5 19 -40.5 19s-29.5 -6.33301 -40.5 -19s-16.5 -28.334 -16.5 -47.001zM561.001 -9c-30 0 -57 6.83301 -81 20.5s-43 32.167 -57 55.5s-21 50 -21 80c0 22.667 4 43.5 12 62.5s19.333 35.667 34 50s31.834 25.5 51.501 33.5
s41.167 12 64.5 12c22.667 0 43.667 -4 63 -12s36.333 -19 51 -33s26 -30.5 34 -49.5s12 -39.833 12 -62.5s-4.16699 -43.5 -12.5 -62.5s-19.833 -35.5 -34.5 -49.5s-31.834 -25 -51.501 -33s-41.167 -12 -64.5 -12zM563.001 82c16 0 29.5 6.33301 40.5 19
s16.5 28.334 16.5 47.001s-5.5 34.334 -16.5 47.001s-24.5 19 -40.5 19s-29.5 -6.33301 -40.5 -19s-16.5 -28.334 -16.5 -47.001s5.5 -34.334 16.5 -47.001s24.5 -19 40.5 -19z" />
    <glyph glyph-name="ampersand" unicode="&#x26;" horiz-adv-x="705" 
d="M281 -20c-36.667 0 -70.1709 4.99805 -100.504 14.998s-56.666 24.167 -78.999 42.5s-39.5 40 -51.5 65s-18 52.5 -18 82.5c0 40.667 11 77.834 33 111.501s52.667 61.167 92 82.5c-26 29.333 -44.5 56.333 -55.5 81s-16.5 50 -16.5 76c0 27.333 5 52.5 15 75.5
s24 43 42 60s39.333 30.167 64 39.5s51.667 14 81 14c28.667 0 55 -4.5 79 -13.5s44.833 -21.5 62.5 -37.5s31.334 -34.667 41.001 -56s14.5 -44.666 14.5 -69.999c0 -75.333 -44 -138.333 -132 -189l130 -133c12 22.667 21.667 47.667 29 75s12 57 14 89l124 -10
c-5.33301 -48 -14.666 -92.333 -27.999 -133s-30.666 -77 -51.999 -109l136 -138h-178l-44 45c-28 -21.333 -59 -37.5 -93 -48.5s-70.333 -16.5 -109 -16.5zM215.996 538.998c0 -14.667 4.33301 -29.667 13 -45s23.667 -33.666 45 -54.999
c25.333 12.667 45.333 28.167 60 46.5s22 37.5 22 57.5c0 19.333 -6.33301 35.166 -19 47.499s-28.667 18.5 -48 18.5c-14 0 -26.5 -3 -37.5 -9s-19.667 -14.333 -26 -25s-9.5 -22.667 -9.5 -36zM172.996 197.998c0 -20 5.16699 -37.333 15.5 -52s24.833 -26.167 43.5 -34.5
s40 -12.5 64 -12.5c36.667 0 71 10.667 103 32l-165 169c-19.333 -10.667 -34.333 -25 -45 -43s-16 -37.667 -16 -59z" />
    <glyph glyph-name="quotesingle" unicode="'" horiz-adv-x="234" 
d="M60 432l-6 278h126l-6 -278h-114z" />
    <glyph glyph-name="parenleft" unicode="(" horiz-adv-x="356" 
d="M342 -145l-134 -0.00195312c-54 70 -94.833 144.667 -122.5 224s-41.5 161 -41.5 245s13.833 165.667 41.5 245s68.5 154 122.5 224h134c-55.333 -72.667 -97.333 -148.667 -126 -228s-43 -159.666 -43 -240.999s14.333 -161.666 43 -240.999s70.667 -155.333 126 -228z
" />
    <glyph glyph-name="parenright" unicode=")" horiz-adv-x="356" 
d="M14 793l134 0.00195312c54 -70 94.833 -144.667 122.5 -224s41.5 -161 41.5 -245s-13.833 -165.667 -41.5 -245s-68.5 -154 -122.5 -224h-134c55.333 72.667 97.333 148.667 126 228s43 159.666 43 240.999s-14.333 161.666 -43 240.999s-70.667 155.333 -126 228z" />
    <glyph glyph-name="asterisk" unicode="*" horiz-adv-x="427" 
d="M138 316l-86 63l93 109l-137 34l32 100l130 -54l-11 142h109l-11 -142l130 54l32 -100l-137 -34l93 -109l-86 -63l-75 123z" />
    <glyph glyph-name="plus" unicode="+" 
d="M78 217v117h159v161h120v-161h159v-117h-159v-167h-120v167h-159z" />
    <glyph glyph-name="comma" unicode="," horiz-adv-x="270" 
d="M78 -166l-26.001 78.9971c20 5.33301 37.5 13.333 52.5 24s26.667 22.834 35 36.501s12.5 28.167 12.5 43.5c0 4.66699 -0.333008 9 -1 13c-8.66699 -6 -18.667 -9 -30 -9c-13.333 0 -25.5 3.33301 -36.5 10s-19.833 15.834 -26.5 27.501s-10 24.167 -10 37.5
c0 14 3.83301 26.833 11.5 38.5s17.834 21 30.501 28s26.667 10.5 42 10.5c21.333 0 40.333 -6.16699 57 -18.5s30 -29.166 40 -50.499s15 -45 15 -71c0 -31.333 -6.83301 -60.5 -20.5 -87.5s-33 -50.167 -58 -69.5s-54.167 -33.333 -87.5 -42z" />
    <glyph glyph-name="hyphen" unicode="-" horiz-adv-x="371" 
d="M44 214v122h283v-122h-283z" />
    <glyph glyph-name="period" unicode="." horiz-adv-x="270" 
d="M135 -4c-16.667 0 -31.5 4 -44.5 12s-23.5 18.667 -31.5 32s-12 28 -12 44s4 30.667 12 44s18.5 24 31.5 32s27.833 12 44.5 12s31.5 -4 44.5 -12s23.5 -18.667 31.5 -32s12 -28 12 -44s-4 -30.667 -12 -44s-18.5 -24 -31.5 -32s-27.833 -12 -44.5 -12z" />
    <glyph glyph-name="slash" unicode="/" horiz-adv-x="475" 
d="M8 -115l331 878h128l-331 -878h-128z" />
    <glyph glyph-name="zero" unicode="0" horiz-adv-x="618" 
d="M307 -15c-40.667 0 -77.167 8.33301 -109.5 25s-60 40.667 -83 72s-40.5 69 -52.5 113s-18 93.667 -18 149s6.16699 105.333 18.5 150s30 82.667 53 114s51 55.333 84 72s70.167 25 111.5 25c40.667 0 77.167 -8.33301 109.5 -25s60 -40.667 83 -72s40.5 -69 52.5 -113
s18 -93.667 18 -149s-6.16699 -105.333 -18.5 -150s-30 -82.667 -53 -114s-51 -55.333 -84 -72s-70.167 -25 -111.5 -25zM309 116c38.667 0 68.5 19.833 89.5 59.5s31.5 96.167 31.5 169.5s-10.5 129.833 -31.5 169.5s-50.833 59.5 -89.5 59.5s-68.5 -19.833 -89.5 -59.5
s-31.5 -96.167 -31.5 -169.5s10.5 -129.833 31.5 -169.5s50.833 -59.5 89.5 -59.5z" />
    <glyph glyph-name="one" unicode="1" horiz-adv-x="442" 
d="M204 0v538l-140 -78l-47 118l207 112h121v-690h-141z" />
    <glyph glyph-name="two" unicode="2" horiz-adv-x="570" 
d="M43 0l-0.000976562 104.002l70 59.5l53 46l41 37.5l36 35c28 28 51 53 69 75s31.5 42.667 40.5 62s13.5 39.333 13.5 60c0 30.667 -8.5 54.834 -25.5 72.501s-38.833 26.5 -65.5 26.5c-26 0 -48.167 -8.33301 -66.5 -25s-30.833 -39.334 -37.5 -68.001l-135 23
c8 40 23.5 74.667 46.5 104s51.5 52.166 85.5 68.499s71.333 24.5 112 24.5c34 0 65.167 -5.66699 93.5 -17s52.833 -27 73.5 -47s36.834 -43.667 48.501 -71s17.5 -57 17.5 -89c0 -30 -5.33301 -58.333 -16 -85s-27.5 -54.334 -50.5 -83.001s-52.5 -60.667 -88.5 -96
l-49.5 -45.5l-52.5 -45.5h269v-126h-482z" />
    <glyph glyph-name="three" unicode="3" horiz-adv-x="567" 
d="M278 -15c-39.333 0 -76.5 6.99707 -111.5 20.9971s-65 35 -90 63s-42.5 62.667 -52.5 104l132 23c8.66699 -27.333 23.334 -48.666 44.001 -63.999s45.667 -23 75 -23c21.333 0 40.166 4 56.499 12s29.166 18.833 38.499 32.5s14 29.834 14 48.501
c0 18 -4.66699 33.833 -14 47.5s-22.5 24.334 -39.5 32.001s-36.5 11.5 -58.5 11.5h-73v122h66c21.333 0 39.833 3.66699 55.5 11s27.834 17.5 36.501 30.5s13 27.833 13 44.5c0 23.333 -8.5 42.5 -25.5 57.5s-39.167 22.5 -66.5 22.5
c-25.333 0 -47.833 -7.16699 -67.5 -21.5s-33.5 -35.5 -41.5 -63.5l-132 23c7.33301 36.667 22.5 69 45.5 97s51.833 49.833 86.5 65.5s73 23.5 115 23.5c32 0 61.833 -4.66699 89.5 -14s51.834 -22.5 72.501 -39.5s36.667 -37.167 48 -60.5s17 -49 17 -77
c0 -34 -8.33301 -64.167 -25 -90.5s-40.667 -47.166 -72 -62.499c35.333 -13.333 63.166 -34.333 83.499 -63s30.5 -62.334 30.5 -101.001c0 -30 -6.33301 -58 -19 -84s-30.334 -48.5 -53.001 -67.5s-49.167 -33.833 -79.5 -44.5s-63.166 -16 -98.499 -16z" />
    <glyph glyph-name="four" unicode="4" horiz-adv-x="601" 
d="M347 0v142h-313v114l294 434h156v-428h77v-120h-77v-142h-137zM169 262h178v260z" />
    <glyph glyph-name="five" unicode="5" horiz-adv-x="561" 
d="M279 -15c-40.667 0 -77.8291 7.49902 -111.496 22.499s-62.167 36.167 -85.5 63.5s-39.333 59.666 -48 96.999l134 21c8.66699 -25.333 23.167 -45 43.5 -59s43.166 -21 68.499 -21c21.333 0 40.333 4.66699 57 14s29.667 22 39 38s14 34.333 14 55
c0 20 -4.83301 38 -14.5 54s-22.667 28.5 -39 37.5s-34.833 13.5 -55.5 13.5c-18.667 0 -36.834 -3.66699 -54.501 -11s-32.167 -16.666 -43.5 -27.999l-113 12v396h413v-130h-279v-146c28.667 20 63.667 30 105 30c32 0 61.667 -5.66699 89 -17
s51.166 -27.166 71.499 -47.499s36.166 -44 47.499 -71s17 -56.5 17 -88.5c0 -34 -6.5 -65.333 -19.5 -94s-31.167 -53.5 -54.5 -74.5s-50.5 -37.333 -81.5 -49s-64.167 -17.5 -99.5 -17.5z" />
    <glyph glyph-name="six" unicode="6" horiz-adv-x="600" 
d="M323 -15c-42 0 -80 8.00195 -114 24.002s-63.333 38.833 -88 68.5s-43.667 64.834 -57 105.501s-20 86 -20 136c0 57.333 7.66699 109.666 23 156.999s37.333 88 66 122s62.5 60.333 101.5 79s82.5 28 130.5 28c30 0 59 -3.83301 87 -11.5s54.333 -18.834 79 -33.501
l-38 -118c-14.667 10 -33 18 -55 24s-43.667 9 -65 9c-34 0 -64 -8.16699 -90 -24.5s-47.167 -39.5 -63.5 -69.5s-26.833 -65.667 -31.5 -107c16 22 37.167 39.333 63.5 52s56.5 19 90.5 19c32.667 0 63 -5.66699 91 -17s52.333 -27.166 73 -47.499s36.834 -44 48.501 -71
s17.5 -56.5 17.5 -88.5c0 -32.667 -6.33301 -63.334 -19 -92.001s-30.334 -53.834 -53.001 -75.501s-49.167 -38.5 -79.5 -50.5s-62.833 -18 -97.5 -18zM318 108.002c20.667 0 39.3311 4.83105 55.998 14.498s29.834 23 39.501 40s14.5 35.833 14.5 56.5
s-4.83301 39.334 -14.5 56.001s-22.667 29.667 -39 39s-34.833 14 -55.5 14c-21.333 0 -40.166 -4.66699 -56.499 -14s-29.333 -22.166 -39 -38.499s-14.5 -34.833 -14.5 -55.5c0 -21.333 4.83301 -40.333 14.5 -57s22.667 -30 39 -40s34.833 -15 55.5 -15z" />
    <glyph glyph-name="seven" unicode="7" horiz-adv-x="559" 
d="M117 0l240 559h-324v131h484v-108l-241 -582h-159z" />
    <glyph glyph-name="eight" unicode="8" horiz-adv-x="596" 
d="M297 -15c-38 0 -72.999 4.83203 -104.999 14.499s-59.5 23.667 -82.5 42s-40.833 39.833 -53.5 64.5s-19 52 -19 82c0 40.667 10 76 30 106s47.333 52.333 82 67c-28.667 14.667 -50.834 35 -66.501 61s-23.5 56 -23.5 90c0 28 6 53.833 18 77.5s28.833 44 50.5 61
s47 30.333 76 40s60.833 14.5 95.5 14.5s66.334 -4.66699 95.001 -14s53.667 -22.5 75 -39.5s37.833 -37.167 49.5 -60.5s17.5 -48.666 17.5 -75.999c0 -34 -7.66699 -64.167 -23 -90.5s-37.333 -47.166 -66 -62.499c35.333 -13.333 62.666 -34.833 81.999 -64.5
s29 -64.834 29 -105.501c0 -30 -6.33301 -57.667 -19 -83s-30.667 -47.333 -54 -66s-51 -33 -83 -43s-67 -15 -105 -15zM298.001 412.999c19.333 0 36.333 3.83301 51 11.5s26.334 17.834 35.001 30.501s13 27.334 13 44.001c0 16 -4.33301 30.333 -13 43
s-20.334 22.667 -35.001 30s-31.667 11 -51 11s-36.5 -3.66699 -51.5 -11s-26.833 -17.333 -35.5 -30s-13 -27 -13 -43c0 -16.667 4.33301 -31.334 13 -44.001s20.5 -22.834 35.5 -30.501s32.167 -11.5 51.5 -11.5zM298.001 106.999c23.333 0 43.833 4 61.5 12
s31.334 18.833 41.001 32.5s14.5 29.834 14.5 48.501s-4.83301 35.167 -14.5 49.5s-23.334 25.5 -41.001 33.5s-38.167 12 -61.5 12s-44 -4 -62 -12s-31.833 -19.167 -41.5 -33.5s-14.5 -30.833 -14.5 -49.5s5 -34.834 15 -48.501s23.833 -24.5 41.5 -32.5
s38.167 -12 61.5 -12z" />
    <glyph glyph-name="nine" unicode="9" horiz-adv-x="598" 
d="M231 -15c-62.667 0 -118.998 15.0029 -168.998 45.0029l38 118c14.667 -10 33.167 -18 55.5 -24s45.5 -9 69.5 -9c55.333 0 98.833 16.833 130.5 50.5s50.167 84.167 55.5 151.5c-16 -22 -37.167 -39.5 -63.5 -52.5s-57.166 -19.5 -92.499 -19.5
c-32.667 0 -62.834 5.66699 -90.501 17s-51.834 27.166 -72.501 47.499s-36.834 44 -48.501 71s-17.5 56.5 -17.5 88.5c0 33.333 6.33301 64.333 19 93s30.5 53.667 53.5 75s49.833 38 80.5 50s64 18 100 18c40 0 76.833 -7.83301 110.5 -23.5
s62.834 -38.334 87.501 -68.001s43.667 -65.834 57 -108.501s20 -91 20 -145c0 -55.333 -7.33301 -106 -22 -152s-36 -85.667 -64 -119s-61.833 -59 -101.5 -77s-84.834 -27 -135.501 -27zM279.002 362.003c20.667 0 39.335 4.66895 56.002 14.002
s29.834 22.166 39.501 38.499s14.5 34.833 14.5 55.5c0 21.333 -4.83301 40.333 -14.5 57s-22.834 30 -39.501 40s-35 15 -55 15c-20.667 0 -39.334 -4.83301 -56.001 -14.5s-29.834 -23 -39.501 -40s-14.5 -35.833 -14.5 -56.5s4.83301 -39.334 14.5 -56.001
s22.667 -29.667 39 -39s34.833 -14 55.5 -14z" />
    <glyph glyph-name="colon" unicode=":" horiz-adv-x="270" 
d="M135 -4c-16.667 0 -31.5 4 -44.5 12s-23.5 18.667 -31.5 32s-12 28 -12 44s4 30.667 12 44s18.5 24 31.5 32s27.833 12 44.5 12s31.5 -4 44.5 -12s23.5 -18.667 31.5 -32s12 -28 12 -44s-4 -30.667 -12 -44s-18.5 -24 -31.5 -32s-27.833 -12 -44.5 -12zM135 356
c-16.667 0 -31.5 4 -44.5 12s-23.5 18.667 -31.5 32s-12 28 -12 44s4 30.667 12 44s18.5 24 31.5 32s27.833 12 44.5 12s31.5 -4 44.5 -12s23.5 -18.667 31.5 -32s12 -28 12 -44s-4 -30.667 -12 -44s-18.5 -24 -31.5 -32s-27.833 -12 -44.5 -12z" />
    <glyph glyph-name="semicolon" unicode=";" horiz-adv-x="270" 
d="M78 -166l-26.001 78.9971c20 5.33301 37.5 13.333 52.5 24s26.667 22.834 35 36.501s12.5 28.167 12.5 43.5c0 4.66699 -0.333008 9 -1 13c-8.66699 -6 -18.667 -9 -30 -9c-13.333 0 -25.5 3.33301 -36.5 10s-19.833 15.834 -26.5 27.501s-10 24.167 -10 37.5
c0 14 3.83301 26.833 11.5 38.5s17.834 21 30.501 28s26.667 10.5 42 10.5c21.333 0 40.333 -6.16699 57 -18.5s30 -29.166 40 -50.499s15 -45 15 -71c0 -31.333 -6.83301 -60.5 -20.5 -87.5s-33 -50.167 -58 -69.5s-54.167 -33.333 -87.5 -42zM134.999 355.997
c-16.667 0 -31.5 4 -44.5 12s-23.5 18.667 -31.5 32s-12 28 -12 44s4 30.667 12 44s18.5 24 31.5 32s27.833 12 44.5 12s31.5 -4 44.5 -12s23.5 -18.667 31.5 -32s12 -28 12 -44s-4 -30.667 -12 -44s-18.5 -24 -31.5 -32s-27.833 -12 -44.5 -12z" />
    <glyph glyph-name="less" unicode="&#x3c;" 
d="M480 493v-121l-260 -95l260 -95v-125l-391 162v112z" />
    <glyph glyph-name="equal" unicode="=" 
d="M80 331v117h434v-117h-434zM80 101v118h434v-118h-434z" />
    <glyph glyph-name="greater" unicode="&#x3e;" 
d="M114 57v121l260 95l-260 95v125l391 -162v-112z" />
    <glyph glyph-name="question" unicode="?" horiz-adv-x="540" 
d="M191 221l0.000976562 155.002c112.667 27.333 169 72.333 169 135c0 16.667 -4 31.667 -12 45s-19.333 23.666 -34 30.999s-31.334 11 -50.001 11c-26 0 -49.167 -7.16699 -69.5 -21.5s-34.5 -33.833 -42.5 -58.5l-132 29c6 26 16.333 49.833 31 71.5
s32.667 40.5 54 56.5s45.5 28.333 72.5 37s56.167 13 87.5 13c34.667 0 66.667 -5.16699 96 -15.5s54.833 -24.833 76.5 -43.5s38.5 -40.834 50.5 -66.501s18 -53.5 18 -83.5c0 -33.333 -7.33301 -63.833 -22 -91.5s-35.5 -52 -62.5 -73s-59.167 -37.167 -96.5 -48.5v-82
h-134zM258.001 -3.99805c-16 0 -30.333 3.66699 -43 11s-22.834 17.5 -30.501 30.5s-11.5 27.5 -11.5 43.5s3.83301 30.5 11.5 43.5s17.834 23.167 30.501 30.5s27 11 43 11s30.333 -3.66699 43 -11s22.834 -17.5 30.501 -30.5s11.5 -27.5 11.5 -43.5
s-3.83301 -30.5 -11.5 -43.5s-17.834 -23.167 -30.501 -30.5s-27 -11 -43 -11z" />
    <glyph glyph-name="at" unicode="@" horiz-adv-x="1015" 
d="M482 30c-29.333 0 -56.5039 5.82715 -81.5039 17.4941s-47 27.834 -66 48.501s-33.667 44.834 -44 72.501s-15.5 57.834 -15.5 90.501c0 32 5.16699 62 15.5 90s24.833 52.5 43.5 73.5s40.5 37.5 65.5 49.5s51.833 18 80.5 18c28 0 53.333 -6 76 -18
s41.334 -29 56.001 -51l3 58h117v-287c0 -18 4.16699 -32.333 12.5 -43s19.5 -16 33.5 -16c15.333 0 29 6.66699 41 20s21.333 31.833 28 55.5s10 50.5 10 80.5c0 46.667 -8.16699 89.334 -24.5 128.001s-39.5 72.334 -69.5 101.001s-65.333 50.834 -106 66.501
s-85.334 23.5 -134.001 23.5c-41.333 0 -80.166 -5.66699 -116.499 -17s-69.5 -27.666 -99.5 -48.999s-55.833 -46.5 -77.5 -75.5s-38.334 -61.333 -50.001 -97s-17.5 -73.5 -17.5 -113.5c0 -39.333 5.66699 -76.666 17 -111.999s27.666 -67.333 48.999 -96
s46.5 -53.5 75.5 -74.5s61.167 -37.167 96.5 -48.5s73 -17 113 -17c35.333 0 70.833 4.5 106.5 13.5s68.834 21.833 99.501 38.5l45 -95c-36 -20.667 -75.167 -36.5 -117.5 -47.5s-87.166 -16.5 -134.499 -16.5c-53.333 0 -103.666 7.33301 -150.999 22
s-90.5 35.667 -129.5 63s-72.667 59.666 -101 96.999s-50.166 79 -65.499 125s-23 94.667 -23 146c0 52.667 7.83301 102.167 23.5 148.5s37.834 88.666 66.501 126.999s62.834 71.333 102.501 99s83.667 49 132 64s99.5 22.5 153.5 22.5c52 0 101 -6.83301 147 -20.5
s87.667 -33.334 125 -59.001s69.5 -56.167 96.5 -91.5s47.833 -74.5 62.5 -117.5s22 -88.833 22 -137.5c0 -52.667 -8.33301 -98.167 -25 -136.5s-40.334 -68.166 -71.001 -89.499s-66.667 -32 -108 -32c-34.667 0 -64 7.33301 -88 22s-41.667 35.667 -53 63
c-14.667 -27.333 -34.667 -48.5 -60 -63.5s-54 -22.5 -86 -22.5zM503.996 145.994c20 0 37.667 4.99902 53 14.999s27.5 23.667 36.5 41s13.5 37 13.5 59s-4.5 41.833 -13.5 59.5s-21.167 31.5 -36.5 41.5s-33 15 -53 15c-19.333 0 -36.666 -5.16699 -51.999 -15.5
s-27.5 -24.166 -36.5 -41.499s-13.5 -37 -13.5 -59s4.5 -41.667 13.5 -59s21.167 -31 36.5 -41s32.666 -15 51.999 -15z" />
    <glyph glyph-name="A" unicode="A" horiz-adv-x="755" 
d="M16 0l282 710h158l283 -710h-153l-58 156h-307l-58 -156h-147zM268 282h213l-107 283z" />
    <glyph glyph-name="B" unicode="B" horiz-adv-x="620" 
d="M65 0l0.00195312 710h258c48 0 89.5 -7.5 124.5 -22.5s62 -36.333 81 -64s28.5 -60.167 28.5 -97.5c0 -34 -7.33301 -63.833 -22 -89.5s-35.334 -45.834 -62.001 -60.501c36 -14 64 -36.167 84 -66.5s30 -66.166 30 -107.499s-10.667 -77 -32 -107
s-51.333 -53.333 -90 -70s-84.334 -25 -137.001 -25h-263zM209.002 587v-163.001h98c32.667 0 57.834 6.83301 75.501 20.5s26.5 33.834 26.5 60.501s-8.83301 47 -26.5 61s-42.834 21 -75.501 21h-98zM209.002 122.999h112c37.333 0 66.166 8 86.499 24s30.5 39 30.5 69
s-10.167 53 -30.5 69s-49.166 24 -86.499 24h-112v-186z" />
    <glyph glyph-name="C" unicode="C" horiz-adv-x="741" 
d="M396 -20c-40.667 0 -79 6 -115 18s-68.667 29 -98 51s-54.5 48.167 -75.5 78.5s-37.167 64.333 -48.5 102s-17 77.834 -17 120.501s5.83301 83.167 17.5 121.5s28.167 73.333 49.5 105s46.666 59 75.999 82s61.833 40.667 97.5 53s73.5 18.5 113.5 18.5
c36.667 0 71.334 -5 104.001 -15s62.334 -24.333 89.001 -43s49.834 -41 69.501 -67s34.5 -55.333 44.5 -88l-144 -36c-16 35.333 -38.333 62.833 -67 82.5s-61.334 29.5 -98.001 29.5c-28 0 -54.167 -6 -78.5 -18s-45.333 -28.833 -63 -50.5s-31.5 -47.167 -41.5 -76.5
s-15 -61.333 -15 -96s4.83301 -66.334 14.5 -95.001s23.5 -53.5 41.5 -74.5s39.167 -37.167 63.5 -48.5s51.166 -17 80.499 -17c38 0 71.5 9.5 100.5 28.5s52.167 46.833 69.5 83.5l144 -36c-14 -43.333 -36.167 -81 -66.5 -113s-66.5 -56.667 -108.5 -74
s-88.333 -26 -139 -26z" />
    <glyph glyph-name="D" unicode="D" horiz-adv-x="759" 
d="M65 0l-0.00195312 710.001h276c56 0 107 -8.5 153 -25.5s85.667 -41.167 119 -72.5s59 -68.666 77 -111.999s27 -91.333 27 -144s-9.16699 -100.834 -27.5 -144.501s-44.166 -81.334 -77.499 -113.001s-73.166 -56 -119.499 -73s-97.5 -25.5 -153.5 -25.5h-274z
M213.998 132.001h118c47.333 0 88.333 9 123 27s61.334 43.667 80.001 77s28 73 28 119s-9.33301 85.667 -28 119s-45.334 59 -80.001 77s-75.667 27 -123 27h-118v-446z" />
    <glyph glyph-name="E" unicode="E" horiz-adv-x="574" 
d="M65 0v710h445v-127h-301v-155h269v-127h-269v-174h311v-127h-455z" />
    <glyph glyph-name="F" unicode="F" horiz-adv-x="543" 
d="M65 0v710h435v-130h-290v-175h258v-129h-258v-276h-145z" />
    <glyph glyph-name="G" unicode="G" horiz-adv-x="794" 
d="M408 -20c-42 0 -81.502 6 -118.502 18s-70.667 29.167 -101 51.5s-56.333 48.833 -78 79.5s-38.5 64.834 -50.5 102.501s-18 78.167 -18 121.5s6 84 18 122s29 72.667 51 104s48.333 58.166 79 80.499s64.5 39.666 101.5 51.999s76.5 18.5 118.5 18.5
c47.333 0 91.333 -7.66699 132 -23s76.5 -37.333 107.5 -66s55.167 -63.334 72.5 -104.001l-144 -44c-18 32 -41.167 56.667 -69.5 74s-61.166 26 -98.499 26c-30.667 0 -59 -5.83301 -85 -17.5s-48.667 -28.334 -68 -50.001s-34.333 -46.834 -45 -75.501s-16 -60 -16 -94
c0 -34.667 5.33301 -66.667 16 -96s25.834 -54.666 45.501 -75.999s42.834 -37.833 69.501 -49.5s56 -17.5 88 -17.5c34 0 64.333 6.33301 91 19s48.334 30.334 65.001 53.001s27 49.334 31 80.001h-177v123h330v-75c0 -49.333 -8.5 -94.666 -25.5 -135.999
s-40.833 -77 -71.5 -107s-67.334 -53.167 -110.001 -69.5s-89.334 -24.5 -140.001 -24.5z" />
    <glyph glyph-name="H" unicode="H" horiz-adv-x="742" 
d="M65 0v710h149v-277h314v277h149v-710h-149v301h-314v-301h-149z" />
    <glyph glyph-name="I" unicode="I" horiz-adv-x="279" 
d="M65 0v710h149v-710h-149z" />
    <glyph glyph-name="J" unicode="J" horiz-adv-x="554" 
d="M256 -15c-40.667 0 -77.334 7.66699 -110.001 23s-60.5 37.5 -83.5 66.5s-39.833 63.833 -50.5 104.5l148 26c9.33301 -27.333 21.833 -48.5 37.5 -63.5s34.834 -22.5 57.501 -22.5c28 0 50.333 10.167 67 30.5s25 47.833 25 82.5v478h149v-473
c0 -37.333 -5.83301 -71.5 -17.5 -102.5s-28 -57.667 -49 -80s-46.167 -39.5 -75.5 -51.5s-62 -18 -98 -18z" />
    <glyph glyph-name="K" unicode="K" horiz-adv-x="696" 
d="M65 0v710h149v-315l263 315h174l-284 -331l320 -379h-193l-280 344v-344h-149z" />
    <glyph glyph-name="L" unicode="L" horiz-adv-x="544" 
d="M65 0v710h149v-578h290v-132h-439z" />
    <glyph glyph-name="M" unicode="M" horiz-adv-x="854" 
d="M65 0v710h140l224 -410l225 410h135v-710h-144v449l-165 -301h-106l-165 301v-449h-144z" />
    <glyph glyph-name="N" unicode="N" horiz-adv-x="732" 
d="M65 0v710h129l329 -470v470h144v-710h-129l-329 470v-470h-144z" />
    <glyph glyph-name="O" unicode="O" horiz-adv-x="820" 
d="M409 -20c-42 0 -81.667 6 -119 18s-71.166 29.167 -101.499 51.5s-56.333 49 -78 80s-38.5 65.5 -50.5 103.5s-18 78.333 -18 121s6 83.167 18 121.5s29 73 51 104s48.167 57.667 78.5 80s64.166 39.666 101.499 51.999s77.333 18.5 120 18.5c42 0 81.667 -6 119 -18
s71.166 -29.167 101.499 -51.5s56.333 -49 78 -80s38.5 -65.5 50.5 -103.5s18 -78.333 18 -121s-6 -83.167 -18 -121.5s-29 -73 -51 -104s-48.167 -57.667 -78.5 -80s-64.166 -39.666 -101.499 -51.999s-77.333 -18.5 -120 -18.5zM410 117
c30.667 0 59.167 5.83301 85.5 17.5s49 28.167 68 49.5s33.833 46.5 44.5 75.5s16 60.833 16 95.5s-5.33301 66.5 -16 95.5s-25.5 54.167 -44.5 75.5s-41.667 37.833 -68 49.5s-54.833 17.5 -85.5 17.5s-59.167 -5.83301 -85.5 -17.5s-49 -28.167 -68 -49.5
s-33.833 -46.5 -44.5 -75.5s-16 -60.833 -16 -95.5s5.33301 -66.5 16 -95.5s25.5 -54.167 44.5 -75.5s41.667 -37.833 68 -49.5s54.833 -17.5 85.5 -17.5z" />
    <glyph glyph-name="P" unicode="P" horiz-adv-x="599" 
d="M65 0l0.000976562 710.001h228c58 0 107.833 -9.5 149.5 -28.5s73.667 -46.333 96 -82s33.5 -78.834 33.5 -129.501c0 -36 -6.66699 -68.5 -20 -97.5s-32.333 -54 -57 -75s-54.167 -37.167 -88.5 -48.5s-72.5 -17 -114.5 -17c-24.667 0 -51.334 2.33301 -80.001 7v-239
h-147zM212.001 584.001l-0.00195312 -220c26.667 -4 51.334 -6 74.001 -6c42.667 0 75.834 9.66699 99.501 29s35.5 47.333 35.5 84c0 36 -11.333 63.833 -34 83.5s-55 29.5 -97 29.5h-78z" />
    <glyph glyph-name="Q" unicode="Q" horiz-adv-x="820" 
d="M406 -20c-41.333 0 -80.3311 6.00098 -116.998 18.001s-70.167 29.167 -100.5 51.5s-56.333 49 -78 80s-38.5 65.5 -50.5 103.5s-18 78.333 -18 121s6 83.167 18 121.5s29 73 51 104s48.167 57.667 78.5 80s64.166 39.666 101.499 51.999s77.333 18.5 120 18.5
c42 0 81.667 -6 119 -18s71.166 -29.167 101.499 -51.5s56.333 -49 78 -80s38.5 -65.5 50.5 -103.5s18 -78.333 18 -121c0 -51.333 -8.83301 -99.5 -26.5 -144.5s-42.5 -84.167 -74.5 -117.5l81 -100l-100 -80l-84 104c-25.333 -12 -52 -21.333 -80 -28s-57.333 -10 -88 -10
zM413.002 117.001c25.333 0 49.333 4 72 12l-114 142l98 79l115 -142c12.667 19.333 22.5 41.5 29.5 66.5s10.5 51.833 10.5 80.5c0 34.667 -5.33301 66.5 -16 95.5s-25.5 54.167 -44.5 75.5s-41.667 37.833 -68 49.5s-54.833 17.5 -85.5 17.5s-59.167 -5.83301 -85.5 -17.5
s-49 -28.167 -68 -49.5s-33.833 -46.5 -44.5 -75.5s-16 -60.833 -16 -95.5s5.33301 -66.5 16 -95.5s25.5 -54.167 44.5 -75.5s41.833 -37.833 68.5 -49.5s56 -17.5 88 -17.5z" />
    <glyph glyph-name="R" unicode="R" horiz-adv-x="631" 
d="M65 0v709.998h228c58 0 108.167 -9.16699 150.5 -27.5s74.833 -44.666 97.5 -78.999s34 -74.833 34 -121.5c0 -27.333 -5 -53.5 -15 -78.5s-24 -47.667 -42 -68s-39.667 -37.166 -65 -50.499l161 -285h-164l-127 246c-12.667 -0.666992 -26.334 -1 -41.001 -1
c-21.333 0 -44.666 2 -69.999 6v-251h-147zM212 583.998l-0.000976562 -209c12.667 -2 25.334 -3.5 38.001 -4.5s26 -1.5 40 -1.5c42.667 0 75.667 9.5 99 28.5s35 45.5 35 79.5s-11.667 60.333 -35 79s-56.333 28 -99 28h-78z" />
    <glyph glyph-name="S" unicode="S" horiz-adv-x="573" 
d="M284 -15c-42.667 0 -81.8359 7.49414 -117.503 22.4941s-66 36.333 -91 64s-42.167 60.834 -51.5 99.501l139 30c8.66699 -27.333 23.834 -48.666 45.501 -63.999s47.5 -23 77.5 -23c21.333 0 40.166 3.83301 56.499 11.5s29 18.167 38 31.5s13.5 28.666 13.5 45.999
c0 22 -8.33301 39.833 -25 53.5s-43.667 24.834 -81 33.501l-32 7c-73.333 16 -127.333 41.833 -162 77.5s-52 79.167 -52 130.5c0 32 6.33301 61.333 19 88s30.167 49.834 52.5 69.501s48.5 35 78.5 46s62.333 16.5 97 16.5c39.333 0 76 -7.33301 110 -22
s62.667 -35.667 86 -63s39 -59.666 47 -96.999l-137 -30c-8 26.667 -21.833 47.167 -41.5 61.5s-42.5 21.5 -68.5 21.5c-18 0 -34.167 -3.5 -48.5 -10.5s-25.666 -16.667 -33.999 -29s-12.5 -26.166 -12.5 -41.499c0 -23.333 9 -41.166 27 -53.499s44.667 -22.5 80 -30.5
l32 -7c72.667 -16 126.5 -41.333 161.5 -76s52.5 -79 52.5 -133c0 -34 -6.5 -65 -19.5 -93s-31.167 -52.333 -54.5 -73s-50.666 -36.5 -81.999 -47.5s-65.666 -16.5 -102.999 -16.5z" />
    <glyph glyph-name="T" unicode="T" horiz-adv-x="631" 
d="M241 0v578h-200v132h549v-132h-200v-578h-149z" />
    <glyph glyph-name="U" unicode="U" horiz-adv-x="722" 
d="M360 -20c-46.667 0 -88.667 7.16699 -126 21.5s-69.333 35 -96 62s-47.167 59.333 -61.5 97s-21.5 79.834 -21.5 126.501v423h149v-416c0 -36 6.33301 -67.333 19 -94s30.834 -47.167 54.501 -61.5s51.5 -21.5 83.5 -21.5s59.667 7.16699 83 21.5s41.5 34.833 54.5 61.5
s19.5 58 19.5 94v416h149v-423c0 -46.667 -7.16699 -88.834 -21.5 -126.501s-35 -70 -62 -97s-59.333 -47.667 -97 -62s-79.834 -21.5 -126.501 -21.5z" />
    <glyph glyph-name="V" unicode="V" horiz-adv-x="733" 
d="M286 0l-270 710h163l191 -545l190 545h157l-270 -710h-161z" />
    <glyph glyph-name="W" unicode="W" horiz-adv-x="1044" 
d="M1015 710l-209 -710h-144l-139 509l-139 -509h-146l-209 710h156l130 -513l141 513h137l141 -513l129 513h152z" />
    <glyph glyph-name="X" unicode="X" horiz-adv-x="689" 
d="M9 0l252 374l-223 336h169l139 -230l139 230h165l-222 -336l252 -374h-176l-162 260l-162 -260h-171z" />
    <glyph glyph-name="Y" unicode="Y" horiz-adv-x="667" 
d="M259 0v276l-248 434h166l159 -299l158 299h162l-248 -434v-276h-149z" />
    <glyph glyph-name="Z" unicode="Z" horiz-adv-x="640" 
d="M37 0v106l361 478h-346v126h532v-106l-361 -478h383v-126h-569z" />
    <glyph glyph-name="bracketleft" unicode="[" horiz-adv-x="370" 
d="M75 -145v938h255v-108h-131v-722h131v-108h-255z" />
    <glyph glyph-name="backslash" unicode="\" horiz-adv-x="475" 
d="M339 -115l-331 878h128l331 -878h-128z" />
    <glyph glyph-name="bracketright" unicode="]" horiz-adv-x="370" 
d="M40 -145v108h131v722h-131v108h255v-938h-255z" />
    <glyph glyph-name="asciicircum" unicode="^" 
d="M66 340l171 350h121l171 -350h-132l-102 216l-103 -216h-126z" />
    <glyph glyph-name="underscore" unicode="_" horiz-adv-x="593" 
d="M30 -163v104h533v-104h-533z" />
    <glyph glyph-name="grave" unicode="`" 
d="M300 603l-138 143h156l114 -143h-132z" />
    <glyph glyph-name="a" unicode="a" horiz-adv-x="560" 
d="M219 -15c-27.333 0 -52.333 4.00195 -75 12.002s-42.5 19.5 -59.5 34.5s-30.167 32.5 -39.5 52.5s-14 42 -14 66c0 33.333 9 62.666 27 87.999s43.333 45.166 76 59.499s70.667 21.5 114 21.5c22 0 42.833 -2 62.5 -6s38.834 -9.66699 57.501 -17v31
c0 30 -8.5 54.333 -25.5 73s-40.167 28 -69.5 28c-22 0 -42 -5.5 -60 -16.5s-30.667 -26.5 -38 -46.5l-125 25c7.33301 30.667 21.833 57.5 43.5 80.5s48.167 40.833 79.5 53.5s65.333 19 102 19c34 0 65 -5.33301 93 -16s52.167 -26 72.5 -46s36 -43.5 47 -70.5
s16.5 -57.167 16.5 -90.5v-320h-125l-4 62c-14 -22.667 -34.333 -41.167 -61 -55.5s-58.334 -21.5 -95.001 -21.5zM169 157.002c0 -18.667 7.66895 -33.999 23.002 -45.999s35.666 -18 60.999 -18c22 0 41.667 4.66699 59 14s31 22.166 41 38.499s15 34.5 15 54.5v5
c-14.667 6 -30.334 10.833 -47.001 14.5s-33.334 5.5 -50.001 5.5c-31.333 0 -56.166 -6.16699 -74.499 -18.5s-27.5 -28.833 -27.5 -49.5z" />
    <glyph glyph-name="b" unicode="b" horiz-adv-x="639" 
d="M56 0l0.00195312 745.998h140v-285c18.667 25.333 42.167 45.333 70.5 60s59.5 22 93.5 22c34.667 0 66.667 -7 96 -21s55 -33.5 77 -58.5s39.167 -54.167 51.5 -87.5s18.5 -69.666 18.5 -108.999c0 -40 -6.33301 -77 -19 -111s-30.334 -63.833 -53.001 -89.5
s-49.334 -45.667 -80.001 -60s-63.667 -21.5 -99 -21.5c-34.667 0 -66 7.33301 -94 22s-51 35.334 -69 62.001l-4 -69h-129zM327.002 110.998c25.333 0 48 6.66699 68 20s35.833 31.5 47.5 54.5s17.5 49.167 17.5 78.5s-5.83301 55.5 -17.5 78.5s-27.5 41.167 -47.5 54.5
s-42.667 20 -68 20s-48 -6.66699 -68 -20s-35.833 -31.5 -47.5 -54.5s-17.5 -49.167 -17.5 -78.5s5.83301 -55.5 17.5 -78.5s27.5 -41.167 47.5 -54.5s42.667 -20 68 -20z" />
    <glyph glyph-name="c" unicode="c" horiz-adv-x="571" 
d="M301 -15c-38 0 -73.165 6.83105 -105.498 20.498s-60.333 32.834 -84 57.501s-42.167 53.834 -55.5 87.501s-20 70.167 -20 109.5c0 40 6.83301 77.167 20.5 111.5s32.667 64.333 57 90s52.833 45.667 85.5 60s68 21.5 106 21.5s73 -7.16699 105 -21.5
s59.167 -34.5 81.5 -60.5s37.833 -56.333 46.5 -91l-133 -26c-10 22.667 -24 40.5 -42 53.5s-38.333 19.5 -61 19.5c-24 0 -45.167 -6.66699 -63.5 -20s-32.833 -31.833 -43.5 -55.5s-16 -50.167 -16 -79.5s5.16699 -55.333 15.5 -78s24.833 -40.5 43.5 -53.5
s40 -19.5 64 -19.5s45.667 6.33301 65 19s33.666 30.667 42.999 54l133 -26c-8.66699 -35.333 -24.834 -66 -48.501 -92s-52.167 -46 -85.5 -60s-69.333 -21 -108 -21z" />
    <glyph glyph-name="d" unicode="d" horiz-adv-x="639" 
d="M278 -15c-34 0 -65.665 7.00098 -94.998 21.001s-55 33.5 -77 58.5s-39.167 54.167 -51.5 87.5s-18.5 69.666 -18.5 108.999c0 40 6.33301 77 19 111s30.334 63.833 53.001 89.5s49.167 45.667 79.5 60s63.166 21.5 98.499 21.5c32.667 0 62.5 -6.5 89.5 -19.5
s49.5 -31.167 67.5 -54.5v277h140v-746h-129l-4 77c-18.667 -28.667 -42.834 -51.167 -72.501 -67.5s-62.834 -24.5 -99.501 -24.5zM312.002 111.001c25.333 0 48 6.66699 68 20s35.833 31.5 47.5 54.5s17.5 49.167 17.5 78.5s-5.83301 55.5 -17.5 78.5
s-27.5 41.167 -47.5 54.5s-42.667 20 -68 20s-48 -6.66699 -68 -20s-35.833 -31.5 -47.5 -54.5s-17.5 -49.167 -17.5 -78.5s5.83301 -55.5 17.5 -78.5s27.5 -41.167 47.5 -54.5s42.667 -20 68 -20z" />
    <glyph glyph-name="e" unicode="e" horiz-adv-x="588" 
d="M306 -15c-39.333 0 -75.5039 6.83301 -108.504 20.5s-61.5 33 -85.5 58s-42.667 54.667 -56 89s-20 71.833 -20 112.5c0 39.333 6.66699 76 20 110s31.833 63.5 55.5 88.5s51.5 44.5 83.5 58.5s66.667 21 104 21c38.667 0 73.834 -6.66699 105.501 -20
s58.834 -32.333 81.501 -57s40.167 -54 52.5 -88s18.5 -72 18.5 -114v-35h-379c6 -39.333 20.333 -70.166 43 -92.499s51.334 -33.5 86.001 -33.5c24 0 45.833 5.66699 65.5 17s35.834 27.666 48.501 48.999l125 -40c-12 -30 -30 -55.667 -54 -77s-52 -37.833 -84 -49.5
s-66 -17.5 -102 -17.5zM298.996 435c-30.667 0 -56.501 -10 -77.501 -30s-34.833 -47.333 -41.5 -82h233c-5.33301 34.667 -18.166 62 -38.499 82s-45.5 30 -75.5 30z" />
    <glyph glyph-name="f" unicode="f" horiz-adv-x="410" 
d="M108 0l-0.00195312 414.999h-90v113h90v30c0 28.667 4.83301 55.167 14.5 79.5s23.334 45.333 41.001 63s38.667 31.334 63 41.001s50.833 14.5 79.5 14.5c22 0 41.833 -2.66699 59.5 -8s32.834 -11.333 45.501 -18l-28 -107c-8 4 -17.167 7.5 -27.5 10.5
s-20.166 4.5 -29.499 4.5c-26.667 0 -46.334 -7.83301 -59.001 -23.5s-19 -37.5 -19 -65.5v-21h140v-113h-140v-415h-140z" />
    <glyph glyph-name="g" unicode="g" horiz-adv-x="629" 
d="M273 15c-33.333 0 -64.5029 6.66504 -93.5029 19.998s-54.167 31.833 -75.5 55.5s-38 51.334 -50 83.001s-18 65.834 -18 102.501c0 38 6.16699 73.167 18.5 105.5s29.666 60.5 51.999 84.5s48.333 42.833 78 56.5s61.834 20.5 96.501 20.5
c34 0 64.667 -6.83301 92 -20.5s50 -33.5 68 -59.5l3 65h129v-465c0 -40.667 -6.5 -77.667 -19.5 -111s-31.5 -62 -55.5 -86s-52.5 -42.5 -85.5 -55.5s-69.5 -19.5 -109.5 -19.5c-39.333 0 -74.666 6.16699 -105.999 18.5s-58.666 29.5 -81.999 51.5
s-41.666 47.667 -54.999 77l134 33c12 -19.333 27.5 -34.5 46.5 -45.5s40.5 -16.5 64.5 -16.5c26 0 48.5 5.83301 67.5 17.5s33.833 28 44.5 49s16 45.5 16 73.5v43c-18 -24 -40.833 -42.833 -68.5 -56.5s-58.167 -20.5 -91.5 -20.5zM306.997 138.998
c24.667 0 46.5 6.16699 65.5 18.5s34.167 29 45.5 50s17 44.833 17 71.5s-5.66699 50.5 -17 71.5s-26.5 37.667 -45.5 50s-40.833 18.5 -65.5 18.5s-46.5 -6.16699 -65.5 -18.5s-34.167 -29 -45.5 -50s-17 -44.833 -17 -71.5s5.66699 -50.5 17 -71.5s26.5 -37.667 45.5 -50
s40.833 -18.5 65.5 -18.5z" />
    <glyph glyph-name="h" unicode="h" 
d="M56 0v746h140v-276c16 22.667 36.667 40.5 62 53.5s54.333 19.5 87 19.5c38.667 0 72.5 -9.16699 101.5 -27.5s51.5 -44.5 67.5 -78.5s24 -74 24 -120v-317h-140v299c0 36.667 -8.33301 65.5 -25 86.5s-39.667 31.5 -69 31.5c-21.333 0 -40 -4.83301 -56 -14.5
s-28.667 -23.167 -38 -40.5s-14 -37 -14 -59v-303h-140z" />
    <glyph glyph-name="i" unicode="i" horiz-adv-x="252" 
d="M206 671c0 -15.333 -3.5 -29 -10.5 -41s-16.667 -21.5 -29 -28.5s-25.833 -10.5 -40.5 -10.5s-28.167 3.5 -40.5 10.5s-22 16.5 -29 28.5s-10.5 25.667 -10.5 41s3.5 29 10.5 41s16.667 21.5 29 28.5s25.833 10.5 40.5 10.5s28.167 -3.5 40.5 -10.5s22 -16.5 29 -28.5
s10.5 -25.667 10.5 -41zM56 0v528h140v-528h-140z" />
    <glyph glyph-name="j" unicode="j" horiz-adv-x="257" 
d="M211 671c0 -15.333 -3.5 -29 -10.5 -41s-16.5 -21.5 -28.5 -28.5s-25.667 -10.5 -41 -10.5s-29 3.5 -41 10.5s-21.5 16.5 -28.5 28.5s-10.5 25.667 -10.5 41s3.5 29 10.5 41s16.5 21.5 28.5 28.5s25.667 10.5 41 10.5s29 -3.5 41 -10.5s21.5 -16.5 28.5 -28.5
s10.5 -25.667 10.5 -41zM25 -204c-18 0 -35.332 2.16602 -51.999 6.49902s-32 10.5 -46 18.5l28 108c6.66699 -3.33301 14.167 -6.16602 22.5 -8.49902s16.166 -3.5 23.499 -3.5c19.333 0 34.166 6.33301 44.499 19s15.5 30.667 15.5 54v538h140v-547
c0 -36.667 -7.33301 -69 -22 -97s-35.167 -49.667 -61.5 -65s-57.166 -23 -92.499 -23z" />
    <glyph glyph-name="k" unicode="k" horiz-adv-x="581" 
d="M56 0v746h137v-433l196 215h164l-220 -234l244 -294h-177l-207 263v-263h-137z" />
    <glyph glyph-name="l" unicode="l" horiz-adv-x="252" 
d="M56 0v746h140v-746h-140z" />
    <glyph glyph-name="m" unicode="m" horiz-adv-x="920" 
d="M56 0l0.00195312 528h129l4 -67c15.333 25.333 36 45.333 62 60s55.333 22 88 22c35.333 0 66.833 -8.66699 94.5 -26s49.167 -41.333 64.5 -72c16 29.333 39.167 53 69.5 71s65.166 27 104.499 27s73.333 -9.16699 102 -27.5s50.834 -44.5 66.501 -78.5
s23.5 -74 23.5 -120v-317h-140v299c0 36.667 -8 65.5 -24 86.5s-38.333 31.5 -67 31.5c-20 0 -37.833 -4.83301 -53.5 -14.5s-27.834 -23.167 -36.501 -40.5s-13 -37 -13 -59v-303h-140v299c0 36.667 -8 65.5 -24 86.5s-38.333 31.5 -67 31.5
c-20 0 -37.833 -4.83301 -53.5 -14.5s-27.834 -23.167 -36.501 -40.5s-13 -37 -13 -59v-303h-140z" />
    <glyph glyph-name="n" unicode="n" 
d="M56 0v528h129l4 -68c15.333 25.333 36.5 45.5 63.5 60.5s57.833 22.5 92.5 22.5c38.667 0 72.5 -9.16699 101.5 -27.5s51.5 -44.5 67.5 -78.5s24 -74 24 -120v-317h-140v299c0 36.667 -8.33301 65.5 -25 86.5s-39.667 31.5 -69 31.5c-21.333 0 -40 -4.83301 -56 -14.5
s-28.667 -23.167 -38 -40.5s-14 -37 -14 -59v-303h-140z" />
    <glyph glyph-name="o" unicode="o" horiz-adv-x="624" 
d="M310 -15c-39.333 0 -75.666 7 -108.999 21s-62.333 33.5 -87 58.5s-43.834 54.5 -57.501 88.5s-20.5 71 -20.5 111s7 76.833 21 110.5s33.5 63.167 58.5 88.5s54.333 45 88 59s70.5 21 110.5 21c39.333 0 75.666 -7 108.999 -21s62.333 -33.5 87 -58.5
s43.834 -54.333 57.501 -88s20.5 -70.5 20.5 -110.5s-7 -77 -21 -111s-33.5 -63.667 -58.5 -89s-54.333 -45 -88 -59s-70.5 -21 -110.5 -21zM312 111c25.333 0 48 6.66699 68 20s35.833 31.5 47.5 54.5s17.5 49.167 17.5 78.5s-5.83301 55.5 -17.5 78.5
s-27.5 41.167 -47.5 54.5s-42.667 20 -68 20s-48 -6.66699 -68 -20s-35.833 -31.5 -47.5 -54.5s-17.5 -49.167 -17.5 -78.5s5.83301 -55.5 17.5 -78.5s27.5 -41.167 47.5 -54.5s42.667 -20 68 -20z" />
    <glyph glyph-name="p" unicode="p" horiz-adv-x="639" 
d="M56 -194l0.00292969 721.999h129l4 -77c18 28.667 42 51.167 72 67.5s63 24.5 99 24.5c34.667 0 66.667 -7 96 -21s55 -33.5 77 -58.5s39.167 -54.167 51.5 -87.5s18.5 -69.666 18.5 -108.999c0 -40 -6.33301 -77 -19 -111s-30.334 -63.833 -53.001 -89.5
s-49.334 -45.667 -80.001 -60s-63.667 -21.5 -99 -21.5c-32.667 0 -62.334 6.5 -89.001 19.5s-49 31.167 -67 54.5v-253h-140zM327.003 110.999c25.333 0 48 6.66699 68 20s35.833 31.5 47.5 54.5s17.5 49.167 17.5 78.5s-5.83301 55.5 -17.5 78.5s-27.5 41.167 -47.5 54.5
s-42.667 20 -68 20s-48 -6.66699 -68 -20s-35.833 -31.5 -47.5 -54.5s-17.5 -49.167 -17.5 -78.5s5.83301 -55.5 17.5 -78.5s27.5 -41.167 47.5 -54.5s42.667 -20 68 -20z" />
    <glyph glyph-name="q" unicode="q" horiz-adv-x="639" 
d="M279 -15c-34.667 0 -66.6689 7.00195 -96.002 21.002s-55 33.5 -77 58.5s-39.167 54.167 -51.5 87.5s-18.5 69.666 -18.5 108.999c0 40 6.33301 77 19 111s30.334 63.833 53.001 89.5s49.334 45.667 80.001 60s63.667 21.5 99 21.5c34.667 0 66 -7.33301 94 -22
s51 -35.334 69 -62.001l4 69h129v-722h-140v261c-18.667 -25.333 -42.167 -45.333 -70.5 -60s-59.5 -22 -93.5 -22zM311.998 111.002c25.333 0 48 6.66699 68 20s35.833 31.5 47.5 54.5s17.5 49.167 17.5 78.5s-5.83301 55.5 -17.5 78.5s-27.5 41.167 -47.5 54.5
s-42.667 20 -68 20s-48 -6.66699 -68 -20s-35.833 -31.5 -47.5 -54.5s-17.5 -49.167 -17.5 -78.5s5.83301 -55.5 17.5 -78.5s27.5 -41.167 47.5 -54.5s42.667 -20 68 -20z" />
    <glyph glyph-name="r" unicode="r" horiz-adv-x="397" 
d="M56 0l0.00195312 528.001h129l5 -80c13.333 28 31.333 49.5 54 64.5s49.334 22.5 80.001 22.5c9.33301 0 18.666 -0.833008 27.999 -2.5s17.666 -3.83398 24.999 -6.50098l-15 -138c-7.33301 2.66699 -14.833 4.5 -22.5 5.5s-15.5 1.5 -23.5 1.5
c-38.667 0 -68.334 -11.833 -89.001 -35.5s-31 -57.167 -31 -100.5v-259h-140z" />
    <glyph glyph-name="s" unicode="s" horiz-adv-x="491" 
d="M246 -15c-37.333 0 -71.168 5.99902 -101.501 17.999s-56 29 -77 51s-35.5 48 -43.5 78l126 27c6.66699 -20.667 18.667 -37 36 -49s38 -18 62 -18c22.667 0 41.334 5 56.001 15s22 23.667 22 41c0 14.667 -6.5 26.834 -19.5 36.501s-34.5 17.167 -64.5 22.5l-28 5
c-57.333 10 -100.833 28.667 -130.5 56s-44.5 62 -44.5 104c0 33.333 8.66699 62.833 26 88.5s41.333 45.834 72 60.501s66 22 106 22c35.333 0 67.5 -5.83301 96.5 -17.5s53.167 -28.167 72.5 -49.5s32.666 -47 39.999 -77l-125 -26c-6.66699 20 -17.5 35.667 -32.5 47
s-32.5 17 -52.5 17c-20.667 0 -37.667 -5 -51 -15s-20 -22.667 -20 -38c0 -13.333 6.5 -24.5 19.5 -33.5s35.167 -16.167 66.5 -21.5l28 -5c56.667 -10 100 -28.833 130 -56.5s45 -62.834 45 -105.501c0 -26 -5.16699 -49.667 -15.5 -71s-25.166 -40 -44.499 -56
s-42 -28.333 -68 -37s-54.667 -13 -86 -13z" />
    <glyph glyph-name="t" unicode="t" horiz-adv-x="438" 
d="M285 -15c-36.667 0 -68.1689 7.16992 -94.502 21.5029s-46.666 35.166 -60.999 62.499s-21.5 60.666 -21.5 99.999v246h-90v113h90v180h140v-180h144v-113h-144v-229c0 -25.333 5.33301 -44.833 16 -58.5s27 -20.5 49 -20.5c11.333 0 23.5 1.66699 36.5 5
s25.5 7.66602 37.5 12.999l25 -105c-17.333 -10.667 -36.666 -19.167 -57.999 -25.5s-44.333 -9.5 -69 -9.5z" />
    <glyph glyph-name="u" unicode="u" horiz-adv-x="592" 
d="M294 -15c-48 0 -89.832 10.167 -125.499 30.5s-63.334 49.333 -83.001 87s-29.5 82.167 -29.5 133.5v292h140v-295c0 -38 9 -67.833 27 -89.5s42.333 -32.5 73 -32.5s55 10.833 73 32.5s27 51.5 27 89.5v295h140v-292c0 -38 -5.66699 -72.333 -17 -103
s-27.666 -57 -48.999 -79s-46.833 -39 -76.5 -51s-62.834 -18 -99.501 -18z" />
    <glyph glyph-name="v" unicode="v" horiz-adv-x="561" 
d="M209 0l-198 528h153l118 -380l120 380h148l-198 -528h-143z" />
    <glyph glyph-name="w" unicode="w" horiz-adv-x="840" 
d="M186 0l-175 528h144l99 -357l107 357h121l107 -358l101 358h139l-175 -528h-129l-106 357l-106 -357h-127z" />
    <glyph glyph-name="x" unicode="x" horiz-adv-x="575" 
d="M12 0l198 279l-176 249h158l97 -159l99 159h153l-175 -250l197 -278h-165l-111 182l-114 -182h-161z" />
    <glyph glyph-name="y" unicode="y" horiz-adv-x="561" 
d="M144 -204c-18 0 -34.998 1.83203 -50.998 5.49902s-31 9.5 -45 17.5l27 110c7.33301 -3.33301 16 -6.16602 26 -8.49902s19.333 -3.5 28 -3.5c19.333 0 36.166 5.16699 50.499 15.5s26.166 26.833 35.499 49.5l9 23l-213 523h153l125 -374l113 374h148l-217 -578
c-20 -53.333 -45.5 -92.333 -76.5 -117s-68.5 -37 -112.5 -37z" />
    <glyph glyph-name="z" unicode="z" horiz-adv-x="525" 
d="M39 0v93l256 322h-249v113h423v-93l-257 -322h274v-113h-447z" />
    <glyph glyph-name="braceleft" unicode="{" horiz-adv-x="383" 
d="M343 793v-107.992h-32c-28.667 0 -50.334 -7.5 -65.001 -22.5s-22 -37.833 -22 -68.5c0 -16 1.33301 -32.833 4 -50.5s5.16699 -35.167 7.5 -52.5s3.5 -33 3.5 -47c0 -18.667 -3.16699 -36.334 -9.5 -53.001s-14.666 -30.834 -24.999 -42.501
s-21.833 -19.834 -34.5 -24.501c12.667 -4.66699 24.167 -12.834 34.5 -24.501s18.666 -25.834 24.999 -42.501s9.5 -34.334 9.5 -53.001c0 -14 -1.16699 -29.667 -3.5 -47s-4.83301 -34.833 -7.5 -52.5s-4 -34.5 -4 -50.5c0 -30.667 7.33301 -53.5 22 -68.5
s36.334 -22.5 65.001 -22.5h32v-108h-42c-67.333 0 -118.166 16.167 -152.499 48.5s-51.5 76.833 -51.5 133.5c0 20.667 1.16699 41.667 3.5 63s4.83301 41.166 7.5 59.499s4 33.833 4 46.5c0 21.333 -5.66699 37.833 -17 49.5s-28 17.5 -50 17.5h-15v102h15
c22 0 38.667 5.83301 50 17.5s17 28.167 17 49.5c0 12.667 -1.33301 28.167 -4 46.5s-5.16699 38.166 -7.5 59.499s-3.5 42.333 -3.5 63c0 56.667 17.167 101.167 51.5 133.5s85.166 48.5 152.499 48.5h42z" />
    <glyph glyph-name="bar" unicode="|" horiz-adv-x="273" 
d="M75 -115v878h123v-878h-123z" />
    <glyph glyph-name="braceright" unicode="}" horiz-adv-x="383" 
d="M40 -145v107.994h32c29.333 0 51.166 7.5 65.499 22.5s21.5 37.833 21.5 68.5c0 16 -1.16699 32.833 -3.5 50.5s-4.83301 35.167 -7.5 52.5s-4 33 -4 47c0 18.667 3.16699 36.334 9.5 53.001s14.666 30.834 24.999 42.501s21.833 19.834 34.5 24.501
c-12.667 4.66699 -24.167 12.834 -34.5 24.501s-18.666 25.834 -24.999 42.501s-9.5 34.334 -9.5 53.001c0 14 1.33301 29.667 4 47s5.16699 34.833 7.5 52.5s3.5 34.5 3.5 50.5c0 30.667 -7.16699 53.5 -21.5 68.5s-36.166 22.5 -65.499 22.5h-32v108h42
c66.667 0 117.334 -16.167 152.001 -48.5s52 -76.833 52 -133.5c0 -20.667 -1.33301 -41.667 -4 -63l-7.5 -59.5c-2.33301 -18.333 -3.5 -33.833 -3.5 -46.5c0 -21.333 5.66699 -37.833 17 -49.5s28 -17.5 50 -17.5h15v-102h-15c-22 0 -38.667 -5.83301 -50 -17.5
s-17 -28.167 -17 -49.5c0 -12.667 1.16699 -28.167 3.5 -46.5l7.5 -59.5c2.66699 -21.333 4 -42.333 4 -63c0 -56.667 -17.333 -101.167 -52 -133.5s-85.334 -48.5 -152.001 -48.5h-42z" />
    <glyph glyph-name="asciitilde" unicode="~" 
d="M385 175c-16.667 0 -31.834 2.5 -45.501 7.5s-25.834 11 -36.501 18s-20.5 14 -29.5 21s-17.833 13 -26.5 18s-17.334 7.5 -26.001 7.5c-24 0 -39.333 -21.667 -46 -65h-116c5.33301 60 21.333 106.667 48 140s60.667 50 102 50c16.667 0 31.834 -2.5 45.501 -7.5
s25.834 -11 36.501 -18s20.5 -14 29.5 -21s17.833 -13 26.5 -18s17.334 -7.5 26.001 -7.5c24 0 39.333 21.667 46 65h116c-5.33301 -60 -21.333 -106.667 -48 -140s-60.667 -50 -102 -50z" />
    <glyph glyph-name="uni00A0" unicode="&#xa0;" horiz-adv-x="209" 
 />
    <glyph glyph-name="exclamdown" unicode="&#xa1;" horiz-adv-x="264" 
d="M132 362c-16 0 -30.333 3.66699 -43 11s-22.834 17.5 -30.501 30.5s-11.5 27.5 -11.5 43.5s3.83301 30.5 11.5 43.5s17.834 23.167 30.501 30.5s27 11 43 11s30.333 -3.66699 43 -11s22.834 -17.5 30.501 -30.5s11.5 -27.5 11.5 -43.5s-3.83301 -30.5 -11.5 -43.5
s-17.834 -23.167 -30.501 -30.5s-27 -11 -43 -11zM56 -182l9 489h134l9 -489h-152z" />
    <glyph glyph-name="cent" unicode="&#xa2;" 
d="M553 158c-7.33301 -30 -20.1641 -56.668 -38.4971 -80.001s-40.5 -42.5 -66.5 -57.5s-54.333 -25.167 -85 -30.5v-127h-101v126c-31.333 6 -60.333 16.667 -87 32s-49.5 35 -68.5 59s-33.833 51.167 -44.5 81.5s-16 63.166 -16 98.499s5.33301 68.5 16 99.5
s25.667 58.667 45 83s42.166 44.833 68.499 61.5s55.166 28 86.499 34v111h101v-110c30.667 -5.33301 58.5 -15.666 83.5 -30.999s46.333 -34.666 64 -57.999s30.167 -50 37.5 -80l-133 -26c-10 22.667 -24 40.5 -42 53.5s-38.333 19.5 -61 19.5
c-24 0 -45.167 -6.66699 -63.5 -20s-32.833 -31.833 -43.5 -55.5s-16 -50.167 -16 -79.5s5.16699 -55.333 15.5 -78s24.833 -40.5 43.5 -53.5s40 -19.5 64 -19.5s45.667 6.33301 65 19s33.666 30.667 42.999 54z" />
    <glyph glyph-name="sterling" unicode="&#xa3;" 
d="M27 0l-0.00195312 122h57l13 158h-71v106h80l8 96c4 45.333 15.667 84.833 35 118.5s45.333 59.5 78 77.5s70.334 27 113.001 27c39.333 0 74.5 -7.5 105.5 -22.5s56.833 -36.5 77.5 -64.5s34.667 -61.333 42 -100l-135 -23c-11.333 56.667 -40.666 85 -87.999 85
c-25.333 0 -45.5 -8.66699 -60.5 -26s-23.833 -42 -26.5 -74l-8 -94h168v-106h-176l-13 -158h337v-122h-536z" />
    <glyph glyph-name="currency" unicode="&#xa4;" 
d="M42 180l78 79c-9.33301 15.333 -16.5 31.833 -21.5 49.5s-7.5 35.834 -7.5 54.501s2.5 36.834 7.5 54.501s12.167 34.167 21.5 49.5l-78 79l73 73l77 -79c16 9.33301 32.833 16.5 50.5 21.5s35.834 7.5 54.501 7.5s36.834 -2.5 54.501 -7.5s34.5 -12.167 50.5 -21.5
l77 79l73 -73l-78 -79c9.33301 -15.333 16.5 -31.833 21.5 -49.5s7.5 -35.834 7.5 -54.501s-2.5 -36.834 -7.5 -54.501s-12.167 -34.167 -21.5 -49.5l78 -79l-73 -73l-77 79c-16 -9.33301 -32.833 -16.5 -50.5 -21.5s-35.834 -7.5 -54.501 -7.5s-36.834 2.5 -54.501 7.5
s-34.5 12.167 -50.5 21.5l-77 -79zM297 271c16.667 0 31.167 4 43.5 12s22.166 18.833 29.499 32.5s11 29.5 11 47.5s-3.66699 33.833 -11 47.5s-17.166 24.5 -29.499 32.5s-26.833 12 -43.5 12s-31.167 -4 -43.5 -12s-22.166 -18.833 -29.499 -32.5s-11 -29.5 -11 -47.5
s3.66699 -33.833 11 -47.5s17.166 -24.5 29.499 -32.5s26.833 -12 43.5 -12z" />
    <glyph glyph-name="yen" unicode="&#xa5;" 
d="M81 120v79h145v75h-145v79h110l-179 337h157l131 -287l129 287h152l-179 -337h110v-79h-145v-75h145v-79h-145v-120h-141v120h-145z" />
    <glyph glyph-name="section" unicode="&#xa7;" horiz-adv-x="514" 
d="M253 -95c-35.333 0 -68.1699 5.32715 -98.5029 15.9941s-56.5 26.5 -78.5 47.5s-38.333 47.167 -49 78.5l131 26c9.33301 -19.333 22.333 -33.5 39 -42.5s36.334 -13.5 59.001 -13.5c23.333 0 42.333 4.83301 57 14.5s22 22.167 22 37.5s-6.16699 27.5 -18.5 36.5
s-34.166 16.167 -65.499 21.5l-45 8c-54.667 9.33301 -96.834 27.833 -126.501 55.5s-44.5 62.834 -44.5 105.501c0 30 7.33301 56.667 22 80s35.334 42 62.001 56c-47.333 28.667 -71 69.334 -71 122.001c0 33.333 8.83301 62.833 26.5 88.5s42.334 45.834 74.001 60.501
s68.5 22 110.5 22c34 0 65.333 -5.16699 94 -15.5s53.167 -25.833 73.5 -46.5s35.166 -46.667 44.499 -78l-130 -26c-8 18.667 -19.5 32.167 -34.5 40.5s-32.167 12.5 -51.5 12.5c-20 0 -36.667 -4.66699 -50 -14s-20 -20.666 -20 -33.999
c0 -14.667 6.83301 -26.5 20.5 -35.5s34.834 -15.833 63.501 -20.5l51 -8c54.667 -8.66699 96.167 -26.334 124.5 -53.001s42.5 -61 42.5 -103c0 -33.333 -8 -61.666 -24 -84.999s-37 -41.666 -63 -54.999c49.333 -29.333 74 -71 74 -125
c0 -25.333 -5.33301 -48.666 -16 -69.999s-26 -39.833 -46 -55.5s-43.5 -27.667 -70.5 -36s-56.5 -12.5 -88.5 -12.5zM355.996 314.994c0 17.333 -6.33008 31.166 -18.9971 41.499s-30.667 18.166 -54 23.499l-18 4c-4.66699 1.33301 -9.33398 2.16602 -14.001 2.49902
s-8.33398 0.5 -11.001 0.5c-22.667 0 -40.834 -5.83301 -54.501 -17.5s-20.5 -27.834 -20.5 -48.501c0 -17.333 6.33301 -31.166 19 -41.499s30.667 -18.166 54 -23.499l18 -4c4.66699 -1.33301 9.16699 -2.16602 13.5 -2.49902s8.16602 -0.5 11.499 -0.5
c22.667 0 40.834 5.83301 54.501 17.5s20.5 27.834 20.5 48.501z" />
    <glyph glyph-name="dieresis" unicode="&#xa8;" 
d="M190 600c-14 0 -26.667 3.16699 -38 9.5s-20.333 15 -27 26s-10 23.167 -10 36.5s3.33301 25.5 10 36.5s15.667 19.667 27 26s24 9.5 38 9.5s26.667 -3.16699 38 -9.5s20.333 -15 27 -26s10 -23.167 10 -36.5s-3.33301 -25.5 -10 -36.5s-15.667 -19.667 -27 -26
s-24 -9.5 -38 -9.5zM404 600c-14 0 -26.667 3.16699 -38 9.5s-20.333 15 -27 26s-10 23.167 -10 36.5s3.33301 25.5 10 36.5s15.667 19.667 27 26s24 9.5 38 9.5s26.667 -3.16699 38 -9.5s20.333 -15 27 -26s10 -23.167 10 -36.5s-3.33301 -25.5 -10 -36.5
s-15.667 -19.667 -27 -26s-24 -9.5 -38 -9.5z" />
    <glyph glyph-name="copyright" unicode="&#xa9;" horiz-adv-x="846" 
d="M423 -21c-42.667 0 -83 6.16699 -121 18.5s-72.5 29.833 -103.5 52.5s-57.833 49.5 -80.5 80.5s-40.167 65.5 -52.5 103.5s-18.5 78.333 -18.5 121s6.16699 82.834 18.5 120.501s29.833 72.167 52.5 103.5s49.5 58.166 80.5 80.499s65.5 39.666 103.5 51.999
s78.333 18.5 121 18.5s83 -6.16699 121 -18.5s72.5 -29.666 103.5 -51.999s57.833 -49.166 80.5 -80.499s40.167 -65.833 52.5 -103.5s18.5 -77.834 18.5 -120.501s-6.16699 -83 -18.5 -121s-29.833 -72.5 -52.5 -103.5s-49.5 -57.833 -80.5 -80.5
s-65.5 -40.167 -103.5 -52.5s-78.333 -18.5 -121 -18.5zM423 64c31.333 0 61.333 4.83301 90 14.5s54.834 23.5 78.501 41.5s44.167 39 61.5 63s30.833 50.667 40.5 80s14.5 60 14.5 92s-4.83301 62.5 -14.5 91.5s-23.167 55.667 -40.5 80s-37.833 45.333 -61.5 63
s-49.834 31.334 -78.501 41.001s-58.667 14.5 -90 14.5s-61.333 -4.83301 -90 -14.5s-54.834 -23.334 -78.501 -41.001s-44.167 -38.667 -61.5 -63s-30.833 -51 -40.5 -80s-14.5 -59.5 -14.5 -91.5s4.83301 -62.667 14.5 -92s23.167 -56 40.5 -80s37.833 -45 61.5 -63
s49.834 -31.833 78.501 -41.5s58.667 -14.5 90 -14.5zM427 155c-28 0 -53.8301 5 -77.4971 15s-44.334 24.167 -62.001 42.5s-31.334 39.666 -41.001 63.999s-14.5 50.833 -14.5 79.5c0 29.333 5 56.5 15 81.5s24 47 42 66s39 33.667 63 44s50 15.5 78 15.5
s53.833 -5.5 77.5 -16.5s43.667 -26.833 60 -47.5s27.833 -44.667 34.5 -72l-106 -20c-6.66699 16 -15.667 28.667 -27 38s-24.333 14 -39 14c-16 0 -30 -4.33301 -42 -13s-21.5 -20.667 -28.5 -36s-10.5 -32.666 -10.5 -51.999s3.5 -36.5 10.5 -51.5s16.5 -26.667 28.5 -35
s26 -12.5 42 -12.5c14.667 0 28.5 4.5 41.5 13.5s22.5 21.833 28.5 38.5l106 -20c-6.66699 -26.667 -18.667 -50.167 -36 -70.5s-38.333 -36.333 -63 -48s-51.334 -17.5 -80.001 -17.5z" />
    <glyph glyph-name="ordfeminine" unicode="&#xaa;" horiz-adv-x="416" 
d="M162 308c-25.333 0 -47.833 5.00098 -67.5 15.001s-35.167 23.667 -46.5 41s-17 37.666 -17 60.999s6.33301 44 19 62s30.5 31.833 53.5 41.5s49.833 14.5 80.5 14.5c14.667 0 28 -1.16699 40 -3.5s24.333 -5.83301 37 -10.5v19c0 18.667 -5.33301 34 -16 46
s-24.667 18 -42 18c-12.667 0 -24.334 -3.33301 -35.001 -10s-18 -15.667 -22 -27l-102 18c5.33301 20.667 15.833 39.167 31.5 55.5s34.667 29 57 38s46.833 13.5 73.5 13.5c32.667 0 61.334 -6.66699 86.001 -20s44 -31.833 58 -55.5s21 -51.167 21 -82.5v-224h-101l-3 40
c-10 -15.333 -24 -27.5 -42 -36.5s-39 -13.5 -63 -13.5zM142 429.001c0 -12.667 4.5 -22.499 13.5 -29.499s20.833 -10.5 35.5 -10.5c20.667 0 37.5 6.66699 50.5 20s19.5 30 19.5 50v2c-8 3.33301 -17.167 6.16602 -27.5 8.49902s-20.5 3.5 -30.5 3.5
c-18 0 -32.667 -3.66699 -44 -11s-17 -18.333 -17 -33z" />
    <glyph glyph-name="guillemotleft" unicode="&#xab;" horiz-adv-x="534" 
d="M154 93l-134 192l134 192h122l-130 -192l130 -192h-122zM377 93l-134 192l134 192h122l-130 -192l130 -192h-122z" />
    <glyph glyph-name="logicalnot" unicode="&#xac;" 
d="M76 263v117h422v-283h-120v166h-302z" />
    <glyph glyph-name="registered" unicode="&#xae;" horiz-adv-x="536" 
d="M268 270c-32.667 0 -62.834 5.66699 -90.501 17s-51.834 27.166 -72.501 47.499s-36.667 44.166 -48 71.499s-17 57 -17 89s5.66699 61.667 17 89s27.333 51.166 48 71.499s44.834 36.166 72.501 47.499s57.834 17 90.501 17s62.834 -5.66699 90.501 -17
s51.834 -27.166 72.501 -47.499s36.667 -44.166 48 -71.499s17 -57 17 -89s-5.66699 -61.667 -17 -89s-27.333 -51.166 -48 -71.499s-44.834 -36.166 -72.501 -47.499s-57.834 -17 -90.501 -17zM268 326c24 0 46.167 4.33301 66.5 13s38.166 20.667 53.499 36
s27.333 33.166 36 53.499s13 42.5 13 66.5s-4.33301 46.167 -13 66.5s-20.667 38.166 -36 53.499s-33.166 27.333 -53.499 36s-42.5 13 -66.5 13s-46.167 -4.33301 -66.5 -13s-38.166 -20.667 -53.499 -36s-27.333 -33.166 -36 -53.499s-13 -42.5 -13 -66.5
s4.33301 -46.167 13 -66.5s20.667 -38.166 36 -53.499s33.166 -27.333 53.499 -36s42.5 -13 66.5 -13zM180 380v234h87c30 0 53.667 -7 71 -21s26 -33.333 26 -58c0 -13.333 -3.33301 -25.833 -10 -37.5s-15.667 -21.167 -27 -28.5l49 -89h-69l-34 72h-4h-5
c-6.66699 0 -13.667 0.333008 -21 1v-73h-63zM243 560l-0.000976562 -55.001c3.33301 0 6.83301 -0.166992 10.5 -0.5s7.83398 -0.5 12.501 -0.5c10.667 0 19 2.66699 25 8s9 12.333 9 21s-3 15.334 -9 20.001s-14.667 7 -26 7h-22z" />
    <glyph glyph-name="macron" unicode="&#xaf;" 
d="M138 609v94h318v-94h-318z" />
    <glyph glyph-name="degree" unicode="&#xb0;" horiz-adv-x="377" 
d="M356 589c0 -22.667 -4.33301 -43.834 -13 -63.501s-20.667 -37 -36 -52s-33.166 -26.833 -53.499 -35.5s-42.166 -13 -65.499 -13s-45 4.16699 -65 12.5s-37.667 20 -53 35s-27.333 32.333 -36 52s-13 40.834 -13 63.501s4.33301 43.834 13 63.501s20.667 37 36 52
s33.166 26.833 53.499 35.5s42.166 13 65.499 13s45 -4.16699 65 -12.5s37.667 -20 53 -35s27.333 -32.333 36 -52s13 -40.834 13 -63.501zM257 589c0 14 -3.16699 26.5 -9.5 37.5s-14.666 19.833 -24.999 26.5s-21.833 10 -34.5 10s-24.167 -3.33301 -34.5 -10
s-18.5 -15.5 -24.5 -26.5s-9 -23.5 -9 -37.5s3 -26.667 9 -38s14.167 -20.333 24.5 -27s21.833 -10 34.5 -10s24.167 3.33301 34.5 10s18.666 15.667 24.999 27s9.5 24 9.5 38z" />
    <glyph glyph-name="plusminus" unicode="&#xb1;" 
d="M240 167v157h-155v110h155v152h114v-152h155v-110h-155v-157h-114zM95 0v115h404v-115h-404z" />
    <glyph glyph-name="acute" unicode="&#xb4;" 
d="M162 603l114 143h156l-138 -143h-132z" />
    <glyph glyph-name="paragraph" unicode="&#xb6;" horiz-adv-x="590" 
d="M264 -92v327.001c-47.333 6 -87.833 19.5 -121.5 40.5s-59.667 48.167 -78 81.5s-27.5 71.666 -27.5 114.999c0 49.333 11.167 91.833 33.5 127.5s54.5 63 96.5 82s92 28.5 150 28.5h37v-802h-90zM429 -91.999v802h90v-802h-90z" />
    <glyph glyph-name="periodcentered" unicode="&#xb7;" horiz-adv-x="270" 
d="M135 187c-16.667 0 -31.5 4 -44.5 12s-23.5 18.667 -31.5 32s-12 28 -12 44s4 30.667 12 44s18.5 24 31.5 32s27.833 12 44.5 12s31.5 -4 44.5 -12s23.5 -18.667 31.5 -32s12 -28 12 -44s-4 -30.667 -12 -44s-18.5 -24 -31.5 -32s-27.833 -12 -44.5 -12z" />
    <glyph glyph-name="cedilla" unicode="&#xb8;" 
d="M268 11h87.002l-17 -52c21.333 -6.66699 38.166 -17.5 50.499 -32.5s18.5 -32.5 18.5 -52.5s-5.83301 -37.5 -17.5 -52.5s-28 -26.667 -49 -35s-44.833 -12.5 -71.5 -12.5c-28.667 0 -56 5 -82 15l14 74c10 -3.33301 19.5 -5.83301 28.5 -7.5s16.833 -2.5 23.5 -2.5
c13.333 0 24.166 2.83301 32.499 8.5s12.5 13.167 12.5 22.5c0 22 -21 33 -63 33z" />
    <glyph glyph-name="ordmasculine" unicode="&#xba;" horiz-adv-x="453" 
d="M226 308c-28 0 -54.167 4.83301 -78.5 14.5s-45.333 23.5 -63 41.5s-31.5 38.833 -41.5 62.5s-15 49.5 -15 77.5s5 53.833 15 77.5s23.833 44.334 41.5 62.001s38.667 31.5 63 41.5s50.5 15 78.5 15c28.667 0 55 -5 79 -15s45 -23.833 63 -41.5s32 -38.334 42 -62.001
s15 -49.5 15 -77.5s-5 -53.833 -15 -77.5s-24 -44.5 -42 -62.5s-39 -31.833 -63 -41.5s-50.333 -14.5 -79 -14.5zM226 411c16 0 30.333 4 43 12s22.667 18.833 30 32.5s11 29.834 11 48.501c0 18 -3.66699 34 -11 48s-17.333 25 -30 33s-27 12 -43 12s-30.333 -4 -43 -12
s-22.5 -19 -29.5 -33s-10.5 -30 -10.5 -48c0 -18.667 3.5 -34.834 10.5 -48.501s16.833 -24.5 29.5 -32.5s27 -12 43 -12z" />
    <glyph glyph-name="guillemotright" unicode="&#xbb;" horiz-adv-x="534" 
d="M35 93l130 192l-130 192h122l134 -192l-134 -192h-122zM258 93l130 192l-130 192h122l134 -192l-134 -192h-122z" />
    <glyph glyph-name="onequarter" unicode="&#xbc;" horiz-adv-x="810" 
d="M141 0l438 690h106l-438 -690h-106zM641 0v72h-171v76l155 232h112v-230h39v-78h-39v-72h-96zM560 150h81v121zM157 310v279l-77 -41l-29 79l118 63h86v-380h-98z" />
    <glyph glyph-name="onehalf" unicode="&#xbd;" horiz-adv-x="810" 
d="M124 0l438 690h106l-438 -690h-106zM493 0l0.000976562 69.002c10.667 8 22.667 17.5 36 28.5l39 32.5c12.667 10.667 22.667 19.667 30 27c23.333 22 40.666 41.167 51.999 57.5s17 31.833 17 46.5c0 12 -3.66699 22 -11 30s-17.333 12 -30 12
c-11.333 0 -21.333 -3.5 -30 -10.5s-14.667 -17.833 -18 -32.5l-90 14c4 22.667 12.833 42.667 26.5 60s30.5 30.833 50.5 40.5s42.333 14.5 67 14.5c26 0 49 -5.33301 69 -16s35.833 -25.334 47.5 -44.001s17.5 -39.667 17.5 -63c0 -22.667 -6.66699 -45.834 -20 -69.501
s-36.333 -49.167 -69 -76.5c-6.66699 -6 -14 -12 -22 -18l-23 -17h141v-85h-280zM157.001 310.002v279l-77 -41l-29 79l118 63h86v-380h-98z" />
    <glyph glyph-name="threequarters" unicode="&#xbe;" horiz-adv-x="810" 
d="M146 0l438 690h106l-438 -690h-106zM641 0v72h-171v76l155 232h112v-230h39v-78h-39v-72h-96zM560 150h81v121zM174 301c-39.333 0 -71.668 10 -97.001 30s-41.666 45.667 -48.999 77l88 14c3.33301 -10.667 9.83301 -19.5 19.5 -26.5s21.5 -10.5 35.5 -10.5
s25.833 3.66699 35.5 11s14.5 17.333 14.5 30c0 10.667 -4.5 19.667 -13.5 27s-20.5 11 -34.5 11h-39v80h32c14 0 25.5 3.33301 34.5 10s13.5 15.667 13.5 27c0 10 -4.16699 18.167 -12.5 24.5s-18.5 9.5 -30.5 9.5c-24 0 -39.667 -11.333 -47 -34l-89 15
c7.33301 31.333 23.666 56.333 48.999 75s56.333 28 93 28c26 0 49 -4.5 69 -13.5s35.667 -21.5 47 -37.5s17 -34.667 17 -56c0 -18.667 -4.66699 -35.167 -14 -49.5s-22.666 -25.833 -39.999 -34.5c20 -8 35.667 -19.667 47 -35s17 -33.666 17 -54.999
c0 -22.667 -6.33301 -42.834 -19 -60.501s-30 -31.5 -52 -41.5s-47 -15 -75 -15z" />
    <glyph glyph-name="questiondown" unicode="&#xbf;" horiz-adv-x="513" 
d="M275 362c-16 0 -30.333 3.66699 -43 11s-22.834 17.5 -30.501 30.5s-11.5 27.5 -11.5 43.5s3.83301 30.5 11.5 43.5s17.834 23.167 30.501 30.5s27 11 43 11c15.333 0 29.5 -3.66699 42.5 -11s23.333 -17.5 31 -30.5s11.5 -27.5 11.5 -43.5s-3.83301 -30.5 -11.5 -43.5
s-18 -23.167 -31 -30.5s-27.167 -11 -42.5 -11zM268 -197c-34.667 0 -66.667 5.16504 -96 15.498s-54.833 24.833 -76.5 43.5s-38.5 40.834 -50.5 66.501s-18 53.5 -18 83.5c0 33.333 7.33301 63.833 22 91.5s35.5 52 62.5 73s59.167 37.167 96.5 48.5v82h134v-155
c-112.667 -27.333 -169 -72.333 -169 -135c0 -16.667 4 -31.667 12 -45s19.167 -23.666 33.5 -30.999s31.166 -11 50.499 -11c26 0 49.167 7.16699 69.5 21.5s34.5 33.833 42.5 58.5l132 -29c-6 -26 -16.333 -49.833 -31 -71.5s-32.667 -40.5 -54 -56.5
s-45.666 -28.333 -72.999 -37s-56.333 -13 -87 -13z" />
    <glyph glyph-name="Agrave" unicode="&#xc0;" horiz-adv-x="755" 
d="M16 0l282 710h158l283 -710h-153l-58 156h-307l-58 -156h-147zM268 282h213l-107 283zM345 784l-169 133h176l138 -133h-145z" />
    <glyph glyph-name="Aacute" unicode="&#xc1;" horiz-adv-x="755" 
d="M16 0l282 710h158l283 -710h-153l-58 156h-307l-58 -156h-147zM268 282h213l-107 283zM264 784l138 133h176l-169 -133h-145z" />
    <glyph glyph-name="Acircumflex" unicode="&#xc2;" horiz-adv-x="755" 
d="M16 0l282 710h158l283 -710h-153l-58 156h-307l-58 -156h-147zM268 282h213l-107 283zM163 784l147 133h135l147 -133h-142l-74 59l-75 -59h-138z" />
    <glyph glyph-name="Atilde" unicode="&#xc3;" horiz-adv-x="755" 
d="M16 0l282 710h158l283 -710h-153l-58 156h-307l-58 -156h-147zM268 282h213l-107 283zM450 780c-16.667 0 -31.4971 2.50098 -44.4971 7.50098s-24.833 10.833 -35.5 17.5s-20.667 12.5 -30 17.5s-18.666 7.5 -27.999 7.5c-10.667 0 -19.334 -3.83301 -26.001 -11.5
s-11.334 -18.5 -14.001 -32.5h-92c3.33301 29.333 10.666 55 21.999 77s25.833 38.833 43.5 50.5s37.834 17.5 60.501 17.5c16 0 30.5 -2.5 43.5 -7.5s24.833 -10.833 35.5 -17.5s20.667 -12.5 30 -17.5s18.666 -7.5 27.999 -7.5c10 0 18.5 3.83301 25.5 11.5
s11.833 18.5 14.5 32.5h92c-2.66699 -30 -9.66699 -55.833 -21 -77.5s-25.833 -38.334 -43.5 -50.001s-37.834 -17.5 -60.501 -17.5z" />
    <glyph glyph-name="Adieresis" unicode="&#xc4;" horiz-adv-x="755" 
d="M16 0l282 710h158l283 -710h-153l-58 156h-307l-58 -156h-147zM268 282h213l-107 283zM256 773c-14.667 0 -27.834 3.5 -39.501 10.5s-21 16.167 -28 27.5s-10.5 24 -10.5 38s3.5 26.667 10.5 38s16.333 20.5 28 27.5s24.834 10.5 39.501 10.5s27.834 -3.5 39.501 -10.5
s21 -16.167 28 -27.5s10.5 -24 10.5 -38s-3.5 -26.667 -10.5 -38s-16.333 -20.5 -28 -27.5s-24.834 -10.5 -39.501 -10.5zM498 773c-14.667 0 -27.834 3.5 -39.501 10.5s-21 16.167 -28 27.5s-10.5 24 -10.5 38s3.5 26.667 10.5 38s16.333 20.5 28 27.5
s24.834 10.5 39.501 10.5s27.834 -3.5 39.501 -10.5s21 -16.167 28 -27.5s10.5 -24 10.5 -38s-3.5 -26.667 -10.5 -38s-16.333 -20.5 -28 -27.5s-24.834 -10.5 -39.501 -10.5z" />
    <glyph glyph-name="Aring" unicode="&#xc5;" horiz-adv-x="755" 
d="M16 0l282 710h158l283 -710h-153l-58 156h-307l-58 -156h-147zM268 282h213l-107 283zM377 751c-22 0 -41.833 5 -59.5 15s-31.667 23.5 -42 40.5s-15.5 35.833 -15.5 56.5s5.16699 39.5 15.5 56.5s24.333 30.5 42 40.5s37.5 15 59.5 15s41.833 -5 59.5 -15
s31.667 -23.5 42 -40.5s15.5 -35.833 15.5 -56.5s-5.16699 -39.5 -15.5 -56.5s-24.333 -30.5 -42 -40.5s-37.5 -15 -59.5 -15zM377 819c11.333 0 21.333 4.16699 30 12.5s13 18.833 13 31.5s-4.33301 23.167 -13 31.5s-18.667 12.5 -30 12.5s-21.333 -4.16699 -30 -12.5
s-13 -18.833 -13 -31.5s4.33301 -23.167 13 -31.5s18.667 -12.5 30 -12.5z" />
    <glyph glyph-name="AE" unicode="&#xc6;" horiz-adv-x="1026" 
d="M16 0l446 710h500v-127h-291v-155h259v-127h-259v-174h301v-127h-445v156h-252l-93 -156h-166zM350 282h177v297z" />
    <glyph glyph-name="Ccedilla" unicode="&#xc7;" horiz-adv-x="741" 
d="M396 -20c-40.667 0 -79 6 -115 18s-68.667 29 -98 51s-54.5 48.167 -75.5 78.5s-37.167 64.333 -48.5 102s-17 77.834 -17 120.501s5.83301 83.167 17.5 121.5s28.167 73.333 49.5 105s46.666 59 75.999 82s61.833 40.667 97.5 53s73.5 18.5 113.5 18.5
c36.667 0 71.334 -5 104.001 -15s62.334 -24.333 89.001 -43s49.834 -41 69.501 -67s34.5 -55.333 44.5 -88l-144 -36c-16 35.333 -38.333 62.833 -67 82.5s-61.334 29.5 -98.001 29.5c-28 0 -54.167 -6 -78.5 -18s-45.333 -28.833 -63 -50.5s-31.5 -47.167 -41.5 -76.5
s-15 -61.333 -15 -96s4.83301 -66.334 14.5 -95.001s23.5 -53.5 41.5 -74.5s39.167 -37.167 63.5 -48.5s51.166 -17 80.499 -17c38 0 71.5 9.5 100.5 28.5s52.167 46.833 69.5 83.5l144 -36c-14 -43.333 -36.167 -81 -66.5 -113s-66.5 -56.667 -108.5 -74
s-88.333 -26 -139 -26zM359 9h91l-18 -56c20.667 -6.66699 37.334 -18 50.001 -34s19 -34 19 -54s-5.83301 -37.833 -17.5 -53.5s-28.167 -27.834 -49.5 -36.501s-45.666 -13 -72.999 -13c-15.333 0 -30.166 1.33301 -44.499 4s-28.5 6.66699 -42.5 12l15 77
c9.33301 -3.33301 18.666 -5.83301 27.999 -7.5s17.666 -2.5 24.999 -2.5c14 0 25 2.83301 33 8.5s12 13.167 12 22.5c0 10.667 -5.33301 18.834 -16 24.501s-26.334 8.5 -47.001 8.5z" />
    <glyph glyph-name="Egrave" unicode="&#xc8;" horiz-adv-x="574" 
d="M65 0v710h445v-127h-301v-155h269v-127h-269v-174h311v-127h-455zM255 784l-169 133h176l138 -133h-145z" />
    <glyph glyph-name="Eacute" unicode="&#xc9;" horiz-adv-x="574" 
d="M65 0v710h445v-127h-301v-155h269v-127h-269v-174h311v-127h-455zM174 784l138 133h176l-169 -133h-145z" />
    <glyph glyph-name="Ecircumflex" unicode="&#xca;" horiz-adv-x="574" 
d="M65 0v710h445v-127h-301v-155h269v-127h-269v-174h311v-127h-455zM73 784l147 133h135l147 -133h-142l-74 59l-75 -59h-138z" />
    <glyph glyph-name="Edieresis" unicode="&#xcb;" horiz-adv-x="574" 
d="M65 0v710h445v-127h-301v-155h269v-127h-269v-174h311v-127h-455zM166 773c-14.667 0 -27.834 3.5 -39.501 10.5s-21 16.167 -28 27.5s-10.5 24 -10.5 38s3.5 26.667 10.5 38s16.333 20.5 28 27.5s24.834 10.5 39.501 10.5s27.834 -3.5 39.501 -10.5s21 -16.167 28 -27.5
s10.5 -24 10.5 -38s-3.5 -26.667 -10.5 -38s-16.333 -20.5 -28 -27.5s-24.834 -10.5 -39.501 -10.5zM408 773c-14.667 0 -27.834 3.5 -39.501 10.5s-21 16.167 -28 27.5s-10.5 24 -10.5 38s3.5 26.667 10.5 38s16.333 20.5 28 27.5s24.834 10.5 39.501 10.5
s27.834 -3.5 39.501 -10.5s21 -16.167 28 -27.5s10.5 -24 10.5 -38s-3.5 -26.667 -10.5 -38s-16.333 -20.5 -28 -27.5s-24.834 -10.5 -39.501 -10.5z" />
    <glyph glyph-name="Igrave" unicode="&#xcc;" horiz-adv-x="279" 
d="M65 0v710h149v-710h-149zM107 784l-169 133h176l138 -133h-145z" />
    <glyph glyph-name="Iacute" unicode="&#xcd;" horiz-adv-x="279" 
d="M65 0v710h149v-710h-149zM26 784l138 133h176l-169 -133h-145z" />
    <glyph glyph-name="Icircumflex" unicode="&#xce;" horiz-adv-x="279" 
d="M65 0v710h149v-710h-149zM-75 784l147 133h135l147 -133h-142l-74 59l-75 -59h-138z" />
    <glyph glyph-name="Idieresis" unicode="&#xcf;" horiz-adv-x="279" 
d="M65 0v710h149v-710h-149zM18 773c-14.667 0 -27.834 3.5 -39.501 10.5s-21 16.167 -28 27.5s-10.5 24 -10.5 38s3.5 26.667 10.5 38s16.333 20.5 28 27.5s24.834 10.5 39.501 10.5s27.834 -3.5 39.501 -10.5s21 -16.167 28 -27.5s10.5 -24 10.5 -38
s-3.5 -26.667 -10.5 -38s-16.333 -20.5 -28 -27.5s-24.834 -10.5 -39.501 -10.5zM260 773c-14.667 0 -27.834 3.5 -39.501 10.5s-21 16.167 -28 27.5s-10.5 24 -10.5 38s3.5 26.667 10.5 38s16.333 20.5 28 27.5s24.834 10.5 39.501 10.5s27.834 -3.5 39.501 -10.5
s21 -16.167 28 -27.5s10.5 -24 10.5 -38s-3.5 -26.667 -10.5 -38s-16.333 -20.5 -28 -27.5s-24.834 -10.5 -39.501 -10.5z" />
    <glyph glyph-name="Eth" unicode="&#xd0;" horiz-adv-x="769" 
d="M75 0l-0.00195312 308.001h-78v114h78v288h276c56 0 107 -8.5 153 -25.5s85.667 -41.167 119 -72.5s59 -68.666 77 -111.999s27 -91.333 27 -144s-9.16699 -100.834 -27.5 -144.501s-44.166 -81.334 -77.499 -113.001s-73.166 -56 -119.499 -73s-97.5 -25.5 -153.5 -25.5
h-274zM223.998 132.001h118c47.333 0 88.333 9 123 27s61.334 43.667 80.001 77s28 73 28 119s-9.33301 85.667 -28 119s-45.334 59 -80.001 77s-75.667 27 -123 27h-118v-156h142v-114h-142v-176z" />
    <glyph glyph-name="Ntilde" unicode="&#xd1;" horiz-adv-x="732" 
d="M65 0v710h129l329 -470v470h144v-710h-129l-329 470v-470h-144zM439 780c-16.667 0 -31.4971 2.50098 -44.4971 7.50098s-24.833 10.833 -35.5 17.5s-20.667 12.5 -30 17.5s-18.666 7.5 -27.999 7.5c-10.667 0 -19.334 -3.83301 -26.001 -11.5
s-11.334 -18.5 -14.001 -32.5h-92c3.33301 29.333 10.666 55 21.999 77s25.833 38.833 43.5 50.5s37.834 17.5 60.501 17.5c16 0 30.5 -2.5 43.5 -7.5s24.833 -10.833 35.5 -17.5s20.667 -12.5 30 -17.5s18.666 -7.5 27.999 -7.5c10 0 18.5 3.83301 25.5 11.5
s11.833 18.5 14.5 32.5h92c-2.66699 -30 -9.66699 -55.833 -21 -77.5s-25.833 -38.334 -43.5 -50.001s-37.834 -17.5 -60.501 -17.5z" />
    <glyph glyph-name="Ograve" unicode="&#xd2;" horiz-adv-x="820" 
d="M409 -20c-42 0 -81.667 6 -119 18s-71.166 29.167 -101.499 51.5s-56.333 49 -78 80s-38.5 65.5 -50.5 103.5s-18 78.333 -18 121s6 83.167 18 121.5s29 73 51 104s48.167 57.667 78.5 80s64.166 39.666 101.499 51.999s77.333 18.5 120 18.5c42 0 81.667 -6 119 -18
s71.166 -29.167 101.499 -51.5s56.333 -49 78 -80s38.5 -65.5 50.5 -103.5s18 -78.333 18 -121s-6 -83.167 -18 -121.5s-29 -73 -51 -104s-48.167 -57.667 -78.5 -80s-64.166 -39.666 -101.499 -51.999s-77.333 -18.5 -120 -18.5zM410 117
c30.667 0 59.167 5.83301 85.5 17.5s49 28.167 68 49.5s33.833 46.5 44.5 75.5s16 60.833 16 95.5s-5.33301 66.5 -16 95.5s-25.5 54.167 -44.5 75.5s-41.667 37.833 -68 49.5s-54.833 17.5 -85.5 17.5s-59.167 -5.83301 -85.5 -17.5s-49 -28.167 -68 -49.5
s-33.833 -46.5 -44.5 -75.5s-16 -60.833 -16 -95.5s5.33301 -66.5 16 -95.5s25.5 -54.167 44.5 -75.5s41.667 -37.833 68 -49.5s54.833 -17.5 85.5 -17.5zM378 784l-169 133h176l138 -133h-145z" />
    <glyph glyph-name="Oacute" unicode="&#xd3;" horiz-adv-x="820" 
d="M409 -20c-42 0 -81.667 6 -119 18s-71.166 29.167 -101.499 51.5s-56.333 49 -78 80s-38.5 65.5 -50.5 103.5s-18 78.333 -18 121s6 83.167 18 121.5s29 73 51 104s48.167 57.667 78.5 80s64.166 39.666 101.499 51.999s77.333 18.5 120 18.5c42 0 81.667 -6 119 -18
s71.166 -29.167 101.499 -51.5s56.333 -49 78 -80s38.5 -65.5 50.5 -103.5s18 -78.333 18 -121s-6 -83.167 -18 -121.5s-29 -73 -51 -104s-48.167 -57.667 -78.5 -80s-64.166 -39.666 -101.499 -51.999s-77.333 -18.5 -120 -18.5zM410 117
c30.667 0 59.167 5.83301 85.5 17.5s49 28.167 68 49.5s33.833 46.5 44.5 75.5s16 60.833 16 95.5s-5.33301 66.5 -16 95.5s-25.5 54.167 -44.5 75.5s-41.667 37.833 -68 49.5s-54.833 17.5 -85.5 17.5s-59.167 -5.83301 -85.5 -17.5s-49 -28.167 -68 -49.5
s-33.833 -46.5 -44.5 -75.5s-16 -60.833 -16 -95.5s5.33301 -66.5 16 -95.5s25.5 -54.167 44.5 -75.5s41.667 -37.833 68 -49.5s54.833 -17.5 85.5 -17.5zM297 784l138 133h176l-169 -133h-145z" />
    <glyph glyph-name="Ocircumflex" unicode="&#xd4;" horiz-adv-x="820" 
d="M409 -20c-42 0 -81.667 6 -119 18s-71.166 29.167 -101.499 51.5s-56.333 49 -78 80s-38.5 65.5 -50.5 103.5s-18 78.333 -18 121s6 83.167 18 121.5s29 73 51 104s48.167 57.667 78.5 80s64.166 39.666 101.499 51.999s77.333 18.5 120 18.5c42 0 81.667 -6 119 -18
s71.166 -29.167 101.499 -51.5s56.333 -49 78 -80s38.5 -65.5 50.5 -103.5s18 -78.333 18 -121s-6 -83.167 -18 -121.5s-29 -73 -51 -104s-48.167 -57.667 -78.5 -80s-64.166 -39.666 -101.499 -51.999s-77.333 -18.5 -120 -18.5zM410 117
c30.667 0 59.167 5.83301 85.5 17.5s49 28.167 68 49.5s33.833 46.5 44.5 75.5s16 60.833 16 95.5s-5.33301 66.5 -16 95.5s-25.5 54.167 -44.5 75.5s-41.667 37.833 -68 49.5s-54.833 17.5 -85.5 17.5s-59.167 -5.83301 -85.5 -17.5s-49 -28.167 -68 -49.5
s-33.833 -46.5 -44.5 -75.5s-16 -60.833 -16 -95.5s5.33301 -66.5 16 -95.5s25.5 -54.167 44.5 -75.5s41.667 -37.833 68 -49.5s54.833 -17.5 85.5 -17.5zM196 784l147 133h135l147 -133h-142l-74 59l-75 -59h-138z" />
    <glyph glyph-name="Otilde" unicode="&#xd5;" horiz-adv-x="820" 
d="M409 -20c-42 0 -81.667 6 -119 18s-71.166 29.167 -101.499 51.5s-56.333 49 -78 80s-38.5 65.5 -50.5 103.5s-18 78.333 -18 121s6 83.167 18 121.5s29 73 51 104s48.167 57.667 78.5 80s64.166 39.666 101.499 51.999s77.333 18.5 120 18.5c42 0 81.667 -6 119 -18
s71.166 -29.167 101.499 -51.5s56.333 -49 78 -80s38.5 -65.5 50.5 -103.5s18 -78.333 18 -121s-6 -83.167 -18 -121.5s-29 -73 -51 -104s-48.167 -57.667 -78.5 -80s-64.166 -39.666 -101.499 -51.999s-77.333 -18.5 -120 -18.5zM410 117
c30.667 0 59.167 5.83301 85.5 17.5s49 28.167 68 49.5s33.833 46.5 44.5 75.5s16 60.833 16 95.5s-5.33301 66.5 -16 95.5s-25.5 54.167 -44.5 75.5s-41.667 37.833 -68 49.5s-54.833 17.5 -85.5 17.5s-59.167 -5.83301 -85.5 -17.5s-49 -28.167 -68 -49.5
s-33.833 -46.5 -44.5 -75.5s-16 -60.833 -16 -95.5s5.33301 -66.5 16 -95.5s25.5 -54.167 44.5 -75.5s41.667 -37.833 68 -49.5s54.833 -17.5 85.5 -17.5zM483 780c-16.667 0 -31.4971 2.50098 -44.4971 7.50098s-24.833 10.833 -35.5 17.5s-20.667 12.5 -30 17.5
s-18.666 7.5 -27.999 7.5c-10.667 0 -19.334 -3.83301 -26.001 -11.5s-11.334 -18.5 -14.001 -32.5h-92c3.33301 29.333 10.666 55 21.999 77s25.833 38.833 43.5 50.5s37.834 17.5 60.501 17.5c16 0 30.5 -2.5 43.5 -7.5s24.833 -10.833 35.5 -17.5s20.667 -12.5 30 -17.5
s18.666 -7.5 27.999 -7.5c10 0 18.5 3.83301 25.5 11.5s11.833 18.5 14.5 32.5h92c-2.66699 -30 -9.66699 -55.833 -21 -77.5s-25.833 -38.334 -43.5 -50.001s-37.834 -17.5 -60.501 -17.5z" />
    <glyph glyph-name="Odieresis" unicode="&#xd6;" horiz-adv-x="820" 
d="M409 -20c-42 0 -81.667 6 -119 18s-71.166 29.167 -101.499 51.5s-56.333 49 -78 80s-38.5 65.5 -50.5 103.5s-18 78.333 -18 121s6 83.167 18 121.5s29 73 51 104s48.167 57.667 78.5 80s64.166 39.666 101.499 51.999s77.333 18.5 120 18.5c42 0 81.667 -6 119 -18
s71.166 -29.167 101.499 -51.5s56.333 -49 78 -80s38.5 -65.5 50.5 -103.5s18 -78.333 18 -121s-6 -83.167 -18 -121.5s-29 -73 -51 -104s-48.167 -57.667 -78.5 -80s-64.166 -39.666 -101.499 -51.999s-77.333 -18.5 -120 -18.5zM410 117
c30.667 0 59.167 5.83301 85.5 17.5s49 28.167 68 49.5s33.833 46.5 44.5 75.5s16 60.833 16 95.5s-5.33301 66.5 -16 95.5s-25.5 54.167 -44.5 75.5s-41.667 37.833 -68 49.5s-54.833 17.5 -85.5 17.5s-59.167 -5.83301 -85.5 -17.5s-49 -28.167 -68 -49.5
s-33.833 -46.5 -44.5 -75.5s-16 -60.833 -16 -95.5s5.33301 -66.5 16 -95.5s25.5 -54.167 44.5 -75.5s41.667 -37.833 68 -49.5s54.833 -17.5 85.5 -17.5zM289 773c-14.667 0 -27.834 3.5 -39.501 10.5s-21 16.167 -28 27.5s-10.5 24 -10.5 38s3.5 26.667 10.5 38
s16.333 20.5 28 27.5s24.834 10.5 39.501 10.5s27.834 -3.5 39.501 -10.5s21 -16.167 28 -27.5s10.5 -24 10.5 -38s-3.5 -26.667 -10.5 -38s-16.333 -20.5 -28 -27.5s-24.834 -10.5 -39.501 -10.5zM531 773c-14.667 0 -27.834 3.5 -39.501 10.5s-21 16.167 -28 27.5
s-10.5 24 -10.5 38s3.5 26.667 10.5 38s16.333 20.5 28 27.5s24.834 10.5 39.501 10.5s27.834 -3.5 39.501 -10.5s21 -16.167 28 -27.5s10.5 -24 10.5 -38s-3.5 -26.667 -10.5 -38s-16.333 -20.5 -28 -27.5s-24.834 -10.5 -39.501 -10.5z" />
    <glyph glyph-name="multiply" unicode="&#xd7;" 
d="M163 66l-77 77l134 135l-127 127l77 77l127 -127l127 127l77 -77l-127 -127l134 -135l-77 -77l-134 134z" />
    <glyph glyph-name="Oslash" unicode="&#xd8;" horiz-adv-x="820" 
d="M190 -35h-138l93 125c-32 33.333 -57.167 72.666 -75.5 117.999s-27.5 94 -27.5 146c0 42.667 6 83.167 18 121.5s29 73 51 104s48.167 57.667 78.5 80s64.166 39.666 101.499 51.999s77.333 18.5 120 18.5c32 0 62.833 -3.66699 92.5 -11s57.5 -18 83.5 -32l43 58h138
l-93 -125c32 -33.333 57.167 -72.666 75.5 -117.999s27.5 -94 27.5 -146c0 -42.667 -6 -83.167 -18 -121.5s-29 -73 -51 -104s-48.167 -57.667 -78.5 -80s-64.166 -39.666 -101.499 -51.999s-77.333 -18.5 -120 -18.5c-32 0 -62.833 3.66699 -92.5 11s-57.5 18 -83.5 32z
M191 355c0 -28.667 3.50293 -55.499 10.5029 -80.499s17.167 -47.5 30.5 -67.5l273 370c-28.667 14 -60.334 21 -95.001 21c-32 0 -61.333 -6 -88 -18s-49.834 -28.833 -69.501 -50.5s-34.834 -47.334 -45.501 -77.001s-16 -62.167 -16 -97.5zM410.003 112.001
c32 0 61.3301 5.99902 87.9971 17.999s49.834 28.833 69.501 50.5s34.834 47.334 45.501 77.001s16 62.167 16 97.5c0 28.667 -3.5 55.5 -10.5 80.5s-16.833 47.5 -29.5 67.5l-274 -370c28.667 -14 60.334 -21 95.001 -21z" />
    <glyph glyph-name="Ugrave" unicode="&#xd9;" horiz-adv-x="722" 
d="M360 -20c-46.667 0 -88.667 7.16699 -126 21.5s-69.333 35 -96 62s-47.167 59.333 -61.5 97s-21.5 79.834 -21.5 126.501v423h149v-416c0 -36 6.33301 -67.333 19 -94s30.834 -47.167 54.501 -61.5s51.5 -21.5 83.5 -21.5s59.667 7.16699 83 21.5s41.5 34.833 54.5 61.5
s19.5 58 19.5 94v416h149v-423c0 -46.667 -7.16699 -88.834 -21.5 -126.501s-35 -70 -62 -97s-59.333 -47.667 -97 -62s-79.834 -21.5 -126.501 -21.5zM329 784l-169 133h176l138 -133h-145z" />
    <glyph glyph-name="Uacute" unicode="&#xda;" horiz-adv-x="722" 
d="M360 -20c-46.667 0 -88.667 7.16699 -126 21.5s-69.333 35 -96 62s-47.167 59.333 -61.5 97s-21.5 79.834 -21.5 126.501v423h149v-416c0 -36 6.33301 -67.333 19 -94s30.834 -47.167 54.501 -61.5s51.5 -21.5 83.5 -21.5s59.667 7.16699 83 21.5s41.5 34.833 54.5 61.5
s19.5 58 19.5 94v416h149v-423c0 -46.667 -7.16699 -88.834 -21.5 -126.501s-35 -70 -62 -97s-59.333 -47.667 -97 -62s-79.834 -21.5 -126.501 -21.5zM248 784l138 133h176l-169 -133h-145z" />
    <glyph glyph-name="Ucircumflex" unicode="&#xdb;" horiz-adv-x="722" 
d="M360 -20c-46.667 0 -88.667 7.16699 -126 21.5s-69.333 35 -96 62s-47.167 59.333 -61.5 97s-21.5 79.834 -21.5 126.501v423h149v-416c0 -36 6.33301 -67.333 19 -94s30.834 -47.167 54.501 -61.5s51.5 -21.5 83.5 -21.5s59.667 7.16699 83 21.5s41.5 34.833 54.5 61.5
s19.5 58 19.5 94v416h149v-423c0 -46.667 -7.16699 -88.834 -21.5 -126.501s-35 -70 -62 -97s-59.333 -47.667 -97 -62s-79.834 -21.5 -126.501 -21.5zM147 784l147 133h135l147 -133h-142l-74 59l-75 -59h-138z" />
    <glyph glyph-name="Udieresis" unicode="&#xdc;" horiz-adv-x="722" 
d="M360 -20c-46.667 0 -88.667 7.16699 -126 21.5s-69.333 35 -96 62s-47.167 59.333 -61.5 97s-21.5 79.834 -21.5 126.501v423h149v-416c0 -36 6.33301 -67.333 19 -94s30.834 -47.167 54.501 -61.5s51.5 -21.5 83.5 -21.5s59.667 7.16699 83 21.5s41.5 34.833 54.5 61.5
s19.5 58 19.5 94v416h149v-423c0 -46.667 -7.16699 -88.834 -21.5 -126.501s-35 -70 -62 -97s-59.333 -47.667 -97 -62s-79.834 -21.5 -126.501 -21.5zM240 773c-14.667 0 -27.834 3.5 -39.501 10.5s-21 16.167 -28 27.5s-10.5 24 -10.5 38s3.5 26.667 10.5 38
s16.333 20.5 28 27.5s24.834 10.5 39.501 10.5s27.834 -3.5 39.501 -10.5s21 -16.167 28 -27.5s10.5 -24 10.5 -38s-3.5 -26.667 -10.5 -38s-16.333 -20.5 -28 -27.5s-24.834 -10.5 -39.501 -10.5zM482 773c-14.667 0 -27.834 3.5 -39.501 10.5s-21 16.167 -28 27.5
s-10.5 24 -10.5 38s3.5 26.667 10.5 38s16.333 20.5 28 27.5s24.834 10.5 39.501 10.5s27.834 -3.5 39.501 -10.5s21 -16.167 28 -27.5s10.5 -24 10.5 -38s-3.5 -26.667 -10.5 -38s-16.333 -20.5 -28 -27.5s-24.834 -10.5 -39.501 -10.5z" />
    <glyph glyph-name="Yacute" unicode="&#xdd;" horiz-adv-x="667" 
d="M259 0v276l-248 434h166l159 -299l158 299h162l-248 -434v-276h-149zM220 784l138 133h176l-169 -133h-145z" />
    <glyph glyph-name="Thorn" unicode="&#xde;" horiz-adv-x="599" 
d="M65 0l0.000976562 710.001h147v-114h81c58 0 107.833 -9.5 149.5 -28.5s73.667 -46.333 96 -82s33.5 -78.834 33.5 -129.501c0 -36 -6.66699 -68.5 -20 -97.5s-32.333 -54 -57 -75s-54.167 -37.167 -88.5 -48.5s-72.5 -17 -114.5 -17
c-24.667 0 -51.334 2.33301 -80.001 7v-125h-147zM212.001 470.001l-0.00195312 -220c26.667 -4 51.334 -6 74.001 -6c42.667 0 75.834 9.66699 99.501 29s35.5 47.333 35.5 84c0 36 -11.333 63.833 -34 83.5s-55 29.5 -97 29.5h-78z" />
    <glyph glyph-name="germandbls" unicode="&#xdf;" horiz-adv-x="612" 
d="M340 -10c-15.333 0 -31.168 1.1709 -47.501 3.50391s-30.833 5.83301 -43.5 10.5l19 119c7.33301 -3.33301 16.166 -5.66602 26.499 -6.99902s19.5 -2 27.5 -2c21.333 0 40.5 4.66699 57.5 14s30.167 22.166 39.5 38.499s14 35.166 14 56.499
c0 34 -11.167 60.833 -33.5 80.5s-52.166 29.5 -89.499 29.5h-31v116h21c18.667 0 35.167 4 49.5 12s25.833 19 34.5 33s13 29.667 13 47s-4.33301 33 -13 47s-20.167 25 -34.5 33s-30.833 12 -49.5 12c-20 0 -37.833 -4.66699 -53.5 -14s-28 -22.833 -37 -40.5
s-13.5 -39.167 -13.5 -64.5v-514h-140v513c0 36.667 5.83301 70 17.5 100s28.334 55.833 50.001 77.5s47.5 38.5 77.5 50.5s63 18 99 18c34 0 65.5 -5 94.5 -15s54.167 -24.167 75.5 -42.5s38 -39.666 50 -63.999s18 -50.833 18 -79.5c0 -32.667 -7.5 -62.834 -22.5 -90.501
s-35.5 -49.834 -61.5 -66.501c24.667 -8.66699 46.167 -22.334 64.5 -41.001s32.5 -40.834 42.5 -66.501s15 -53.167 15 -82.5c0 -31.333 -5.83301 -60.5 -17.5 -87.5s-28.167 -50.5 -49.5 -70.5s-46.333 -35.5 -75 -46.5s-60 -16.5 -94 -16.5z" />
    <glyph glyph-name="agrave" unicode="&#xe0;" horiz-adv-x="560" 
d="M219 -15c-27.333 0 -52.333 4.00195 -75 12.002s-42.5 19.5 -59.5 34.5s-30.167 32.5 -39.5 52.5s-14 42 -14 66c0 33.333 9 62.666 27 87.999s43.333 45.166 76 59.499s70.667 21.5 114 21.5c22 0 42.833 -2 62.5 -6s38.834 -9.66699 57.501 -17v31
c0 30 -8.5 54.333 -25.5 73s-40.167 28 -69.5 28c-22 0 -42 -5.5 -60 -16.5s-30.667 -26.5 -38 -46.5l-125 25c7.33301 30.667 21.833 57.5 43.5 80.5s48.167 40.833 79.5 53.5s65.333 19 102 19c34 0 65 -5.33301 93 -16s52.167 -26 72.5 -46s36 -43.5 47 -70.5
s16.5 -57.167 16.5 -90.5v-320h-125l-4 62c-14 -22.667 -34.333 -41.167 -61 -55.5s-58.334 -21.5 -95.001 -21.5zM169 157.002c0 -18.667 7.66895 -33.999 23.002 -45.999s35.666 -18 60.999 -18c22 0 41.667 4.66699 59 14s31 22.166 41 38.499s15 34.5 15 54.5v5
c-14.667 6 -30.334 10.833 -47.001 14.5s-33.334 5.5 -50.001 5.5c-31.333 0 -56.166 -6.16699 -74.499 -18.5s-27.5 -28.833 -27.5 -49.5zM241.002 603.003l-138 143h156l114 -143h-132z" />
    <glyph glyph-name="aacute" unicode="&#xe1;" horiz-adv-x="560" 
d="M219 -15c-27.333 0 -52.333 4.00195 -75 12.002s-42.5 19.5 -59.5 34.5s-30.167 32.5 -39.5 52.5s-14 42 -14 66c0 33.333 9 62.666 27 87.999s43.333 45.166 76 59.499s70.667 21.5 114 21.5c22 0 42.833 -2 62.5 -6s38.834 -9.66699 57.501 -17v31
c0 30 -8.5 54.333 -25.5 73s-40.167 28 -69.5 28c-22 0 -42 -5.5 -60 -16.5s-30.667 -26.5 -38 -46.5l-125 25c7.33301 30.667 21.833 57.5 43.5 80.5s48.167 40.833 79.5 53.5s65.333 19 102 19c34 0 65 -5.33301 93 -16s52.167 -26 72.5 -46s36 -43.5 47 -70.5
s16.5 -57.167 16.5 -90.5v-320h-125l-4 62c-14 -22.667 -34.333 -41.167 -61 -55.5s-58.334 -21.5 -95.001 -21.5zM169 157.002c0 -18.667 7.66895 -33.999 23.002 -45.999s35.666 -18 60.999 -18c22 0 41.667 4.66699 59 14s31 22.166 41 38.499s15 34.5 15 54.5v5
c-14.667 6 -30.334 10.833 -47.001 14.5s-33.334 5.5 -50.001 5.5c-31.333 0 -56.166 -6.16699 -74.499 -18.5s-27.5 -28.833 -27.5 -49.5zM183.002 603.003l114 143h156l-138 -143h-132z" />
    <glyph glyph-name="acircumflex" unicode="&#xe2;" horiz-adv-x="560" 
d="M219 -15c-27.333 0 -52.333 4.00195 -75 12.002s-42.5 19.5 -59.5 34.5s-30.167 32.5 -39.5 52.5s-14 42 -14 66c0 33.333 9 62.666 27 87.999s43.333 45.166 76 59.499s70.667 21.5 114 21.5c22 0 42.833 -2 62.5 -6s38.834 -9.66699 57.501 -17v31
c0 30 -8.5 54.333 -25.5 73s-40.167 28 -69.5 28c-22 0 -42 -5.5 -60 -16.5s-30.667 -26.5 -38 -46.5l-125 25c7.33301 30.667 21.833 57.5 43.5 80.5s48.167 40.833 79.5 53.5s65.333 19 102 19c34 0 65 -5.33301 93 -16s52.167 -26 72.5 -46s36 -43.5 47 -70.5
s16.5 -57.167 16.5 -90.5v-320h-125l-4 62c-14 -22.667 -34.333 -41.167 -61 -55.5s-58.334 -21.5 -95.001 -21.5zM169 157.002c0 -18.667 7.66895 -33.999 23.002 -45.999s35.666 -18 60.999 -18c22 0 41.667 4.66699 59 14s31 22.166 41 38.499s15 34.5 15 54.5v5
c-14.667 6 -30.334 10.833 -47.001 14.5s-33.334 5.5 -50.001 5.5c-31.333 0 -56.166 -6.16699 -74.499 -18.5s-27.5 -28.833 -27.5 -49.5zM90.002 603.003l133 143h111l133 -143h-124l-66 62l-67 -62h-120z" />
    <glyph glyph-name="atilde" unicode="&#xe3;" horiz-adv-x="560" 
d="M219 -15c-27.333 0 -52.333 4.00195 -75 12.002s-42.5 19.5 -59.5 34.5s-30.167 32.5 -39.5 52.5s-14 42 -14 66c0 33.333 9 62.666 27 87.999s43.333 45.166 76 59.499s70.667 21.5 114 21.5c22 0 42.833 -2 62.5 -6s38.834 -9.66699 57.501 -17v31
c0 30 -8.5 54.333 -25.5 73s-40.167 28 -69.5 28c-22 0 -42 -5.5 -60 -16.5s-30.667 -26.5 -38 -46.5l-125 25c7.33301 30.667 21.833 57.5 43.5 80.5s48.167 40.833 79.5 53.5s65.333 19 102 19c34 0 65 -5.33301 93 -16s52.167 -26 72.5 -46s36 -43.5 47 -70.5
s16.5 -57.167 16.5 -90.5v-320h-125l-4 62c-14 -22.667 -34.333 -41.167 -61 -55.5s-58.334 -21.5 -95.001 -21.5zM169 157.002c0 -18.667 7.66895 -33.999 23.002 -45.999s35.666 -18 60.999 -18c22 0 41.667 4.66699 59 14s31 22.166 41 38.499s15 34.5 15 54.5v5
c-14.667 6 -30.334 10.833 -47.001 14.5s-33.334 5.5 -50.001 5.5c-31.333 0 -56.166 -6.16699 -74.499 -18.5s-27.5 -28.833 -27.5 -49.5zM344.002 599.003c-14.667 0 -27.667 2.33301 -39 7s-21.833 10.167 -31.5 16.5s-18.5 11.833 -26.5 16.5s-15.667 7 -23 7
c-8 0 -15 -3.66699 -21 -11s-10 -17.666 -12 -30.999h-87c4.66699 44 16.667 78.333 36 103s43.666 37 72.999 37c14.667 0 27.667 -2.33301 39 -7s21.833 -10.167 31.5 -16.5s18.5 -11.833 26.5 -16.5s15.667 -7 23 -7c8 0 15 3.66699 21 11s10 17.666 12 30.999h87
c-4.66699 -44 -16.667 -78.333 -36 -103s-43.666 -37 -72.999 -37z" />
    <glyph glyph-name="adieresis" unicode="&#xe4;" horiz-adv-x="560" 
d="M219 -15c-27.333 0 -52.333 4.00195 -75 12.002s-42.5 19.5 -59.5 34.5s-30.167 32.5 -39.5 52.5s-14 42 -14 66c0 33.333 9 62.666 27 87.999s43.333 45.166 76 59.499s70.667 21.5 114 21.5c22 0 42.833 -2 62.5 -6s38.834 -9.66699 57.501 -17v31
c0 30 -8.5 54.333 -25.5 73s-40.167 28 -69.5 28c-22 0 -42 -5.5 -60 -16.5s-30.667 -26.5 -38 -46.5l-125 25c7.33301 30.667 21.833 57.5 43.5 80.5s48.167 40.833 79.5 53.5s65.333 19 102 19c34 0 65 -5.33301 93 -16s52.167 -26 72.5 -46s36 -43.5 47 -70.5
s16.5 -57.167 16.5 -90.5v-320h-125l-4 62c-14 -22.667 -34.333 -41.167 -61 -55.5s-58.334 -21.5 -95.001 -21.5zM169 157.002c0 -18.667 7.66895 -33.999 23.002 -45.999s35.666 -18 60.999 -18c22 0 41.667 4.66699 59 14s31 22.166 41 38.499s15 34.5 15 54.5v5
c-14.667 6 -30.334 10.833 -47.001 14.5s-33.334 5.5 -50.001 5.5c-31.333 0 -56.166 -6.16699 -74.499 -18.5s-27.5 -28.833 -27.5 -49.5zM171.002 600.003c-14 0 -26.667 3.16699 -38 9.5s-20.333 15 -27 26s-10 23.167 -10 36.5s3.33301 25.5 10 36.5
s15.667 19.667 27 26s24 9.5 38 9.5s26.667 -3.16699 38 -9.5s20.333 -15 27 -26s10 -23.167 10 -36.5s-3.33301 -25.5 -10 -36.5s-15.667 -19.667 -27 -26s-24 -9.5 -38 -9.5zM385.002 600.003c-14 0 -26.667 3.16699 -38 9.5s-20.333 15 -27 26s-10 23.167 -10 36.5
s3.33301 25.5 10 36.5s15.667 19.667 27 26s24 9.5 38 9.5s26.667 -3.16699 38 -9.5s20.333 -15 27 -26s10 -23.167 10 -36.5s-3.33301 -25.5 -10 -36.5s-15.667 -19.667 -27 -26s-24 -9.5 -38 -9.5z" />
    <glyph glyph-name="aring" unicode="&#xe5;" horiz-adv-x="560" 
d="M219 -15c-27.333 0 -52.333 4.00195 -75 12.002s-42.5 19.5 -59.5 34.5s-30.167 32.5 -39.5 52.5s-14 42 -14 66c0 33.333 9 62.666 27 87.999s43.333 45.166 76 59.499s70.667 21.5 114 21.5c22 0 42.833 -2 62.5 -6s38.834 -9.66699 57.501 -17v31
c0 30 -8.5 54.333 -25.5 73s-40.167 28 -69.5 28c-22 0 -42 -5.5 -60 -16.5s-30.667 -26.5 -38 -46.5l-125 25c7.33301 30.667 21.833 57.5 43.5 80.5s48.167 40.833 79.5 53.5s65.333 19 102 19c34 0 65 -5.33301 93 -16s52.167 -26 72.5 -46s36 -43.5 47 -70.5
s16.5 -57.167 16.5 -90.5v-320h-125l-4 62c-14 -22.667 -34.333 -41.167 -61 -55.5s-58.334 -21.5 -95.001 -21.5zM169 157.002c0 -18.667 7.66895 -33.999 23.002 -45.999s35.666 -18 60.999 -18c22 0 41.667 4.66699 59 14s31 22.166 41 38.499s15 34.5 15 54.5v5
c-14.667 6 -30.334 10.833 -47.001 14.5s-33.334 5.5 -50.001 5.5c-31.333 0 -56.166 -6.16699 -74.499 -18.5s-27.5 -28.833 -27.5 -49.5zM278.002 576.003c-21.333 0 -40.666 4.83301 -57.999 14.5s-31 22.667 -41 39s-15 34.833 -15 55.5s5 39.167 15 55.5
s23.667 29.333 41 39s36.666 14.5 57.999 14.5s40.666 -4.83301 57.999 -14.5s31 -22.667 41 -39s15 -34.833 15 -55.5s-5 -39.167 -15 -55.5s-23.667 -29.333 -41 -39s-36.666 -14.5 -57.999 -14.5zM278.002 640.003c12 0 22.333 4.33301 31 13s13 19.334 13 32.001
s-4.33301 23.334 -13 32.001s-19 13 -31 13s-22.333 -4.33301 -31 -13s-13 -19.334 -13 -32.001s4.33301 -23.334 13 -32.001s19 -13 31 -13z" />
    <glyph glyph-name="ae" unicode="&#xe6;" horiz-adv-x="893" 
d="M232 -15c-28.667 0 -55.166 4.00098 -79.499 12.001s-45.666 19.5 -63.999 34.5s-32.5 32.667 -42.5 53s-15 42.833 -15 67.5c0 32 8.83301 60.667 26.5 86s42.5 45.166 74.5 59.499s69 21.5 111 21.5c21.333 0 41.333 -2 60 -6s37 -9.66699 55 -17v31
c0 30 -8 54.333 -24 73s-38 28 -66 28c-21.333 0 -40.5 -5.5 -57.5 -16.5s-28.833 -26.5 -35.5 -46.5l-125 25c6.66699 30.667 20.667 57.5 42 80.5s47.333 40.833 78 53.5s64 19 100 19c35.333 0 67 -7.33301 95 -22s51 -35 69 -61c21.333 26.667 47.333 47.167 78 61.5
s64.667 21.5 102 21.5c36 0 69.167 -6.66699 99.5 -20s56.5 -32.333 78.5 -57s39.167 -54 51.5 -88s18.5 -72 18.5 -114v-35h-369c6 -39.333 19.833 -70.166 41.5 -92.499s49.167 -33.5 82.5 -33.5c23.333 0 44.166 5.66699 62.499 17s33.833 27.666 46.5 48.999l125 -40
c-12 -30 -29.833 -55.667 -53.5 -77s-50.834 -37.833 -81.501 -49.5s-63.334 -17.5 -98.001 -17.5c-42.667 0 -81.167 9 -115.5 27s-62.5 43 -84.5 75c-10 -21.333 -24.167 -39.5 -42.5 -54.5s-39.666 -26.667 -63.999 -35s-50.833 -12.5 -79.5 -12.5zM609.001 435.001
c-29.333 0 -54 -10 -74 -30s-33.333 -47.333 -40 -82h223c-5.33301 34.667 -17.5 62 -36.5 82s-43.167 30 -72.5 30zM169.001 157.001c0 -18.667 7 -33.999 21 -45.999s33.333 -18 58 -18c21.333 0 40.333 4.66699 57 14s29.667 22.166 39 38.499s14 34.5 14 54.5v5
c-14 6 -29 10.833 -45 14.5s-31.667 5.5 -47 5.5c-30 0 -53.667 -6.16699 -71 -18.5s-26 -28.833 -26 -49.5z" />
    <glyph glyph-name="ccedilla" unicode="&#xe7;" horiz-adv-x="571" 
d="M301 -15c-38 0 -73.165 6.83105 -105.498 20.498s-60.333 32.834 -84 57.501s-42.167 53.834 -55.5 87.501s-20 70.167 -20 109.5c0 40 6.83301 77.167 20.5 111.5s32.667 64.333 57 90s52.833 45.667 85.5 60s68 21.5 106 21.5s73 -7.16699 105 -21.5
s59.167 -34.5 81.5 -60.5s37.833 -56.333 46.5 -91l-133 -26c-10 22.667 -24 40.5 -42 53.5s-38.333 19.5 -61 19.5c-24 0 -45.167 -6.66699 -63.5 -20s-32.833 -31.833 -43.5 -55.5s-16 -50.167 -16 -79.5s5.16699 -55.333 15.5 -78s24.833 -40.5 43.5 -53.5
s40 -19.5 64 -19.5s45.667 6.33301 65 19s33.666 30.667 42.999 54l133 -26c-8.66699 -35.333 -24.834 -66 -48.501 -92s-52.167 -46 -85.5 -60s-69.333 -21 -108 -21zM266.002 10.998h87.002l-17 -52c21.333 -6.66699 38.166 -17.5 50.499 -32.5s18.5 -32.5 18.5 -52.5
s-5.83301 -37.5 -17.5 -52.5s-28 -26.667 -49 -35s-44.833 -12.5 -71.5 -12.5c-28.667 0 -56 5 -82 15l14 74c10 -3.33301 19.5 -5.83301 28.5 -7.5s16.833 -2.5 23.5 -2.5c13.333 0 24.166 2.83301 32.499 8.5s12.5 13.167 12.5 22.5c0 22 -21 33 -63 33z" />
    <glyph glyph-name="egrave" unicode="&#xe8;" horiz-adv-x="588" 
d="M306 -15c-39.333 0 -75.5039 6.83301 -108.504 20.5s-61.5 33 -85.5 58s-42.667 54.667 -56 89s-20 71.833 -20 112.5c0 39.333 6.66699 76 20 110s31.833 63.5 55.5 88.5s51.5 44.5 83.5 58.5s66.667 21 104 21c38.667 0 73.834 -6.66699 105.501 -20
s58.834 -32.333 81.501 -57s40.167 -54 52.5 -88s18.5 -72 18.5 -114v-35h-379c6 -39.333 20.333 -70.166 43 -92.499s51.334 -33.5 86.001 -33.5c24 0 45.833 5.66699 65.5 17s35.834 27.666 48.501 48.999l125 -40c-12 -30 -30 -55.667 -54 -77s-52 -37.833 -84 -49.5
s-66 -17.5 -102 -17.5zM298.996 435c-30.667 0 -56.501 -10 -77.501 -30s-34.833 -47.333 -41.5 -82h233c-5.33301 34.667 -18.166 62 -38.499 82s-45.5 30 -75.5 30zM261.995 603l-138 143h156l114 -143h-132z" />
    <glyph glyph-name="eacute" unicode="&#xe9;" horiz-adv-x="588" 
d="M306 -15c-39.333 0 -75.5039 6.83301 -108.504 20.5s-61.5 33 -85.5 58s-42.667 54.667 -56 89s-20 71.833 -20 112.5c0 39.333 6.66699 76 20 110s31.833 63.5 55.5 88.5s51.5 44.5 83.5 58.5s66.667 21 104 21c38.667 0 73.834 -6.66699 105.501 -20
s58.834 -32.333 81.501 -57s40.167 -54 52.5 -88s18.5 -72 18.5 -114v-35h-379c6 -39.333 20.333 -70.166 43 -92.499s51.334 -33.5 86.001 -33.5c24 0 45.833 5.66699 65.5 17s35.834 27.666 48.501 48.999l125 -40c-12 -30 -30 -55.667 -54 -77s-52 -37.833 -84 -49.5
s-66 -17.5 -102 -17.5zM298.996 435c-30.667 0 -56.501 -10 -77.501 -30s-34.833 -47.333 -41.5 -82h233c-5.33301 34.667 -18.166 62 -38.499 82s-45.5 30 -75.5 30zM203.995 603l114 143h156l-138 -143h-132z" />
    <glyph glyph-name="ecircumflex" unicode="&#xea;" horiz-adv-x="588" 
d="M306 -15c-39.333 0 -75.5039 6.83301 -108.504 20.5s-61.5 33 -85.5 58s-42.667 54.667 -56 89s-20 71.833 -20 112.5c0 39.333 6.66699 76 20 110s31.833 63.5 55.5 88.5s51.5 44.5 83.5 58.5s66.667 21 104 21c38.667 0 73.834 -6.66699 105.501 -20
s58.834 -32.333 81.501 -57s40.167 -54 52.5 -88s18.5 -72 18.5 -114v-35h-379c6 -39.333 20.333 -70.166 43 -92.499s51.334 -33.5 86.001 -33.5c24 0 45.833 5.66699 65.5 17s35.834 27.666 48.501 48.999l125 -40c-12 -30 -30 -55.667 -54 -77s-52 -37.833 -84 -49.5
s-66 -17.5 -102 -17.5zM298.996 435c-30.667 0 -56.501 -10 -77.501 -30s-34.833 -47.333 -41.5 -82h233c-5.33301 34.667 -18.166 62 -38.499 82s-45.5 30 -75.5 30zM110.995 603l133 143h111l133 -143h-124l-66 62l-67 -62h-120z" />
    <glyph glyph-name="edieresis" unicode="&#xeb;" horiz-adv-x="588" 
d="M306 -15c-39.333 0 -75.5039 6.83301 -108.504 20.5s-61.5 33 -85.5 58s-42.667 54.667 -56 89s-20 71.833 -20 112.5c0 39.333 6.66699 76 20 110s31.833 63.5 55.5 88.5s51.5 44.5 83.5 58.5s66.667 21 104 21c38.667 0 73.834 -6.66699 105.501 -20
s58.834 -32.333 81.501 -57s40.167 -54 52.5 -88s18.5 -72 18.5 -114v-35h-379c6 -39.333 20.333 -70.166 43 -92.499s51.334 -33.5 86.001 -33.5c24 0 45.833 5.66699 65.5 17s35.834 27.666 48.501 48.999l125 -40c-12 -30 -30 -55.667 -54 -77s-52 -37.833 -84 -49.5
s-66 -17.5 -102 -17.5zM298.996 435c-30.667 0 -56.501 -10 -77.501 -30s-34.833 -47.333 -41.5 -82h233c-5.33301 34.667 -18.166 62 -38.499 82s-45.5 30 -75.5 30zM191.995 600c-14 0 -26.667 3.16699 -38 9.5s-20.333 15 -27 26s-10 23.167 -10 36.5
s3.33301 25.5 10 36.5s15.667 19.667 27 26s24 9.5 38 9.5s26.667 -3.16699 38 -9.5s20.333 -15 27 -26s10 -23.167 10 -36.5s-3.33301 -25.5 -10 -36.5s-15.667 -19.667 -27 -26s-24 -9.5 -38 -9.5zM405.995 600c-14 0 -26.667 3.16699 -38 9.5s-20.333 15 -27 26
s-10 23.167 -10 36.5s3.33301 25.5 10 36.5s15.667 19.667 27 26s24 9.5 38 9.5s26.667 -3.16699 38 -9.5s20.333 -15 27 -26s10 -23.167 10 -36.5s-3.33301 -25.5 -10 -36.5s-15.667 -19.667 -27 -26s-24 -9.5 -38 -9.5z" />
    <glyph glyph-name="igrave" unicode="&#xec;" horiz-adv-x="252" 
d="M56 0v528h140v-528h-140zM88 603l-138 143h156l114 -143h-132z" />
    <glyph glyph-name="iacute" unicode="&#xed;" horiz-adv-x="252" 
d="M56 0v528h140v-528h-140zM30 603l114 143h156l-138 -143h-132z" />
    <glyph glyph-name="icircumflex" unicode="&#xee;" horiz-adv-x="252" 
d="M56 0v528h140v-528h-140zM-63 603l133 143h111l133 -143h-124l-66 62l-67 -62h-120z" />
    <glyph glyph-name="idieresis" unicode="&#xef;" horiz-adv-x="252" 
d="M56 0v528h140v-528h-140zM18 600c-14 0 -26.667 3.16699 -38 9.5s-20.333 15 -27 26s-10 23.167 -10 36.5s3.33301 25.5 10 36.5s15.667 19.667 27 26s24 9.5 38 9.5s26.667 -3.16699 38 -9.5s20.333 -15 27 -26s10 -23.167 10 -36.5s-3.33301 -25.5 -10 -36.5
s-15.667 -19.667 -27 -26s-24 -9.5 -38 -9.5zM232 600c-14 0 -26.667 3.16699 -38 9.5s-20.333 15 -27 26s-10 23.167 -10 36.5s3.33301 25.5 10 36.5s15.667 19.667 27 26s24 9.5 38 9.5s26.667 -3.16699 38 -9.5s20.333 -15 27 -26s10 -23.167 10 -36.5
s-3.33301 -25.5 -10 -36.5s-15.667 -19.667 -27 -26s-24 -9.5 -38 -9.5z" />
    <glyph glyph-name="eth" unicode="&#xf0;" horiz-adv-x="637" 
d="M310 -15c-40 0 -76.6689 6.66309 -110.002 19.9961s-62.333 32.166 -87 56.499s-43.667 52.833 -57 85.5s-20 68.334 -20 107.001c0 38 6.5 73.333 19.5 106s30.833 61.334 53.5 86.001s49 43.834 79 57.501s62.333 20.5 97 20.5c28.667 0 54.834 -5 78.501 -15
s43.834 -24 60.501 -42c-20.667 46 -48.667 91 -84 135l-95 -44l-37 78l72 34c-22 20.667 -44.333 39.667 -67 57l137 34c15.333 -11.333 30.333 -23.666 45 -36.999l89 41l37 -78l-64 -30c27.333 -34.667 50.833 -72.167 70.5 -112.5s34.834 -81.5 45.501 -123.5
s16 -83.667 16 -125c0 -46.667 -6.83301 -89.167 -20.5 -127.5s-32.834 -71.166 -57.501 -98.499s-54 -48.333 -88 -63s-71.667 -22 -113 -22zM312.998 110.996c26 0 49 6.5 69 19.5s35.667 30.667 47 53s17 47.833 17 76.5c0 28 -5.66699 53.167 -17 75.5
s-27 39.833 -47 52.5s-43 19 -69 19s-49 -6.33301 -69 -19s-35.833 -30.167 -47.5 -52.5s-17.5 -47.5 -17.5 -75.5c0 -28.667 5.83301 -54.167 17.5 -76.5s27.5 -40 47.5 -53s43 -19.5 69 -19.5z" />
    <glyph glyph-name="ntilde" unicode="&#xf1;" 
d="M56 0v528h129l4 -68c15.333 25.333 36.5 45.5 63.5 60.5s57.833 22.5 92.5 22.5c38.667 0 72.5 -9.16699 101.5 -27.5s51.5 -44.5 67.5 -78.5s24 -74 24 -120v-317h-140v299c0 36.667 -8.33301 65.5 -25 86.5s-39.667 31.5 -69 31.5c-21.333 0 -40 -4.83301 -56 -14.5
s-28.667 -23.167 -38 -40.5s-14 -37 -14 -59v-303h-140zM363 599c-14.667 0 -27.667 2.33301 -39 7s-21.833 10.167 -31.5 16.5s-18.5 11.833 -26.5 16.5s-15.667 7 -23 7c-8 0 -15 -3.66699 -21 -11s-10 -17.666 -12 -30.999h-87c4.66699 44 16.667 78.333 36 103
s43.666 37 72.999 37c14.667 0 27.667 -2.33301 39 -7s21.833 -10.167 31.5 -16.5s18.5 -11.833 26.5 -16.5s15.667 -7 23 -7c8 0 15 3.66699 21 11s10 17.666 12 30.999h87c-4.66699 -44 -16.667 -78.333 -36 -103s-43.666 -37 -72.999 -37z" />
    <glyph glyph-name="ograve" unicode="&#xf2;" horiz-adv-x="624" 
d="M310 -15c-39.333 0 -75.666 7 -108.999 21s-62.333 33.5 -87 58.5s-43.834 54.5 -57.501 88.5s-20.5 71 -20.5 111s7 76.833 21 110.5s33.5 63.167 58.5 88.5s54.333 45 88 59s70.5 21 110.5 21c39.333 0 75.666 -7 108.999 -21s62.333 -33.5 87 -58.5
s43.834 -54.333 57.501 -88s20.5 -70.5 20.5 -110.5s-7 -77 -21 -111s-33.5 -63.667 -58.5 -89s-54.333 -45 -88 -59s-70.5 -21 -110.5 -21zM312 111c25.333 0 48 6.66699 68 20s35.833 31.5 47.5 54.5s17.5 49.167 17.5 78.5s-5.83301 55.5 -17.5 78.5
s-27.5 41.167 -47.5 54.5s-42.667 20 -68 20s-48 -6.66699 -68 -20s-35.833 -31.5 -47.5 -54.5s-17.5 -49.167 -17.5 -78.5s5.83301 -55.5 17.5 -78.5s27.5 -41.167 47.5 -54.5s42.667 -20 68 -20zM275 603l-138 143h156l114 -143h-132z" />
    <glyph glyph-name="oacute" unicode="&#xf3;" horiz-adv-x="624" 
d="M310 -15c-39.333 0 -75.666 7 -108.999 21s-62.333 33.5 -87 58.5s-43.834 54.5 -57.501 88.5s-20.5 71 -20.5 111s7 76.833 21 110.5s33.5 63.167 58.5 88.5s54.333 45 88 59s70.5 21 110.5 21c39.333 0 75.666 -7 108.999 -21s62.333 -33.5 87 -58.5
s43.834 -54.333 57.501 -88s20.5 -70.5 20.5 -110.5s-7 -77 -21 -111s-33.5 -63.667 -58.5 -89s-54.333 -45 -88 -59s-70.5 -21 -110.5 -21zM312 111c25.333 0 48 6.66699 68 20s35.833 31.5 47.5 54.5s17.5 49.167 17.5 78.5s-5.83301 55.5 -17.5 78.5
s-27.5 41.167 -47.5 54.5s-42.667 20 -68 20s-48 -6.66699 -68 -20s-35.833 -31.5 -47.5 -54.5s-17.5 -49.167 -17.5 -78.5s5.83301 -55.5 17.5 -78.5s27.5 -41.167 47.5 -54.5s42.667 -20 68 -20zM217 603l114 143h156l-138 -143h-132z" />
    <glyph glyph-name="ocircumflex" unicode="&#xf4;" horiz-adv-x="624" 
d="M310 -15c-39.333 0 -75.666 7 -108.999 21s-62.333 33.5 -87 58.5s-43.834 54.5 -57.501 88.5s-20.5 71 -20.5 111s7 76.833 21 110.5s33.5 63.167 58.5 88.5s54.333 45 88 59s70.5 21 110.5 21c39.333 0 75.666 -7 108.999 -21s62.333 -33.5 87 -58.5
s43.834 -54.333 57.501 -88s20.5 -70.5 20.5 -110.5s-7 -77 -21 -111s-33.5 -63.667 -58.5 -89s-54.333 -45 -88 -59s-70.5 -21 -110.5 -21zM312 111c25.333 0 48 6.66699 68 20s35.833 31.5 47.5 54.5s17.5 49.167 17.5 78.5s-5.83301 55.5 -17.5 78.5
s-27.5 41.167 -47.5 54.5s-42.667 20 -68 20s-48 -6.66699 -68 -20s-35.833 -31.5 -47.5 -54.5s-17.5 -49.167 -17.5 -78.5s5.83301 -55.5 17.5 -78.5s27.5 -41.167 47.5 -54.5s42.667 -20 68 -20zM124 603l133 143h111l133 -143h-124l-66 62l-67 -62h-120z" />
    <glyph glyph-name="otilde" unicode="&#xf5;" horiz-adv-x="624" 
d="M310 -15c-39.333 0 -75.666 7 -108.999 21s-62.333 33.5 -87 58.5s-43.834 54.5 -57.501 88.5s-20.5 71 -20.5 111s7 76.833 21 110.5s33.5 63.167 58.5 88.5s54.333 45 88 59s70.5 21 110.5 21c39.333 0 75.666 -7 108.999 -21s62.333 -33.5 87 -58.5
s43.834 -54.333 57.501 -88s20.5 -70.5 20.5 -110.5s-7 -77 -21 -111s-33.5 -63.667 -58.5 -89s-54.333 -45 -88 -59s-70.5 -21 -110.5 -21zM312 111c25.333 0 48 6.66699 68 20s35.833 31.5 47.5 54.5s17.5 49.167 17.5 78.5s-5.83301 55.5 -17.5 78.5
s-27.5 41.167 -47.5 54.5s-42.667 20 -68 20s-48 -6.66699 -68 -20s-35.833 -31.5 -47.5 -54.5s-17.5 -49.167 -17.5 -78.5s5.83301 -55.5 17.5 -78.5s27.5 -41.167 47.5 -54.5s42.667 -20 68 -20zM378 599c-14.667 0 -27.667 2.33301 -39 7s-21.833 10.167 -31.5 16.5
s-18.5 11.833 -26.5 16.5s-15.667 7 -23 7c-8 0 -15 -3.66699 -21 -11s-10 -17.666 -12 -30.999h-87c4.66699 44 16.667 78.333 36 103s43.666 37 72.999 37c14.667 0 27.667 -2.33301 39 -7s21.833 -10.167 31.5 -16.5s18.5 -11.833 26.5 -16.5s15.667 -7 23 -7
c8 0 15 3.66699 21 11s10 17.666 12 30.999h87c-4.66699 -44 -16.667 -78.333 -36 -103s-43.666 -37 -72.999 -37z" />
    <glyph glyph-name="odieresis" unicode="&#xf6;" horiz-adv-x="624" 
d="M310 -15c-39.333 0 -75.666 7 -108.999 21s-62.333 33.5 -87 58.5s-43.834 54.5 -57.501 88.5s-20.5 71 -20.5 111s7 76.833 21 110.5s33.5 63.167 58.5 88.5s54.333 45 88 59s70.5 21 110.5 21c39.333 0 75.666 -7 108.999 -21s62.333 -33.5 87 -58.5
s43.834 -54.333 57.501 -88s20.5 -70.5 20.5 -110.5s-7 -77 -21 -111s-33.5 -63.667 -58.5 -89s-54.333 -45 -88 -59s-70.5 -21 -110.5 -21zM312 111c25.333 0 48 6.66699 68 20s35.833 31.5 47.5 54.5s17.5 49.167 17.5 78.5s-5.83301 55.5 -17.5 78.5
s-27.5 41.167 -47.5 54.5s-42.667 20 -68 20s-48 -6.66699 -68 -20s-35.833 -31.5 -47.5 -54.5s-17.5 -49.167 -17.5 -78.5s5.83301 -55.5 17.5 -78.5s27.5 -41.167 47.5 -54.5s42.667 -20 68 -20zM205 600c-14 0 -26.667 3.16699 -38 9.5s-20.333 15 -27 26
s-10 23.167 -10 36.5s3.33301 25.5 10 36.5s15.667 19.667 27 26s24 9.5 38 9.5s26.667 -3.16699 38 -9.5s20.333 -15 27 -26s10 -23.167 10 -36.5s-3.33301 -25.5 -10 -36.5s-15.667 -19.667 -27 -26s-24 -9.5 -38 -9.5zM419 600c-14 0 -26.667 3.16699 -38 9.5
s-20.333 15 -27 26s-10 23.167 -10 36.5s3.33301 25.5 10 36.5s15.667 19.667 27 26s24 9.5 38 9.5s26.667 -3.16699 38 -9.5s20.333 -15 27 -26s10 -23.167 10 -36.5s-3.33301 -25.5 -10 -36.5s-15.667 -19.667 -27 -26s-24 -9.5 -38 -9.5z" />
    <glyph glyph-name="divide" unicode="&#xf7;" 
d="M297 380c-12.667 0 -24.167 3.16699 -34.5 9.5s-18.5 14.666 -24.5 24.999s-9 21.833 -9 34.5s3 24.167 9 34.5s14.167 18.666 24.5 24.999s21.833 9.5 34.5 9.5s24.167 -3.16699 34.5 -9.5s18.5 -14.666 24.5 -24.999s9 -21.833 9 -34.5s-3 -24.167 -9 -34.5
s-14.167 -18.666 -24.5 -24.999s-21.833 -9.5 -34.5 -9.5zM81 217v117h432v-117h-432zM297 33c-12.667 0 -24.167 3.16699 -34.5 9.5s-18.5 14.666 -24.5 24.999s-9 21.833 -9 34.5s3 24.167 9 34.5s14.167 18.666 24.5 24.999s21.833 9.5 34.5 9.5
s24.167 -3.16699 34.5 -9.5s18.5 -14.666 24.5 -24.999s9 -21.833 9 -34.5s-3 -24.167 -9 -34.5s-14.167 -18.666 -24.5 -24.999s-21.833 -9.5 -34.5 -9.5z" />
    <glyph glyph-name="oslash" unicode="&#xf8;" horiz-adv-x="624" 
d="M157 -25l-114 0.000976562l69 94c-23.333 25.333 -41.833 54.666 -55.5 87.999s-20.5 69 -20.5 107c0 40 7 76.833 21 110.5s33.5 63.167 58.5 88.5s54.333 45 88 59s70.5 21 110.5 21c22.667 0 44.334 -2.5 65.001 -7.5s40.334 -12.167 59.001 -21.5l29 39h114l-69 -94
c24 -24.667 42.667 -53.667 56 -87s20 -69 20 -107c0 -40 -7 -77 -21 -111s-33.5 -63.667 -58.5 -89s-54.333 -45 -88 -59s-70.5 -21 -110.5 -21c-22.667 0 -44.334 2.5 -65.001 7.5s-40.334 12.167 -59.001 21.5zM174 264.001c0 -16 1.66797 -30.998 5.00098 -44.998
s8 -27 14 -39l170 232c-16 6.66699 -33 10 -51 10c-26.667 0 -50.334 -6.83301 -71.001 -20.5s-37 -32.334 -49 -56.001s-18 -50.834 -18 -81.501zM312.001 106.003c26.667 0 50.333 6.83301 71 20.5s37 32.5 49 56.5s18 51 18 81c0 16 -1.66699 31 -5 45s-8 27 -14 39
l-170 -232c16 -6.66699 33 -10 51 -10z" />
    <glyph glyph-name="ugrave" unicode="&#xf9;" horiz-adv-x="592" 
d="M294 -15c-48 0 -89.832 10.167 -125.499 30.5s-63.334 49.333 -83.001 87s-29.5 82.167 -29.5 133.5v292h140v-295c0 -38 9 -67.833 27 -89.5s42.333 -32.5 73 -32.5s55 10.833 73 32.5s27 51.5 27 89.5v295h140v-292c0 -38 -5.66699 -72.333 -17 -103
s-27.666 -57 -48.999 -79s-46.833 -39 -76.5 -51s-62.834 -18 -99.501 -18zM258.001 603l-138 143h156l114 -143h-132z" />
    <glyph glyph-name="uacute" unicode="&#xfa;" horiz-adv-x="592" 
d="M294 -15c-48 0 -89.832 10.167 -125.499 30.5s-63.334 49.333 -83.001 87s-29.5 82.167 -29.5 133.5v292h140v-295c0 -38 9 -67.833 27 -89.5s42.333 -32.5 73 -32.5s55 10.833 73 32.5s27 51.5 27 89.5v295h140v-292c0 -38 -5.66699 -72.333 -17 -103
s-27.666 -57 -48.999 -79s-46.833 -39 -76.5 -51s-62.834 -18 -99.501 -18zM200.001 603l114 143h156l-138 -143h-132z" />
    <glyph glyph-name="ucircumflex" unicode="&#xfb;" horiz-adv-x="592" 
d="M294 -15c-48 0 -89.832 10.167 -125.499 30.5s-63.334 49.333 -83.001 87s-29.5 82.167 -29.5 133.5v292h140v-295c0 -38 9 -67.833 27 -89.5s42.333 -32.5 73 -32.5s55 10.833 73 32.5s27 51.5 27 89.5v295h140v-292c0 -38 -5.66699 -72.333 -17 -103
s-27.666 -57 -48.999 -79s-46.833 -39 -76.5 -51s-62.834 -18 -99.501 -18zM107.001 603l133 143h111l133 -143h-124l-66 62l-67 -62h-120z" />
    <glyph glyph-name="udieresis" unicode="&#xfc;" horiz-adv-x="592" 
d="M294 -15c-48 0 -89.832 10.167 -125.499 30.5s-63.334 49.333 -83.001 87s-29.5 82.167 -29.5 133.5v292h140v-295c0 -38 9 -67.833 27 -89.5s42.333 -32.5 73 -32.5s55 10.833 73 32.5s27 51.5 27 89.5v295h140v-292c0 -38 -5.66699 -72.333 -17 -103
s-27.666 -57 -48.999 -79s-46.833 -39 -76.5 -51s-62.834 -18 -99.501 -18zM188.001 600c-14 0 -26.667 3.16699 -38 9.5s-20.333 15 -27 26s-10 23.167 -10 36.5s3.33301 25.5 10 36.5s15.667 19.667 27 26s24 9.5 38 9.5s26.667 -3.16699 38 -9.5s20.333 -15 27 -26
s10 -23.167 10 -36.5s-3.33301 -25.5 -10 -36.5s-15.667 -19.667 -27 -26s-24 -9.5 -38 -9.5zM402.001 600c-14 0 -26.667 3.16699 -38 9.5s-20.333 15 -27 26s-10 23.167 -10 36.5s3.33301 25.5 10 36.5s15.667 19.667 27 26s24 9.5 38 9.5s26.667 -3.16699 38 -9.5
s20.333 -15 27 -26s10 -23.167 10 -36.5s-3.33301 -25.5 -10 -36.5s-15.667 -19.667 -27 -26s-24 -9.5 -38 -9.5z" />
    <glyph glyph-name="yacute" unicode="&#xfd;" horiz-adv-x="561" 
d="M144 -204c-18 0 -34.998 1.83203 -50.998 5.49902s-31 9.5 -45 17.5l27 110c7.33301 -3.33301 16 -6.16602 26 -8.49902s19.333 -3.5 28 -3.5c19.333 0 36.166 5.16699 50.499 15.5s26.166 26.833 35.499 49.5l9 23l-213 523h153l125 -374l113 374h148l-217 -578
c-20 -53.333 -45.5 -92.333 -76.5 -117s-68.5 -37 -112.5 -37zM185.002 602.999l114 143h156l-138 -143h-132z" />
    <glyph glyph-name="thorn" unicode="&#xfe;" horiz-adv-x="639" 
d="M56 -194l0.00292969 939.999h140v-285c18.667 25.333 42.167 45.333 70.5 60s59.5 22 93.5 22c34.667 0 66.667 -7 96 -21s55 -33.5 77 -58.5s39.167 -54.167 51.5 -87.5s18.5 -69.666 18.5 -108.999c0 -40 -6.33301 -77 -19 -111s-30.334 -63.833 -53.001 -89.5
s-49.334 -45.667 -80.001 -60s-63.667 -21.5 -99 -21.5c-32.667 0 -62.334 6.5 -89.001 19.5s-49 31.167 -67 54.5v-253h-140zM327.003 110.999c25.333 0 48 6.66699 68 20s35.833 31.5 47.5 54.5s17.5 49.167 17.5 78.5s-5.83301 55.5 -17.5 78.5s-27.5 41.167 -47.5 54.5
s-42.667 20 -68 20s-48 -6.66699 -68 -20s-35.833 -31.5 -47.5 -54.5s-17.5 -49.167 -17.5 -78.5s5.83301 -55.5 17.5 -78.5s27.5 -41.167 47.5 -54.5s42.667 -20 68 -20z" />
    <glyph glyph-name="ydieresis" unicode="&#xff;" horiz-adv-x="561" 
d="M144 -204c-18 0 -34.998 1.83203 -50.998 5.49902s-31 9.5 -45 17.5l27 110c7.33301 -3.33301 16 -6.16602 26 -8.49902s19.333 -3.5 28 -3.5c19.333 0 36.166 5.16699 50.499 15.5s26.166 26.833 35.499 49.5l9 23l-213 523h153l125 -374l113 374h148l-217 -578
c-20 -53.333 -45.5 -92.333 -76.5 -117s-68.5 -37 -112.5 -37zM173.002 599.999c-14 0 -26.667 3.16699 -38 9.5s-20.333 15 -27 26s-10 23.167 -10 36.5s3.33301 25.5 10 36.5s15.667 19.667 27 26s24 9.5 38 9.5s26.667 -3.16699 38 -9.5s20.333 -15 27 -26
s10 -23.167 10 -36.5s-3.33301 -25.5 -10 -36.5s-15.667 -19.667 -27 -26s-24 -9.5 -38 -9.5zM387.002 599.999c-14 0 -26.667 3.16699 -38 9.5s-20.333 15 -27 26s-10 23.167 -10 36.5s3.33301 25.5 10 36.5s15.667 19.667 27 26s24 9.5 38 9.5s26.667 -3.16699 38 -9.5
s20.333 -15 27 -26s10 -23.167 10 -36.5s-3.33301 -25.5 -10 -36.5s-15.667 -19.667 -27 -26s-24 -9.5 -38 -9.5z" />
    <glyph glyph-name="Amacron" unicode="&#x100;" horiz-adv-x="755" 
d="M16 0l282 710h158l283 -710h-153l-58 156h-307l-58 -156h-147zM268 282h213l-107 283zM195 789v100h364v-100h-364z" />
    <glyph glyph-name="amacron" unicode="&#x101;" horiz-adv-x="560" 
d="M219 -15c-27.333 0 -52.333 4.00195 -75 12.002s-42.5 19.5 -59.5 34.5s-30.167 32.5 -39.5 52.5s-14 42 -14 66c0 33.333 9 62.666 27 87.999s43.333 45.166 76 59.499s70.667 21.5 114 21.5c22 0 42.833 -2 62.5 -6s38.834 -9.66699 57.501 -17v31
c0 30 -8.5 54.333 -25.5 73s-40.167 28 -69.5 28c-22 0 -42 -5.5 -60 -16.5s-30.667 -26.5 -38 -46.5l-125 25c7.33301 30.667 21.833 57.5 43.5 80.5s48.167 40.833 79.5 53.5s65.333 19 102 19c34 0 65 -5.33301 93 -16s52.167 -26 72.5 -46s36 -43.5 47 -70.5
s16.5 -57.167 16.5 -90.5v-320h-125l-4 62c-14 -22.667 -34.333 -41.167 -61 -55.5s-58.334 -21.5 -95.001 -21.5zM169 157.002c0 -18.667 7.66895 -33.999 23.002 -45.999s35.666 -18 60.999 -18c22 0 41.667 4.66699 59 14s31 22.166 41 38.499s15 34.5 15 54.5v5
c-14.667 6 -30.334 10.833 -47.001 14.5s-33.334 5.5 -50.001 5.5c-31.333 0 -56.166 -6.16699 -74.499 -18.5s-27.5 -28.833 -27.5 -49.5zM119.002 609.003v94h318v-94h-318z" />
    <glyph glyph-name="Abreve" unicode="&#x102;" horiz-adv-x="755" 
d="M16 0l282 710h158l283 -710h-153l-58 156h-307l-58 -156h-147zM268 282h213l-107 283zM377 779c-32 0 -61.167 5.83301 -87.5 17.5s-48 28.5 -65 50.5s-27.833 47.667 -32.5 77h110c4.66699 -18.667 13.667 -33.167 27 -43.5s29.333 -15.5 48 -15.5
s34.667 5.16699 48 15.5s22.333 24.833 27 43.5h110c-4.66699 -29.333 -15.5 -55 -32.5 -77s-38.667 -38.833 -65 -50.5s-55.5 -17.5 -87.5 -17.5z" />
    <glyph glyph-name="abreve" unicode="&#x103;" horiz-adv-x="560" 
d="M219 -15c-27.333 0 -52.333 4.00195 -75 12.002s-42.5 19.5 -59.5 34.5s-30.167 32.5 -39.5 52.5s-14 42 -14 66c0 33.333 9 62.666 27 87.999s43.333 45.166 76 59.499s70.667 21.5 114 21.5c22 0 42.833 -2 62.5 -6s38.834 -9.66699 57.501 -17v31
c0 30 -8.5 54.333 -25.5 73s-40.167 28 -69.5 28c-22 0 -42 -5.5 -60 -16.5s-30.667 -26.5 -38 -46.5l-125 25c7.33301 30.667 21.833 57.5 43.5 80.5s48.167 40.833 79.5 53.5s65.333 19 102 19c34 0 65 -5.33301 93 -16s52.167 -26 72.5 -46s36 -43.5 47 -70.5
s16.5 -57.167 16.5 -90.5v-320h-125l-4 62c-14 -22.667 -34.333 -41.167 -61 -55.5s-58.334 -21.5 -95.001 -21.5zM169 157.002c0 -18.667 7.66895 -33.999 23.002 -45.999s35.666 -18 60.999 -18c22 0 41.667 4.66699 59 14s31 22.166 41 38.499s15 34.5 15 54.5v5
c-14.667 6 -30.334 10.833 -47.001 14.5s-33.334 5.5 -50.001 5.5c-31.333 0 -56.166 -6.16699 -74.499 -18.5s-27.5 -28.833 -27.5 -49.5zM278.002 601.003c-30.667 0 -57.999 5.66699 -81.999 17s-43.833 27.333 -59.5 48s-25.834 45 -30.501 73h104
c4 -18 12 -31.667 24 -41s26.667 -14 44 -14s31.833 4.66699 43.5 14s19.834 23 24.501 41h104c-4.66699 -28 -14.834 -52.333 -30.501 -73s-35.5 -36.667 -59.5 -48s-51.333 -17 -82 -17z" />
    <glyph glyph-name="Aogonek" unicode="&#x104;" horiz-adv-x="755" 
d="M16 0l282 710h158l283 -710h-153l-58 156h-307l-58 -156h-147zM268 282h213l-107 283zM657 -226c-36 0 -64.666 8.33105 -85.999 24.998s-32 38.667 -32 66c0 26 10 52 30 78s51.333 53.333 94 82l76 -25c-30.667 -22.667 -52.834 -42.167 -66.501 -58.5
s-20.5 -30.166 -20.5 -41.499c0 -9.33301 3.5 -16.833 10.5 -22.5s16.167 -8.5 27.5 -8.5c7.33301 0 15.333 0.833008 24 2.5s16 3.83398 22 6.50098l12 -87c-16 -5.33301 -31.5 -9.5 -46.5 -12.5s-29.833 -4.5 -44.5 -4.5z" />
    <glyph glyph-name="aogonek" unicode="&#x105;" horiz-adv-x="560" 
d="M219 -15c-27.333 0 -52.333 4.00195 -75 12.002s-42.5 19.5 -59.5 34.5s-30.167 32.5 -39.5 52.5s-14 42 -14 66c0 33.333 9 62.666 27 87.999s43.333 45.166 76 59.499s70.667 21.5 114 21.5c22 0 42.833 -2 62.5 -6s38.834 -9.66699 57.501 -17v31
c0 30 -8.5 54.333 -25.5 73s-40.167 28 -69.5 28c-22 0 -42 -5.5 -60 -16.5s-30.667 -26.5 -38 -46.5l-125 25c7.33301 30.667 21.833 57.5 43.5 80.5s48.167 40.833 79.5 53.5s65.333 19 102 19c34 0 65 -5.33301 93 -16s52.167 -26 72.5 -46s36 -43.5 47 -70.5
s16.5 -57.167 16.5 -90.5v-320h-125l-4 62c-14 -22.667 -34.333 -41.167 -61 -55.5s-58.334 -21.5 -95.001 -21.5zM169 157.002c0 -18.667 7.66895 -33.999 23.002 -45.999s35.666 -18 60.999 -18c22 0 41.667 4.66699 59 14s31 22.166 41 38.499s15 34.5 15 54.5v5
c-14.667 6 -30.334 10.833 -47.001 14.5s-33.334 5.5 -50.001 5.5c-31.333 0 -56.166 -6.16699 -74.499 -18.5s-27.5 -28.833 -27.5 -49.5zM424.002 -222.997c-35.333 0 -63.499 8.16602 -84.499 24.499s-31.5 38.166 -31.5 65.499c0 24.667 10 50 30 76
s51.333 53.333 94 82l72 -25c-30.667 -22.667 -52.834 -42.167 -66.501 -58.5s-20.5 -30.166 -20.5 -41.499c0 -9.33301 3.5 -16.833 10.5 -22.5s16.167 -8.5 27.5 -8.5c8 0 16.333 0.833008 25 2.5s15.667 3.83398 21 6.50098l12 -83c-28 -12 -57.667 -18 -89 -18z" />
    <glyph glyph-name="Cacute" unicode="&#x106;" horiz-adv-x="741" 
d="M396 -20c-40.667 0 -79 6 -115 18s-68.667 29 -98 51s-54.5 48.167 -75.5 78.5s-37.167 64.333 -48.5 102s-17 77.834 -17 120.501s5.83301 83.167 17.5 121.5s28.167 73.333 49.5 105s46.666 59 75.999 82s61.833 40.667 97.5 53s73.5 18.5 113.5 18.5
c36.667 0 71.334 -5 104.001 -15s62.334 -24.333 89.001 -43s49.834 -41 69.501 -67s34.5 -55.333 44.5 -88l-144 -36c-16 35.333 -38.333 62.833 -67 82.5s-61.334 29.5 -98.001 29.5c-28 0 -54.167 -6 -78.5 -18s-45.333 -28.833 -63 -50.5s-31.5 -47.167 -41.5 -76.5
s-15 -61.333 -15 -96s4.83301 -66.334 14.5 -95.001s23.5 -53.5 41.5 -74.5s39.167 -37.167 63.5 -48.5s51.166 -17 80.499 -17c38 0 71.5 9.5 100.5 28.5s52.167 46.833 69.5 83.5l144 -36c-14 -43.333 -36.167 -81 -66.5 -113s-66.5 -56.667 -108.5 -74
s-88.333 -26 -139 -26zM282 784l138 133h176l-169 -133h-145z" />
    <glyph glyph-name="cacute" unicode="&#x107;" horiz-adv-x="571" 
d="M301 -15c-38 0 -73.165 6.83105 -105.498 20.498s-60.333 32.834 -84 57.501s-42.167 53.834 -55.5 87.501s-20 70.167 -20 109.5c0 40 6.83301 77.167 20.5 111.5s32.667 64.333 57 90s52.833 45.667 85.5 60s68 21.5 106 21.5s73 -7.16699 105 -21.5
s59.167 -34.5 81.5 -60.5s37.833 -56.333 46.5 -91l-133 -26c-10 22.667 -24 40.5 -42 53.5s-38.333 19.5 -61 19.5c-24 0 -45.167 -6.66699 -63.5 -20s-32.833 -31.833 -43.5 -55.5s-16 -50.167 -16 -79.5s5.16699 -55.333 15.5 -78s24.833 -40.5 43.5 -53.5
s40 -19.5 64 -19.5s45.667 6.33301 65 19s33.666 30.667 42.999 54l133 -26c-8.66699 -35.333 -24.834 -66 -48.501 -92s-52.167 -46 -85.5 -60s-69.333 -21 -108 -21zM209.002 602.998l114 143h156l-138 -143h-132z" />
    <glyph glyph-name="Cdotaccent" unicode="&#x10a;" horiz-adv-x="741" 
d="M396 -20c-40.667 0 -79 6 -115 18s-68.667 29 -98 51s-54.5 48.167 -75.5 78.5s-37.167 64.333 -48.5 102s-17 77.834 -17 120.501s5.83301 83.167 17.5 121.5s28.167 73.333 49.5 105s46.666 59 75.999 82s61.833 40.667 97.5 53s73.5 18.5 113.5 18.5
c36.667 0 71.334 -5 104.001 -15s62.334 -24.333 89.001 -43s49.834 -41 69.501 -67s34.5 -55.333 44.5 -88l-144 -36c-16 35.333 -38.333 62.833 -67 82.5s-61.334 29.5 -98.001 29.5c-28 0 -54.167 -6 -78.5 -18s-45.333 -28.833 -63 -50.5s-31.5 -47.167 -41.5 -76.5
s-15 -61.333 -15 -96s4.83301 -66.334 14.5 -95.001s23.5 -53.5 41.5 -74.5s39.167 -37.167 63.5 -48.5s51.166 -17 80.499 -17c38 0 71.5 9.5 100.5 28.5s52.167 46.833 69.5 83.5l144 -36c-14 -43.333 -36.167 -81 -66.5 -113s-66.5 -56.667 -108.5 -74
s-88.333 -26 -139 -26zM395 773c-16 0 -30.167 3.66699 -42.5 11s-22.166 17.166 -29.499 29.499s-11 26.166 -11 41.499s3.66699 29.166 11 41.499s17.166 22.166 29.499 29.499s26.5 11 42.5 11s30.167 -3.66699 42.5 -11s22.166 -17.166 29.499 -29.499
s11 -26.166 11 -41.499s-3.66699 -29.166 -11 -41.499s-17.166 -22.166 -29.499 -29.499s-26.5 -11 -42.5 -11z" />
    <glyph glyph-name="cdotaccent" unicode="&#x10b;" horiz-adv-x="571" 
d="M301 -15c-38 0 -73.165 6.83105 -105.498 20.498s-60.333 32.834 -84 57.501s-42.167 53.834 -55.5 87.501s-20 70.167 -20 109.5c0 40 6.83301 77.167 20.5 111.5s32.667 64.333 57 90s52.833 45.667 85.5 60s68 21.5 106 21.5s73 -7.16699 105 -21.5
s59.167 -34.5 81.5 -60.5s37.833 -56.333 46.5 -91l-133 -26c-10 22.667 -24 40.5 -42 53.5s-38.333 19.5 -61 19.5c-24 0 -45.167 -6.66699 -63.5 -20s-32.833 -31.833 -43.5 -55.5s-16 -50.167 -16 -79.5s5.16699 -55.333 15.5 -78s24.833 -40.5 43.5 -53.5
s40 -19.5 64 -19.5s45.667 6.33301 65 19s33.666 30.667 42.999 54l133 -26c-8.66699 -35.333 -24.834 -66 -48.501 -92s-52.167 -46 -85.5 -60s-69.333 -21 -108 -21zM384.002 670.998c0 -15.333 -3.5 -29 -10.5 -41s-16.667 -21.5 -29 -28.5s-25.833 -10.5 -40.5 -10.5
s-28.167 3.5 -40.5 10.5s-22 16.5 -29 28.5s-10.5 25.667 -10.5 41s3.5 29 10.5 41s16.667 21.5 29 28.5s25.833 10.5 40.5 10.5s28.167 -3.5 40.5 -10.5s22 -16.5 29 -28.5s10.5 -25.667 10.5 -41z" />
    <glyph glyph-name="Ccaron" unicode="&#x10c;" horiz-adv-x="741" 
d="M396 -20c-40.667 0 -79 6 -115 18s-68.667 29 -98 51s-54.5 48.167 -75.5 78.5s-37.167 64.333 -48.5 102s-17 77.834 -17 120.501s5.83301 83.167 17.5 121.5s28.167 73.333 49.5 105s46.666 59 75.999 82s61.833 40.667 97.5 53s73.5 18.5 113.5 18.5
c36.667 0 71.334 -5 104.001 -15s62.334 -24.333 89.001 -43s49.834 -41 69.501 -67s34.5 -55.333 44.5 -88l-144 -36c-16 35.333 -38.333 62.833 -67 82.5s-61.334 29.5 -98.001 29.5c-28 0 -54.167 -6 -78.5 -18s-45.333 -28.833 -63 -50.5s-31.5 -47.167 -41.5 -76.5
s-15 -61.333 -15 -96s4.83301 -66.334 14.5 -95.001s23.5 -53.5 41.5 -74.5s39.167 -37.167 63.5 -48.5s51.166 -17 80.499 -17c38 0 71.5 9.5 100.5 28.5s52.167 46.833 69.5 83.5l144 -36c-14 -43.333 -36.167 -81 -66.5 -113s-66.5 -56.667 -108.5 -74
s-88.333 -26 -139 -26zM328 784l-147 133h142l74 -59l75 59h138l-147 -133h-135z" />
    <glyph glyph-name="ccaron" unicode="&#x10d;" horiz-adv-x="571" 
d="M301 -15c-38 0 -73.165 6.83105 -105.498 20.498s-60.333 32.834 -84 57.501s-42.167 53.834 -55.5 87.501s-20 70.167 -20 109.5c0 40 6.83301 77.167 20.5 111.5s32.667 64.333 57 90s52.833 45.667 85.5 60s68 21.5 106 21.5s73 -7.16699 105 -21.5
s59.167 -34.5 81.5 -60.5s37.833 -56.333 46.5 -91l-133 -26c-10 22.667 -24 40.5 -42 53.5s-38.333 19.5 -61 19.5c-24 0 -45.167 -6.66699 -63.5 -20s-32.833 -31.833 -43.5 -55.5s-16 -50.167 -16 -79.5s5.16699 -55.333 15.5 -78s24.833 -40.5 43.5 -53.5
s40 -19.5 64 -19.5s45.667 6.33301 65 19s33.666 30.667 42.999 54l133 -26c-8.66699 -35.333 -24.834 -66 -48.501 -92s-52.167 -46 -85.5 -60s-69.333 -21 -108 -21zM249.002 602.998l-133 143h124l66 -62l67 62h120l-133 -143h-111z" />
    <glyph glyph-name="Dcaron" unicode="&#x10e;" horiz-adv-x="759" 
d="M65 0l-0.00195312 710.001h276c56 0 107 -8.5 153 -25.5s85.667 -41.167 119 -72.5s59 -68.666 77 -111.999s27 -91.333 27 -144s-9.16699 -100.834 -27.5 -144.501s-44.166 -81.334 -77.499 -113.001s-73.166 -56 -119.499 -73s-97.5 -25.5 -153.5 -25.5h-274z
M213.998 132.001h118c47.333 0 88.333 9 123 27s61.334 43.667 80.001 77s28 73 28 119s-9.33301 85.667 -28 119s-45.334 59 -80.001 77s-75.667 27 -123 27h-118v-446zM285.998 784.001l-147 133h142l74 -59l75 59h138l-147 -133h-135z" />
    <glyph glyph-name="dcaron" unicode="&#x10f;" horiz-adv-x="679" 
d="M278 -15c-34 0 -65.665 7.00098 -94.998 21.001s-55 33.5 -77 58.5s-39.167 54.167 -51.5 87.5s-18.5 69.666 -18.5 108.999c0 40 6.33301 77 19 111s30.334 63.833 53.001 89.5s49.167 45.667 79.5 60s63.166 21.5 98.499 21.5c32.667 0 62.5 -6.5 89.5 -19.5
s49.5 -31.167 67.5 -54.5v277h140v-746h-129l-4 77c-18.667 -28.667 -42.834 -51.167 -72.501 -67.5s-62.834 -24.5 -99.501 -24.5zM312.002 111.001c25.333 0 48 6.66699 68 20s35.833 31.5 47.5 54.5s17.5 49.167 17.5 78.5s-5.83301 55.5 -17.5 78.5
s-27.5 41.167 -47.5 54.5s-42.667 20 -68 20s-48 -6.66699 -68 -20s-35.833 -31.5 -47.5 -54.5s-17.5 -49.167 -17.5 -78.5s5.83301 -55.5 17.5 -78.5s27.5 -41.167 47.5 -54.5s42.667 -20 68 -20zM650.002 554.001l15 192h114l-47 -192h-82z" />
    <glyph glyph-name="Dcroat" unicode="&#x110;" horiz-adv-x="769" 
d="M75 0l-0.00195312 308.001h-78v114h78v288h276c56 0 107 -8.5 153 -25.5s85.667 -41.167 119 -72.5s59 -68.666 77 -111.999s27 -91.333 27 -144s-9.16699 -100.834 -27.5 -144.501s-44.166 -81.334 -77.499 -113.001s-73.166 -56 -119.499 -73s-97.5 -25.5 -153.5 -25.5
h-274zM223.998 132.001h118c47.333 0 88.333 9 123 27s61.334 43.667 80.001 77s28 73 28 119s-9.33301 85.667 -28 119s-45.334 59 -80.001 77s-75.667 27 -123 27h-118v-156h142v-114h-142v-176z" />
    <glyph glyph-name="dcroat" unicode="&#x111;" horiz-adv-x="639" 
d="M278 -15c-34 0 -65.667 6.83398 -95 20.501s-55 33 -77 58s-39.167 54 -51.5 87s-18.5 69.167 -18.5 108.5s6.33301 75.833 19 109.5s30.334 63.167 53.001 88.5s49.167 45.166 79.5 59.499s63.166 21.5 98.499 21.5c32.667 0 62.5 -6.33301 89.5 -19s49.5 -31 67.5 -55
v124h-134v92h134v66h140v-66h70v-92h-70v-588h-129l-4 77c-18 -28.667 -42 -51.167 -72 -67.5s-63.333 -24.5 -100 -24.5zM312 111.001c25.333 0 48 6.5 68 19.5s35.833 30.833 47.5 53.5s17.5 48.334 17.5 77.001s-5.83301 54.5 -17.5 77.5s-27.5 41 -47.5 54
s-42.667 19.5 -68 19.5s-48 -6.5 -68 -19.5s-35.833 -31 -47.5 -54s-17.5 -48.833 -17.5 -77.5s5.83301 -54.334 17.5 -77.001s27.5 -40.5 47.5 -53.5s42.667 -19.5 68 -19.5z" />
    <glyph glyph-name="Emacron" unicode="&#x112;" horiz-adv-x="574" 
d="M65 0v710h445v-127h-301v-155h269v-127h-269v-174h311v-127h-455zM105 789v100h364v-100h-364z" />
    <glyph glyph-name="emacron" unicode="&#x113;" horiz-adv-x="588" 
d="M306 -15c-39.333 0 -75.5039 6.83301 -108.504 20.5s-61.5 33 -85.5 58s-42.667 54.667 -56 89s-20 71.833 -20 112.5c0 39.333 6.66699 76 20 110s31.833 63.5 55.5 88.5s51.5 44.5 83.5 58.5s66.667 21 104 21c38.667 0 73.834 -6.66699 105.501 -20
s58.834 -32.333 81.501 -57s40.167 -54 52.5 -88s18.5 -72 18.5 -114v-35h-379c6 -39.333 20.333 -70.166 43 -92.499s51.334 -33.5 86.001 -33.5c24 0 45.833 5.66699 65.5 17s35.834 27.666 48.501 48.999l125 -40c-12 -30 -30 -55.667 -54 -77s-52 -37.833 -84 -49.5
s-66 -17.5 -102 -17.5zM298.996 435c-30.667 0 -56.501 -10 -77.501 -30s-34.833 -47.333 -41.5 -82h233c-5.33301 34.667 -18.166 62 -38.499 82s-45.5 30 -75.5 30zM139.995 609v94h318v-94h-318z" />
    <glyph glyph-name="Edotaccent" unicode="&#x116;" horiz-adv-x="574" 
d="M65 0v710h445v-127h-301v-155h269v-127h-269v-174h311v-127h-455zM287 773c-16 0 -30.167 3.66699 -42.5 11s-22.166 17.166 -29.499 29.499s-11 26.166 -11 41.499s3.66699 29.166 11 41.499s17.166 22.166 29.499 29.499s26.5 11 42.5 11s30.167 -3.66699 42.5 -11
s22.166 -17.166 29.499 -29.499s11 -26.166 11 -41.499s-3.66699 -29.166 -11 -41.499s-17.166 -22.166 -29.499 -29.499s-26.5 -11 -42.5 -11z" />
    <glyph glyph-name="edotaccent" unicode="&#x117;" horiz-adv-x="588" 
d="M306 -15c-39.333 0 -75.5039 6.83301 -108.504 20.5s-61.5 33 -85.5 58s-42.667 54.667 -56 89s-20 71.833 -20 112.5c0 39.333 6.66699 76 20 110s31.833 63.5 55.5 88.5s51.5 44.5 83.5 58.5s66.667 21 104 21c38.667 0 73.834 -6.66699 105.501 -20
s58.834 -32.333 81.501 -57s40.167 -54 52.5 -88s18.5 -72 18.5 -114v-35h-379c6 -39.333 20.333 -70.166 43 -92.499s51.334 -33.5 86.001 -33.5c24 0 45.833 5.66699 65.5 17s35.834 27.666 48.501 48.999l125 -40c-12 -30 -30 -55.667 -54 -77s-52 -37.833 -84 -49.5
s-66 -17.5 -102 -17.5zM298.996 435c-30.667 0 -56.501 -10 -77.501 -30s-34.833 -47.333 -41.5 -82h233c-5.33301 34.667 -18.166 62 -38.499 82s-45.5 30 -75.5 30zM378.995 671c0 -15.333 -3.5 -29 -10.5 -41s-16.667 -21.5 -29 -28.5s-25.833 -10.5 -40.5 -10.5
s-28.167 3.5 -40.5 10.5s-22 16.5 -29 28.5s-10.5 25.667 -10.5 41s3.5 29 10.5 41s16.667 21.5 29 28.5s25.833 10.5 40.5 10.5s28.167 -3.5 40.5 -10.5s22 -16.5 29 -28.5s10.5 -25.667 10.5 -41z" />
    <glyph glyph-name="Eogonek" unicode="&#x118;" horiz-adv-x="574" 
d="M65 0v710h445v-127h-301v-155h269v-127h-269v-174h311v-127h-455zM439 -226c-36 0 -64.666 8.33105 -85.999 24.998s-32 38.667 -32 66c0 26 10 52 30 78s51.333 53.333 94 82l76 -25c-30.667 -22.667 -52.834 -42.167 -66.501 -58.5s-20.5 -30.166 -20.5 -41.499
c0 -9.33301 3.5 -16.833 10.5 -22.5s16.167 -8.5 27.5 -8.5c7.33301 0 15.333 0.833008 24 2.5s16 3.83398 22 6.50098l12 -87c-16 -5.33301 -31.5 -9.5 -46.5 -12.5s-29.833 -4.5 -44.5 -4.5z" />
    <glyph glyph-name="eogonek" unicode="&#x119;" horiz-adv-x="588" 
d="M306 -15c-39.333 0 -75.5039 6.83301 -108.504 20.5s-61.5 33 -85.5 58s-42.667 54.667 -56 89s-20 71.833 -20 112.5c0 39.333 6.66699 76 20 110s31.833 63.5 55.5 88.5s51.5 44.5 83.5 58.5s66.667 21 104 21c38.667 0 73.834 -6.66699 105.501 -20
s58.834 -32.333 81.501 -57s40.167 -54 52.5 -88s18.5 -72 18.5 -114v-35h-379c6 -39.333 20.333 -70.166 43 -92.499s51.334 -33.5 86.001 -33.5c24 0 45.833 5.66699 65.5 17s35.834 27.666 48.501 48.999l125 -40c-12 -30 -30 -55.667 -54 -77s-52 -37.833 -84 -49.5
s-66 -17.5 -102 -17.5zM298.996 435c-30.667 0 -56.501 -10 -77.501 -30s-34.833 -47.333 -41.5 -82h233c-5.33301 34.667 -18.166 62 -38.499 82s-45.5 30 -75.5 30zM398.995 -223c-36.667 0 -65.666 8.49805 -86.999 25.498s-32 39.5 -32 67.5
c0 26.667 10 53.834 30 81.501s51.667 57.167 95 88.5l85 14c-35.333 -34.667 -61 -63.667 -77 -87s-24 -43.333 -24 -60c0 -12 3.66699 -21.333 11 -28s17.666 -10 30.999 -10c7.33301 0 14.833 0.833008 22.5 2.5s14.167 3.83398 19.5 6.50098l12 -83
c-28 -12 -56.667 -18 -86 -18z" />
    <glyph glyph-name="Ecaron" unicode="&#x11a;" horiz-adv-x="574" 
d="M65 0v710h445v-127h-301v-155h269v-127h-269v-174h311v-127h-455zM220 784l-147 133h142l74 -59l75 59h138l-147 -133h-135z" />
    <glyph glyph-name="ecaron" unicode="&#x11b;" horiz-adv-x="588" 
d="M306 -15c-39.333 0 -75.5039 6.83301 -108.504 20.5s-61.5 33 -85.5 58s-42.667 54.667 -56 89s-20 71.833 -20 112.5c0 39.333 6.66699 76 20 110s31.833 63.5 55.5 88.5s51.5 44.5 83.5 58.5s66.667 21 104 21c38.667 0 73.834 -6.66699 105.501 -20
s58.834 -32.333 81.501 -57s40.167 -54 52.5 -88s18.5 -72 18.5 -114v-35h-379c6 -39.333 20.333 -70.166 43 -92.499s51.334 -33.5 86.001 -33.5c24 0 45.833 5.66699 65.5 17s35.834 27.666 48.501 48.999l125 -40c-12 -30 -30 -55.667 -54 -77s-52 -37.833 -84 -49.5
s-66 -17.5 -102 -17.5zM298.996 435c-30.667 0 -56.501 -10 -77.501 -30s-34.833 -47.333 -41.5 -82h233c-5.33301 34.667 -18.166 62 -38.499 82s-45.5 30 -75.5 30zM243.995 603l-133 143h124l66 -62l67 62h120l-133 -143h-111z" />
    <glyph glyph-name="Gbreve" unicode="&#x11e;" horiz-adv-x="794" 
d="M408 -20c-42 0 -81.502 6 -118.502 18s-70.667 29.167 -101 51.5s-56.333 48.833 -78 79.5s-38.5 64.834 -50.5 102.501s-18 78.167 -18 121.5s6 84 18 122s29 72.667 51 104s48.333 58.166 79 80.499s64.5 39.666 101.5 51.999s76.5 18.5 118.5 18.5
c47.333 0 91.333 -7.66699 132 -23s76.5 -37.333 107.5 -66s55.167 -63.334 72.5 -104.001l-144 -44c-18 32 -41.167 56.667 -69.5 74s-61.166 26 -98.499 26c-30.667 0 -59 -5.83301 -85 -17.5s-48.667 -28.334 -68 -50.001s-34.333 -46.834 -45 -75.501s-16 -60 -16 -94
c0 -34.667 5.33301 -66.667 16 -96s25.834 -54.666 45.501 -75.999s42.834 -37.833 69.501 -49.5s56 -17.5 88 -17.5c34 0 64.333 6.33301 91 19s48.334 30.334 65.001 53.001s27 49.334 31 80.001h-177v123h330v-75c0 -49.333 -8.5 -94.666 -25.5 -135.999
s-40.833 -77 -71.5 -107s-67.334 -53.167 -110.001 -69.5s-89.334 -24.5 -140.001 -24.5zM415.998 779c-32 0 -61.167 5.83301 -87.5 17.5s-48 28.5 -65 50.5s-27.833 47.667 -32.5 77h110c4.66699 -18.667 13.667 -33.167 27 -43.5s29.333 -15.5 48 -15.5
s34.667 5.16699 48 15.5s22.333 24.833 27 43.5h110c-4.66699 -29.333 -15.5 -55 -32.5 -77s-38.667 -38.833 -65 -50.5s-55.5 -17.5 -87.5 -17.5z" />
    <glyph glyph-name="gbreve" unicode="&#x11f;" horiz-adv-x="629" 
d="M273 15c-33.333 0 -64.5029 6.66504 -93.5029 19.998s-54.167 31.833 -75.5 55.5s-38 51.334 -50 83.001s-18 65.834 -18 102.501c0 38 6.16699 73.167 18.5 105.5s29.666 60.5 51.999 84.5s48.333 42.833 78 56.5s61.834 20.5 96.501 20.5
c34 0 64.667 -6.83301 92 -20.5s50 -33.5 68 -59.5l3 65h129v-465c0 -40.667 -6.5 -77.667 -19.5 -111s-31.5 -62 -55.5 -86s-52.5 -42.5 -85.5 -55.5s-69.5 -19.5 -109.5 -19.5c-39.333 0 -74.666 6.16699 -105.999 18.5s-58.666 29.5 -81.999 51.5
s-41.666 47.667 -54.999 77l134 33c12 -19.333 27.5 -34.5 46.5 -45.5s40.5 -16.5 64.5 -16.5c26 0 48.5 5.83301 67.5 17.5s33.833 28 44.5 49s16 45.5 16 73.5v43c-18 -24 -40.833 -42.833 -68.5 -56.5s-58.167 -20.5 -91.5 -20.5zM306.997 138.998
c24.667 0 46.5 6.16699 65.5 18.5s34.167 29 45.5 50s17 44.833 17 71.5s-5.66699 50.5 -17 71.5s-26.5 37.667 -45.5 50s-40.833 18.5 -65.5 18.5s-46.5 -6.16699 -65.5 -18.5s-34.167 -29 -45.5 -50s-17 -44.833 -17 -71.5s5.66699 -50.5 17 -71.5s26.5 -37.667 45.5 -50
s40.833 -18.5 65.5 -18.5zM302.997 600.998c-30.667 0 -57.999 5.66699 -81.999 17s-43.833 27.333 -59.5 48s-25.834 45 -30.501 73h104c4 -18 12 -31.667 24 -41s26.667 -14 44 -14s31.833 4.66699 43.5 14s19.834 23 24.501 41h104
c-4.66699 -28 -14.834 -52.333 -30.501 -73s-35.5 -36.667 -59.5 -48s-51.333 -17 -82 -17z" />
    <glyph glyph-name="Gdotaccent" unicode="&#x120;" horiz-adv-x="794" 
d="M408 -20c-42 0 -81.502 6 -118.502 18s-70.667 29.167 -101 51.5s-56.333 48.833 -78 79.5s-38.5 64.834 -50.5 102.501s-18 78.167 -18 121.5s6 84 18 122s29 72.667 51 104s48.333 58.166 79 80.499s64.5 39.666 101.5 51.999s76.5 18.5 118.5 18.5
c47.333 0 91.333 -7.66699 132 -23s76.5 -37.333 107.5 -66s55.167 -63.334 72.5 -104.001l-144 -44c-18 32 -41.167 56.667 -69.5 74s-61.166 26 -98.499 26c-30.667 0 -59 -5.83301 -85 -17.5s-48.667 -28.334 -68 -50.001s-34.333 -46.834 -45 -75.501s-16 -60 -16 -94
c0 -34.667 5.33301 -66.667 16 -96s25.834 -54.666 45.501 -75.999s42.834 -37.833 69.501 -49.5s56 -17.5 88 -17.5c34 0 64.333 6.33301 91 19s48.334 30.334 65.001 53.001s27 49.334 31 80.001h-177v123h330v-75c0 -49.333 -8.5 -94.666 -25.5 -135.999
s-40.833 -77 -71.5 -107s-67.334 -53.167 -110.001 -69.5s-89.334 -24.5 -140.001 -24.5zM415.998 773c-16 0 -30.167 3.66699 -42.5 11s-22.166 17.166 -29.499 29.499s-11 26.166 -11 41.499s3.66699 29.166 11 41.499s17.166 22.166 29.499 29.499s26.5 11 42.5 11
s30.167 -3.66699 42.5 -11s22.166 -17.166 29.499 -29.499s11 -26.166 11 -41.499s-3.66699 -29.166 -11 -41.499s-17.166 -22.166 -29.499 -29.499s-26.5 -11 -42.5 -11z" />
    <glyph glyph-name="gdotaccent" unicode="&#x121;" horiz-adv-x="629" 
d="M273 15c-33.333 0 -64.5029 6.66504 -93.5029 19.998s-54.167 31.833 -75.5 55.5s-38 51.334 -50 83.001s-18 65.834 -18 102.501c0 38 6.16699 73.167 18.5 105.5s29.666 60.5 51.999 84.5s48.333 42.833 78 56.5s61.834 20.5 96.501 20.5
c34 0 64.667 -6.83301 92 -20.5s50 -33.5 68 -59.5l3 65h129v-465c0 -40.667 -6.5 -77.667 -19.5 -111s-31.5 -62 -55.5 -86s-52.5 -42.5 -85.5 -55.5s-69.5 -19.5 -109.5 -19.5c-39.333 0 -74.666 6.16699 -105.999 18.5s-58.666 29.5 -81.999 51.5
s-41.666 47.667 -54.999 77l134 33c12 -19.333 27.5 -34.5 46.5 -45.5s40.5 -16.5 64.5 -16.5c26 0 48.5 5.83301 67.5 17.5s33.833 28 44.5 49s16 45.5 16 73.5v43c-18 -24 -40.833 -42.833 -68.5 -56.5s-58.167 -20.5 -91.5 -20.5zM306.997 138.998
c24.667 0 46.5 6.16699 65.5 18.5s34.167 29 45.5 50s17 44.833 17 71.5s-5.66699 50.5 -17 71.5s-26.5 37.667 -45.5 50s-40.833 18.5 -65.5 18.5s-46.5 -6.16699 -65.5 -18.5s-34.167 -29 -45.5 -50s-17 -44.833 -17 -71.5s5.66699 -50.5 17 -71.5s26.5 -37.667 45.5 -50
s40.833 -18.5 65.5 -18.5zM382.997 670.998c0 -15.333 -3.5 -29 -10.5 -41s-16.667 -21.5 -29 -28.5s-25.833 -10.5 -40.5 -10.5s-28.167 3.5 -40.5 10.5s-22 16.5 -29 28.5s-10.5 25.667 -10.5 41s3.5 29 10.5 41s16.667 21.5 29 28.5s25.833 10.5 40.5 10.5
s28.167 -3.5 40.5 -10.5s22 -16.5 29 -28.5s10.5 -25.667 10.5 -41z" />
    <glyph glyph-name="uni0122" unicode="&#x122;" horiz-adv-x="794" 
d="M408 -20c-42 0 -81.502 6 -118.502 18s-70.667 29.167 -101 51.5s-56.333 48.833 -78 79.5s-38.5 64.834 -50.5 102.501s-18 78.167 -18 121.5s6 84 18 122s29 72.667 51 104s48.333 58.166 79 80.499s64.5 39.666 101.5 51.999s76.5 18.5 118.5 18.5
c47.333 0 91.333 -7.66699 132 -23s76.5 -37.333 107.5 -66s55.167 -63.334 72.5 -104.001l-144 -44c-18 32 -41.167 56.667 -69.5 74s-61.166 26 -98.499 26c-30.667 0 -59 -5.83301 -85 -17.5s-48.667 -28.334 -68 -50.001s-34.333 -46.834 -45 -75.501s-16 -60 -16 -94
c0 -34.667 5.33301 -66.667 16 -96s25.834 -54.666 45.501 -75.999s42.834 -37.833 69.501 -49.5s56 -17.5 88 -17.5c34 0 64.333 6.33301 91 19s48.334 30.334 65.001 53.001s27 49.334 31 80.001h-177v123h330v-75c0 -49.333 -8.5 -94.666 -25.5 -135.999
s-40.833 -77 -71.5 -107s-67.334 -53.167 -110.001 -69.5s-89.334 -24.5 -140.001 -24.5zM378.998 -278l-23 57.0039c15.333 6 28 13.333 38 22s16.333 17.667 19 27c-5.33301 -2.66699 -11.666 -4 -18.999 -4c-15.333 0 -28.333 5.33301 -39 16s-16 23.667 -16 39
c0 17.333 6.66699 31.666 20 42.999s29.666 17 48.999 17c16 0 30 -3.83301 42 -11.5s21.5 -17.834 28.5 -30.501s10.5 -27.334 10.5 -44.001c0 -29.333 -9.66699 -55.833 -29 -79.5s-46.333 -40.834 -81 -51.501z" />
    <glyph glyph-name="uni0123" unicode="&#x123;" horiz-adv-x="629" 
d="M273 15c-33.333 0 -64.5029 6.66504 -93.5029 19.998s-54.167 31.833 -75.5 55.5s-38 51.334 -50 83.001s-18 65.834 -18 102.501c0 38 6.16699 73.167 18.5 105.5s29.666 60.5 51.999 84.5s48.333 42.833 78 56.5s61.834 20.5 96.501 20.5
c34 0 64.667 -6.83301 92 -20.5s50 -33.5 68 -59.5l3 65h129v-465c0 -40.667 -6.5 -77.667 -19.5 -111s-31.5 -62 -55.5 -86s-52.5 -42.5 -85.5 -55.5s-69.5 -19.5 -109.5 -19.5c-39.333 0 -74.666 6.16699 -105.999 18.5s-58.666 29.5 -81.999 51.5
s-41.666 47.667 -54.999 77l134 33c12 -19.333 27.5 -34.5 46.5 -45.5s40.5 -16.5 64.5 -16.5c26 0 48.5 5.83301 67.5 17.5s33.833 28 44.5 49s16 45.5 16 73.5v43c-18 -24 -40.833 -42.833 -68.5 -56.5s-58.167 -20.5 -91.5 -20.5zM306.997 138.998
c24.667 0 46.5 6.16699 65.5 18.5s34.167 29 45.5 50s17 44.833 17 71.5s-5.66699 50.5 -17 71.5s-26.5 37.667 -45.5 50s-40.833 18.5 -65.5 18.5s-46.5 -6.16699 -65.5 -18.5s-34.167 -29 -45.5 -50s-17 -44.833 -17 -71.5s5.66699 -50.5 17 -71.5s26.5 -37.667 45.5 -50
s40.833 -18.5 65.5 -18.5zM309.997 580.998c-15.333 0 -29.001 3.66602 -41.001 10.999s-21.333 17.5 -28 30.5s-10 27.5 -10 43.5c0 29.333 9.33301 55.333 28 78s44.667 39.667 78 51l23 -57c-14 -5.33301 -25.833 -12.333 -35.5 -21s-16.167 -18 -19.5 -28
c5.33301 2.66699 11.333 4 18 4c14.667 0 27.167 -5.16699 37.5 -15.5s15.5 -23.166 15.5 -38.499c0 -16.667 -6.16699 -30.5 -18.5 -41.5s-28.166 -16.5 -47.499 -16.5z" />
    <glyph glyph-name="Hbar" unicode="&#x126;" horiz-adv-x="763" 
d="M75 0v525h-78v102h78v83h149v-83h314v83h149v-83h79v-102h-79v-525h-149v291h-314v-291h-149zM224 423h314v102h-314v-102z" />
    <glyph glyph-name="hbar" unicode="&#x127;" 
d="M56 0v588.001h-70v92h70v66h140v-66h134v-92h-134v-123c16 22.667 36.667 40.5 62 53.5s54.333 19.5 87 19.5c38.667 0 72.5 -9.33301 101.5 -28s51.5 -44.834 67.5 -78.501s24 -73.5 24 -119.5v-312h-140v293c0 36.667 -8.33301 65.5 -25 86.5s-39.667 31.5 -69 31.5
c-21.333 0 -40 -4.83301 -56 -14.5s-28.667 -23.167 -38 -40.5s-14 -37 -14 -59v-297h-140z" />
    <glyph glyph-name="Itilde" unicode="&#x128;" horiz-adv-x="279" 
d="M65 0v710h149v-710h-149zM212 780c-16.667 0 -31.4971 2.50098 -44.4971 7.50098s-24.833 10.833 -35.5 17.5s-20.667 12.5 -30 17.5s-18.666 7.5 -27.999 7.5c-10.667 0 -19.334 -3.83301 -26.001 -11.5s-11.334 -18.5 -14.001 -32.5h-92
c3.33301 29.333 10.666 55 21.999 77s25.833 38.833 43.5 50.5s37.834 17.5 60.501 17.5c16 0 30.5 -2.5 43.5 -7.5s24.833 -10.833 35.5 -17.5s20.667 -12.5 30 -17.5s18.666 -7.5 27.999 -7.5c10 0 18.5 3.83301 25.5 11.5s11.833 18.5 14.5 32.5h92
c-2.66699 -30 -9.66699 -55.833 -21 -77.5s-25.833 -38.334 -43.5 -50.001s-37.834 -17.5 -60.501 -17.5z" />
    <glyph glyph-name="itilde" unicode="&#x129;" horiz-adv-x="252" 
d="M56 0v528h140v-528h-140zM191 599c-14.667 0 -27.667 2.33301 -39 7s-21.833 10.167 -31.5 16.5s-18.5 11.833 -26.5 16.5s-15.667 7 -23 7c-8 0 -15 -3.66699 -21 -11s-10 -17.666 -12 -30.999h-87c4.66699 44 16.667 78.333 36 103s43.666 37 72.999 37
c14.667 0 27.667 -2.33301 39 -7s21.833 -10.167 31.5 -16.5s18.5 -11.833 26.5 -16.5s15.667 -7 23 -7c8 0 15 3.66699 21 11s10 17.666 12 30.999h87c-4.66699 -44 -16.667 -78.333 -36 -103s-43.666 -37 -72.999 -37z" />
    <glyph glyph-name="Imacron" unicode="&#x12a;" horiz-adv-x="279" 
d="M65 0v710h149v-710h-149zM-43 789v100h364v-100h-364z" />
    <glyph glyph-name="imacron" unicode="&#x12b;" horiz-adv-x="252" 
d="M56 0v528h140v-528h-140zM-34 609v94h318v-94h-318z" />
    <glyph glyph-name="Iogonek" unicode="&#x12e;" horiz-adv-x="279" 
d="M65 0v710h149v-710h-149zM132 -226c-36 0 -64.666 8.33105 -85.999 24.998s-32 38.667 -32 66c0 26 10 52 30 78s51.333 53.333 94 82l76 -25c-30.667 -22.667 -52.834 -42.167 -66.501 -58.5s-20.5 -30.166 -20.5 -41.499c0 -9.33301 3.5 -16.833 10.5 -22.5
s16.167 -8.5 27.5 -8.5c7.33301 0 15.333 0.833008 24 2.5s16 3.83398 22 6.50098l12 -87c-16 -5.33301 -31.5 -9.5 -46.5 -12.5s-29.833 -4.5 -44.5 -4.5z" />
    <glyph glyph-name="iogonek" unicode="&#x12f;" horiz-adv-x="252" 
d="M206 671c0 -15.333 -3.5 -29 -10.5 -41s-16.667 -21.5 -29 -28.5s-25.833 -10.5 -40.5 -10.5s-28.167 3.5 -40.5 10.5s-22 16.5 -29 28.5s-10.5 25.667 -10.5 41s3.5 29 10.5 41s16.667 21.5 29 28.5s25.833 10.5 40.5 10.5s28.167 -3.5 40.5 -10.5s22 -16.5 29 -28.5
s10.5 -25.667 10.5 -41zM56 0v528h140v-528h-140zM116 -223c-35.333 0 -63.499 8.16602 -84.499 24.499s-31.5 38.166 -31.5 65.499c0 24.667 10 50 30 76s51.333 53.333 94 82l72 -25c-30.667 -22.667 -52.834 -42.167 -66.501 -58.5s-20.5 -30.166 -20.5 -41.499
c0 -9.33301 3.5 -16.833 10.5 -22.5s16.167 -8.5 27.5 -8.5c8 0 16.333 0.833008 25 2.5s15.667 3.83398 21 6.50098l12 -83c-28 -12 -57.667 -18 -89 -18z" />
    <glyph glyph-name="Idotaccent" unicode="&#x130;" horiz-adv-x="279" 
d="M65 0v710h149v-710h-149zM139 773c-16 0 -30.167 3.66699 -42.5 11s-22.166 17.166 -29.499 29.499s-11 26.166 -11 41.499s3.66699 29.166 11 41.499s17.166 22.166 29.499 29.499s26.5 11 42.5 11s30.167 -3.66699 42.5 -11s22.166 -17.166 29.499 -29.499
s11 -26.166 11 -41.499s-3.66699 -29.166 -11 -41.499s-17.166 -22.166 -29.499 -29.499s-26.5 -11 -42.5 -11z" />
    <glyph glyph-name="dotlessi" unicode="&#x131;" horiz-adv-x="252" 
d="M56 0v528h140v-528h-140z" />
    <glyph glyph-name="IJ" unicode="&#x132;" horiz-adv-x="698" 
d="M55 307v403h149v-403h-149zM350 -20c-48 0 -91.833 8.16797 -131.5 24.501s-73.334 40.166 -101.001 71.499s-47.834 69 -60.501 113l143 26c13.333 -31.333 32.333 -55.5 57 -72.5s53.334 -25.5 86.001 -25.5c30.667 0 57.334 7.16699 80.001 21.5
s40.167 34.5 52.5 60.5s18.5 57 18.5 93v418h149v-419c0 -47.333 -6.83301 -90 -20.5 -128s-33.5 -70.667 -59.5 -98s-57 -48.333 -93 -63s-76 -22 -120 -22z" />
    <glyph glyph-name="ij" unicode="&#x133;" 
d="M206 671c0 -15.333 -3.5 -29 -10.5 -41s-16.667 -21.5 -29 -28.5s-25.833 -10.5 -40.5 -10.5s-28.167 3.5 -40.5 10.5s-22 16.5 -29 28.5s-10.5 25.667 -10.5 41s3.5 29 10.5 41s16.667 21.5 29 28.5s25.833 10.5 40.5 10.5s28.167 -3.5 40.5 -10.5s22 -16.5 29 -28.5
s10.5 -25.667 10.5 -41zM548 671c0 -15.333 -3.5 -29 -10.5 -41s-16.667 -21.5 -29 -28.5s-25.833 -10.5 -40.5 -10.5s-28.167 3.5 -40.5 10.5s-22 16.5 -29 28.5s-10.5 25.667 -10.5 41s3.5 29 10.5 41s16.667 21.5 29 28.5s25.833 10.5 40.5 10.5s28.167 -3.5 40.5 -10.5
s22 -16.5 29 -28.5s10.5 -25.667 10.5 -41zM250 15c-39.333 0 -73.5 9.16797 -102.5 27.501s-51.5 44.5 -67.5 78.5s-24 74 -24 120v287h140v-268c0 -37.333 8.33301 -66.333 25 -87s39.667 -31 69 -31c21.333 0 40 5 56 15s28.667 23.5 38 40.5s14 36.5 14 58.5v272h140
v-479c0 -39.333 -6 -74.666 -18 -105.999s-29 -58.333 -51 -81s-48.333 -40.167 -79 -52.5s-64.667 -18.5 -102 -18.5c-34.667 0 -66.834 5.66699 -96.501 17s-55.667 27.5 -78 48.5s-39.833 46.167 -52.5 75.5l129 34c10.667 -18 24.5 -32 41.5 -42s35.167 -15 54.5 -15
c22.667 0 42.334 5.16699 59.001 15.5s29.667 25.166 39 44.499s14 41.666 14 66.999v52c-16 -22.667 -36.667 -40.5 -62 -53.5s-54 -19.5 -86 -19.5z" />
    <glyph glyph-name="uni0136" unicode="&#x136;" horiz-adv-x="696" 
d="M65 0v710h149v-315l263 315h174l-284 -331l320 -379h-193l-280 344v-344h-149zM311 -278l-23 57.0039c15.333 6 28 13.333 38 22s16.333 17.667 19 27c-5.33301 -2.66699 -11.666 -4 -18.999 -4c-15.333 0 -28.333 5.33301 -39 16s-16 23.667 -16 39
c0 17.333 6.66699 31.666 20 42.999s29.666 17 48.999 17c16 0 30 -3.83301 42 -11.5s21.5 -17.834 28.5 -30.501s10.5 -27.334 10.5 -44.001c0 -29.333 -9.66699 -55.833 -29 -79.5s-46.333 -40.834 -81 -51.501z" />
    <glyph glyph-name="uni0137" unicode="&#x137;" horiz-adv-x="581" 
d="M56 0v746h137v-433l196 215h164l-220 -234l244 -294h-177l-207 263v-263h-137zM257 -267l-23.001 57.001c14 5.33301 25.833 12.333 35.5 21s16.167 18 19.5 28c-5.33301 -2.66699 -11.333 -4 -18 -4c-15.333 0 -28 5.16699 -38 15.5s-15 23.166 -15 38.499
c0 16.667 6.33301 30.5 19 41.5s28.334 16.5 47.001 16.5c15.333 0 29 -3.66699 41 -11s21.333 -17.5 28 -30.5s10 -27.5 10 -43.5c0 -29.333 -9.5 -55.333 -28.5 -78s-44.833 -39.667 -77.5 -51z" />
    <glyph glyph-name="kgreenlandic" unicode="&#x138;" horiz-adv-x="581" 
d="M56 0v528h137v-224l196 224h164l-220 -242l244 -286h-177l-207 254v-254h-137z" />
    <glyph glyph-name="Lacute" unicode="&#x139;" horiz-adv-x="544" 
d="M65 0v710h149v-578h290v-132h-439zM26 784l138 133h176l-169 -133h-145z" />
    <glyph glyph-name="lacute" unicode="&#x13a;" horiz-adv-x="252" 
d="M56 0v746h140v-746h-140zM30 807l114 143h156l-138 -143h-132z" />
    <glyph glyph-name="uni013B" unicode="&#x13b;" horiz-adv-x="544" 
d="M65 0v710h149v-578h290v-132h-439zM249 -278l-23 57.0039c15.333 6 28 13.333 38 22s16.333 17.667 19 27c-5.33301 -2.66699 -11.666 -4 -18.999 -4c-15.333 0 -28.333 5.33301 -39 16s-16 23.667 -16 39c0 17.333 6.66699 31.666 20 42.999s29.666 17 48.999 17
c16 0 30 -3.83301 42 -11.5s21.5 -17.834 28.5 -30.501s10.5 -27.334 10.5 -44.001c0 -29.333 -9.66699 -55.833 -29 -79.5s-46.333 -40.834 -81 -51.501z" />
    <glyph glyph-name="uni013C" unicode="&#x13c;" horiz-adv-x="252" 
d="M56 0v746h140v-746h-140zM92 -267l-23.001 57.001c14 5.33301 25.833 12.333 35.5 21s16.167 18 19.5 28c-5.33301 -2.66699 -11.333 -4 -18 -4c-15.333 0 -28 5.16699 -38 15.5s-15 23.166 -15 38.499c0 16.667 6.33301 30.5 19 41.5s28.334 16.5 47.001 16.5
c15.333 0 29 -3.66699 41 -11s21.333 -17.5 28 -30.5s10 -27.5 10 -43.5c0 -29.333 -9.5 -55.333 -28.5 -78s-44.833 -39.667 -77.5 -51z" />
    <glyph glyph-name="Lcaron" unicode="&#x13d;" horiz-adv-x="544" 
d="M65 0v710h149v-578h290v-132h-439zM281 554l15 192h114l-47 -192h-82z" />
    <glyph glyph-name="lcaron" unicode="&#x13e;" horiz-adv-x="292" 
d="M56 0v746h140v-746h-140zM263 554l15 192h114l-47 -192h-82z" />
    <glyph glyph-name="Lslash" unicode="&#x141;" horiz-adv-x="554" 
d="M75 0v215l-78 -57v133l78 57v362h149v-253l124 90v-133l-124 -90v-192h290v-132h-439z" />
    <glyph glyph-name="lslash" unicode="&#x142;" horiz-adv-x="295" 
d="M78 0v259l-72 -54v120l72 54v367h140v-262l71 53v-120l-71 -53v-364h-140z" />
    <glyph glyph-name="Nacute" unicode="&#x143;" horiz-adv-x="732" 
d="M65 0v710h129l329 -470v470h144v-710h-129l-329 470v-470h-144zM253 784l138 133h176l-169 -133h-145z" />
    <glyph glyph-name="nacute" unicode="&#x144;" 
d="M56 0v528h129l4 -68c15.333 25.333 36.5 45.5 63.5 60.5s57.833 22.5 92.5 22.5c38.667 0 72.5 -9.16699 101.5 -27.5s51.5 -44.5 67.5 -78.5s24 -74 24 -120v-317h-140v299c0 36.667 -8.33301 65.5 -25 86.5s-39.667 31.5 -69 31.5c-21.333 0 -40 -4.83301 -56 -14.5
s-28.667 -23.167 -38 -40.5s-14 -37 -14 -59v-303h-140zM202 603l114 143h156l-138 -143h-132z" />
    <glyph glyph-name="uni0145" unicode="&#x145;" horiz-adv-x="732" 
d="M65 0v710h129l329 -470v470h144v-710h-129l-329 470v-470h-144zM331 -278l-23 57.0039c15.333 6 28 13.333 38 22s16.333 17.667 19 27c-5.33301 -2.66699 -11.666 -4 -18.999 -4c-15.333 0 -28.333 5.33301 -39 16s-16 23.667 -16 39c0 17.333 6.66699 31.666 20 42.999
s29.666 17 48.999 17c16 0 30 -3.83301 42 -11.5s21.5 -17.834 28.5 -30.501s10.5 -27.334 10.5 -44.001c0 -29.333 -9.66699 -55.833 -29 -79.5s-46.333 -40.834 -81 -51.501z" />
    <glyph glyph-name="uni0146" unicode="&#x146;" 
d="M56 0v528h129l4 -68c15.333 25.333 36.5 45.5 63.5 60.5s57.833 22.5 92.5 22.5c38.667 0 72.5 -9.16699 101.5 -27.5s51.5 -44.5 67.5 -78.5s24 -74 24 -120v-317h-140v299c0 36.667 -8.33301 65.5 -25 86.5s-39.667 31.5 -69 31.5c-21.333 0 -40 -4.83301 -56 -14.5
s-28.667 -23.167 -38 -40.5s-14 -37 -14 -59v-303h-140zM264 -267l-23.001 57.001c14 5.33301 25.833 12.333 35.5 21s16.167 18 19.5 28c-5.33301 -2.66699 -11.333 -4 -18 -4c-15.333 0 -28 5.16699 -38 15.5s-15 23.166 -15 38.499c0 16.667 6.33301 30.5 19 41.5
s28.334 16.5 47.001 16.5c15.333 0 29 -3.66699 41 -11s21.333 -17.5 28 -30.5s10 -27.5 10 -43.5c0 -29.333 -9.5 -55.333 -28.5 -78s-44.833 -39.667 -77.5 -51z" />
    <glyph glyph-name="Ncaron" unicode="&#x147;" horiz-adv-x="732" 
d="M65 0v710h129l329 -470v470h144v-710h-129l-329 470v-470h-144zM299 784l-147 133h142l74 -59l75 59h138l-147 -133h-135z" />
    <glyph glyph-name="ncaron" unicode="&#x148;" 
d="M56 0v528h129l4 -68c15.333 25.333 36.5 45.5 63.5 60.5s57.833 22.5 92.5 22.5c38.667 0 72.5 -9.16699 101.5 -27.5s51.5 -44.5 67.5 -78.5s24 -74 24 -120v-317h-140v299c0 36.667 -8.33301 65.5 -25 86.5s-39.667 31.5 -69 31.5c-21.333 0 -40 -4.83301 -56 -14.5
s-28.667 -23.167 -38 -40.5s-14 -37 -14 -59v-303h-140zM242 603l-133 143h124l66 -62l67 62h120l-133 -143h-111z" />
    <glyph glyph-name="Eng" unicode="&#x14a;" horiz-adv-x="732" 
d="M65 0l-0.000976562 710h129l329 -470v470h144v-707c0 -43.333 -8.5 -80.833 -25.5 -112.5s-40.5 -56.167 -70.5 -73.5s-64.333 -26 -103 -26c-26.667 0 -50.667 3.66699 -72 11s-39.666 16 -54.999 26l36 108c9.33301 -5.33301 20.5 -9.83301 33.5 -13.5
s25.167 -5.5 36.5 -5.5c22 0 40.167 7.5 54.5 22.5s21.5 35.833 21.5 62.5v19l-314 449v-470h-144z" />
    <glyph glyph-name="eng" unicode="&#x14b;" 
d="M56 0l0.00195312 528.001h129l4 -68c15.333 25.333 36.5 45.5 63.5 60.5s57.833 22.5 92.5 22.5c38.667 0 72.5 -9.16699 101.5 -27.5s51.5 -44.5 67.5 -78.5s24 -74 24 -120v-336c0 -36.667 -7.16699 -69 -21.5 -97s-34.333 -49.667 -60 -65s-55.834 -23 -90.501 -23
c-18 0 -35.333 2.16699 -52 6.5s-31.667 10.166 -45 17.499l28 108c6 -2.66699 13.167 -5.16699 21.5 -7.5s16.166 -3.5 23.499 -3.5c17.333 0 31 6.33301 41 19s15 30.667 15 54v308c0 37.333 -8.33301 66.333 -25 87s-39.667 31 -69 31c-21.333 0 -40 -5 -56 -15
s-28.667 -23.5 -38 -40.5s-14 -36.5 -14 -58.5v-302h-140z" />
    <glyph glyph-name="Ohungarumlaut" unicode="&#x150;" horiz-adv-x="820" 
d="M409 -20c-42 0 -81.667 6 -119 18s-71.166 29.167 -101.499 51.5s-56.333 49 -78 80s-38.5 65.5 -50.5 103.5s-18 78.333 -18 121s6 83.167 18 121.5s29 73 51 104s48.167 57.667 78.5 80s64.166 39.666 101.499 51.999s77.333 18.5 120 18.5c42 0 81.667 -6 119 -18
s71.166 -29.167 101.499 -51.5s56.333 -49 78 -80s38.5 -65.5 50.5 -103.5s18 -78.333 18 -121s-6 -83.167 -18 -121.5s-29 -73 -51 -104s-48.167 -57.667 -78.5 -80s-64.166 -39.666 -101.499 -51.999s-77.333 -18.5 -120 -18.5zM410 117
c30.667 0 59.167 5.83301 85.5 17.5s49 28.167 68 49.5s33.833 46.5 44.5 75.5s16 60.833 16 95.5s-5.33301 66.5 -16 95.5s-25.5 54.167 -44.5 75.5s-41.667 37.833 -68 49.5s-54.833 17.5 -85.5 17.5s-59.167 -5.83301 -85.5 -17.5s-49 -28.167 -68 -49.5
s-33.833 -46.5 -44.5 -75.5s-16 -60.833 -16 -95.5s5.33301 -66.5 16 -95.5s25.5 -54.167 44.5 -75.5s41.667 -37.833 68 -49.5s54.833 -17.5 85.5 -17.5zM199 784l135 133h162l-166 -133h-131zM426 784l135 133h162l-166 -133h-131z" />
    <glyph glyph-name="ohungarumlaut" unicode="&#x151;" horiz-adv-x="624" 
d="M310 -15c-39.333 0 -75.666 7 -108.999 21s-62.333 33.5 -87 58.5s-43.834 54.5 -57.501 88.5s-20.5 71 -20.5 111s7 76.833 21 110.5s33.5 63.167 58.5 88.5s54.333 45 88 59s70.5 21 110.5 21c39.333 0 75.666 -7 108.999 -21s62.333 -33.5 87 -58.5
s43.834 -54.333 57.501 -88s20.5 -70.5 20.5 -110.5s-7 -77 -21 -111s-33.5 -63.667 -58.5 -89s-54.333 -45 -88 -59s-70.5 -21 -110.5 -21zM312 111c25.333 0 48 6.66699 68 20s35.833 31.5 47.5 54.5s17.5 49.167 17.5 78.5s-5.83301 55.5 -17.5 78.5
s-27.5 41.167 -47.5 54.5s-42.667 20 -68 20s-48 -6.66699 -68 -20s-35.833 -31.5 -47.5 -54.5s-17.5 -49.167 -17.5 -78.5s5.83301 -55.5 17.5 -78.5s27.5 -41.167 47.5 -54.5s42.667 -20 68 -20zM152 603l97 143h132l-121 -143h-108zM337 603l97 143h132l-121 -143h-108z
" />
    <glyph glyph-name="OE" unicode="&#x152;" horiz-adv-x="1029" 
d="M418 0c-56 0 -106.998 8.49902 -152.998 25.499s-85.667 41.167 -119 72.5s-59 68.666 -77 111.999s-27 91.333 -27 144s9.16699 100.834 27.5 144.501s44.166 81.334 77.499 113.001s73.166 56 119.499 73s97.5 25.5 153.5 25.5h545v-127h-291v-155h259v-127h-259v-174
h301v-127h-557zM427.002 131.999h103v446h-103c-47.333 0 -88.333 -9 -123 -27s-61.334 -43.667 -80.001 -77s-28 -73 -28 -119s9.33301 -85.667 28 -119s45.334 -59 80.001 -77s75.667 -27 123 -27z" />
    <glyph glyph-name="oe" unicode="&#x153;" horiz-adv-x="980" 
d="M303 -15c-37.333 0 -72.166 7.00195 -104.499 21.002s-60.666 33.5 -84.999 58.5s-43.333 54.5 -57 88.5s-20.5 70.667 -20.5 110c0 40 6.83301 77 20.5 111s32.834 63.667 57.501 89s53.334 45 86.001 59s67.667 21 105 21c41.333 0 78.666 -8.83301 111.999 -26.5
s61 -41.5 83 -71.5c23.333 30.667 52 54.667 86 72s72.333 26 115 26c36 0 69.167 -6.66699 99.5 -20s56.5 -32.333 78.5 -57s39.167 -54 51.5 -88s18.5 -72 18.5 -114v-35h-369c6 -39.333 19.833 -70.166 41.5 -92.499s49.167 -33.5 82.5 -33.5
c23.333 0 44.166 5.66699 62.499 17s33.833 27.666 46.5 48.999l125 -40c-12 -30 -29.833 -55.667 -53.5 -77s-51 -37.833 -82 -49.5s-63.5 -17.5 -97.5 -17.5c-44 0 -83.667 8.66699 -119 26s-64.333 41.666 -87 72.999c-22.667 -30.667 -50.834 -54.834 -84.501 -72.501
s-70.834 -26.5 -111.501 -26.5zM696 435.002c-29.333 0 -54 -10 -74 -30s-33.333 -47.333 -40 -82h223c-5.33301 34.667 -17.5 62 -36.5 82s-43.167 30 -72.5 30zM307 111.002c24.667 0 46.5 6.66699 65.5 20s34.167 31.5 45.5 54.5s17 49.167 17 78.5
s-5.66699 55.5 -17 78.5s-26.5 41.167 -45.5 54.5s-40.833 20 -65.5 20s-46.5 -6.66699 -65.5 -20s-34.167 -31.5 -45.5 -54.5s-17 -49.167 -17 -78.5s5.66699 -55.5 17 -78.5s26.5 -41.167 45.5 -54.5s40.833 -20 65.5 -20z" />
    <glyph glyph-name="Racute" unicode="&#x154;" horiz-adv-x="631" 
d="M65 0v709.998h228c58 0 108.167 -9.16699 150.5 -27.5s74.833 -44.666 97.5 -78.999s34 -74.833 34 -121.5c0 -27.333 -5 -53.5 -15 -78.5s-24 -47.667 -42 -68s-39.667 -37.166 -65 -50.499l161 -285h-164l-127 246c-12.667 -0.666992 -26.334 -1 -41.001 -1
c-21.333 0 -44.666 2 -69.999 6v-251h-147zM212 583.998l-0.000976562 -209c12.667 -2 25.334 -3.5 38.001 -4.5s26 -1.5 40 -1.5c42.667 0 75.667 9.5 99 28.5s35 45.5 35 79.5s-11.667 60.333 -35 79s-56.333 28 -99 28h-78zM174.999 783.998l138 133h176l-169 -133h-145z
" />
    <glyph glyph-name="racute" unicode="&#x155;" horiz-adv-x="397" 
d="M56 0l0.00195312 528.001h129l5 -80c13.333 28 31.333 49.5 54 64.5s49.334 22.5 80.001 22.5c9.33301 0 18.666 -0.833008 27.999 -2.5s17.666 -3.83398 24.999 -6.50098l-15 -138c-7.33301 2.66699 -14.833 4.5 -22.5 5.5s-15.5 1.5 -23.5 1.5
c-38.667 0 -68.334 -11.833 -89.001 -35.5s-31 -57.167 -31 -100.5v-259h-140zM123.002 603.001l114 143h156l-138 -143h-132z" />
    <glyph glyph-name="Rcaron" unicode="&#x158;" horiz-adv-x="631" 
d="M65 0v709.998h228c58 0 108.167 -9.16699 150.5 -27.5s74.833 -44.666 97.5 -78.999s34 -74.833 34 -121.5c0 -27.333 -5 -53.5 -15 -78.5s-24 -47.667 -42 -68s-39.667 -37.166 -65 -50.499l161 -285h-164l-127 246c-12.667 -0.666992 -26.334 -1 -41.001 -1
c-21.333 0 -44.666 2 -69.999 6v-251h-147zM212 583.998l-0.000976562 -209c12.667 -2 25.334 -3.5 38.001 -4.5s26 -1.5 40 -1.5c42.667 0 75.667 9.5 99 28.5s35 45.5 35 79.5s-11.667 60.333 -35 79s-56.333 28 -99 28h-78zM220.999 783.998l-147 133h142l74 -59l75 59
h138l-147 -133h-135z" />
    <glyph glyph-name="rcaron" unicode="&#x159;" horiz-adv-x="397" 
d="M56 0l0.00195312 528.001h129l5 -80c13.333 28 31.333 49.5 54 64.5s49.334 22.5 80.001 22.5c9.33301 0 18.666 -0.833008 27.999 -2.5s17.666 -3.83398 24.999 -6.50098l-15 -138c-7.33301 2.66699 -14.833 4.5 -22.5 5.5s-15.5 1.5 -23.5 1.5
c-38.667 0 -68.334 -11.833 -89.001 -35.5s-31 -57.167 -31 -100.5v-259h-140zM163.002 603.001l-133 143h124l66 -62l67 62h120l-133 -143h-111z" />
    <glyph glyph-name="Sacute" unicode="&#x15a;" horiz-adv-x="573" 
d="M284 -15c-42.667 0 -81.8359 7.49414 -117.503 22.4941s-66 36.333 -91 64s-42.167 60.834 -51.5 99.501l139 30c8.66699 -27.333 23.834 -48.666 45.501 -63.999s47.5 -23 77.5 -23c21.333 0 40.166 3.83301 56.499 11.5s29 18.167 38 31.5s13.5 28.666 13.5 45.999
c0 22 -8.33301 39.833 -25 53.5s-43.667 24.834 -81 33.501l-32 7c-73.333 16 -127.333 41.833 -162 77.5s-52 79.167 -52 130.5c0 32 6.33301 61.333 19 88s30.167 49.834 52.5 69.501s48.5 35 78.5 46s62.333 16.5 97 16.5c39.333 0 76 -7.33301 110 -22
s62.667 -35.667 86 -63s39 -59.666 47 -96.999l-137 -30c-8 26.667 -21.833 47.167 -41.5 61.5s-42.5 21.5 -68.5 21.5c-18 0 -34.167 -3.5 -48.5 -10.5s-25.666 -16.667 -33.999 -29s-12.5 -26.166 -12.5 -41.499c0 -23.333 9 -41.166 27 -53.499s44.667 -22.5 80 -30.5
l32 -7c72.667 -16 126.5 -41.333 161.5 -76s52.5 -79 52.5 -133c0 -34 -6.5 -65 -19.5 -93s-31.167 -52.333 -54.5 -73s-50.666 -36.5 -81.999 -47.5s-65.666 -16.5 -102.999 -16.5zM174.998 783.994l138 133h176l-169 -133h-145z" />
    <glyph glyph-name="sacute" unicode="&#x15b;" horiz-adv-x="491" 
d="M246 -15c-37.333 0 -71.168 5.99902 -101.501 17.999s-56 29 -77 51s-35.5 48 -43.5 78l126 27c6.66699 -20.667 18.667 -37 36 -49s38 -18 62 -18c22.667 0 41.334 5 56.001 15s22 23.667 22 41c0 14.667 -6.5 26.834 -19.5 36.501s-34.5 17.167 -64.5 22.5l-28 5
c-57.333 10 -100.833 28.667 -130.5 56s-44.5 62 -44.5 104c0 33.333 8.66699 62.833 26 88.5s41.333 45.834 72 60.501s66 22 106 22c35.333 0 67.5 -5.83301 96.5 -17.5s53.167 -28.167 72.5 -49.5s32.666 -47 39.999 -77l-125 -26c-6.66699 20 -17.5 35.667 -32.5 47
s-32.5 17 -52.5 17c-20.667 0 -37.667 -5 -51 -15s-20 -22.667 -20 -38c0 -13.333 6.5 -24.5 19.5 -33.5s35.167 -16.167 66.5 -21.5l28 -5c56.667 -10 100 -28.833 130 -56.5s45 -62.834 45 -105.501c0 -26 -5.16699 -49.667 -15.5 -71s-25.166 -40 -44.499 -56
s-42 -28.333 -68 -37s-54.667 -13 -86 -13zM147.998 602.999l114 143h156l-138 -143h-132z" />
    <glyph glyph-name="Scedilla" unicode="&#x15e;" horiz-adv-x="573" 
d="M284 -15c-42.667 0 -81.8359 7.49414 -117.503 22.4941s-66 36.333 -91 64s-42.167 60.834 -51.5 99.501l139 30c8.66699 -27.333 23.834 -48.666 45.501 -63.999s47.5 -23 77.5 -23c21.333 0 40.166 3.83301 56.499 11.5s29 18.167 38 31.5s13.5 28.666 13.5 45.999
c0 22 -8.33301 39.833 -25 53.5s-43.667 24.834 -81 33.501l-32 7c-73.333 16 -127.333 41.833 -162 77.5s-52 79.167 -52 130.5c0 32 6.33301 61.333 19 88s30.167 49.834 52.5 69.501s48.5 35 78.5 46s62.333 16.5 97 16.5c39.333 0 76 -7.33301 110 -22
s62.667 -35.667 86 -63s39 -59.666 47 -96.999l-137 -30c-8 26.667 -21.833 47.167 -41.5 61.5s-42.5 21.5 -68.5 21.5c-18 0 -34.167 -3.5 -48.5 -10.5s-25.666 -16.667 -33.999 -29s-12.5 -26.166 -12.5 -41.499c0 -23.333 9 -41.166 27 -53.499s44.667 -22.5 80 -30.5
l32 -7c72.667 -16 126.5 -41.333 161.5 -76s52.5 -79 52.5 -133c0 -34 -6.5 -65 -19.5 -93s-31.167 -52.333 -54.5 -73s-50.666 -36.5 -81.999 -47.5s-65.666 -16.5 -102.999 -16.5zM246.998 8.99414h91l-18 -56c20.667 -6.66699 37.334 -18 50.001 -34s19 -34 19 -54
s-5.83301 -37.833 -17.5 -53.5s-28.167 -27.834 -49.5 -36.501s-45.666 -13 -72.999 -13c-15.333 0 -30.166 1.33301 -44.499 4s-28.5 6.66699 -42.5 12l15 77c9.33301 -3.33301 18.666 -5.83301 27.999 -7.5s17.666 -2.5 24.999 -2.5c14 0 25 2.83301 33 8.5
s12 13.167 12 22.5c0 10.667 -5.33301 18.834 -16 24.501s-26.334 8.5 -47.001 8.5z" />
    <glyph glyph-name="scedilla" unicode="&#x15f;" horiz-adv-x="491" 
d="M246 -15c-37.333 0 -71.168 5.99902 -101.501 17.999s-56 29 -77 51s-35.5 48 -43.5 78l126 27c6.66699 -20.667 18.667 -37 36 -49s38 -18 62 -18c22.667 0 41.334 5 56.001 15s22 23.667 22 41c0 14.667 -6.5 26.834 -19.5 36.501s-34.5 17.167 -64.5 22.5l-28 5
c-57.333 10 -100.833 28.667 -130.5 56s-44.5 62 -44.5 104c0 33.333 8.66699 62.833 26 88.5s41.333 45.834 72 60.501s66 22 106 22c35.333 0 67.5 -5.83301 96.5 -17.5s53.167 -28.167 72.5 -49.5s32.666 -47 39.999 -77l-125 -26c-6.66699 20 -17.5 35.667 -32.5 47
s-32.5 17 -52.5 17c-20.667 0 -37.667 -5 -51 -15s-20 -22.667 -20 -38c0 -13.333 6.5 -24.5 19.5 -33.5s35.167 -16.167 66.5 -21.5l28 -5c56.667 -10 100 -28.833 130 -56.5s45 -62.834 45 -105.501c0 -26 -5.16699 -49.667 -15.5 -71s-25.166 -40 -44.499 -56
s-42 -28.333 -68 -37s-54.667 -13 -86 -13zM208.998 10.999h87.002l-17 -52c21.333 -6.66699 38.166 -17.5 50.499 -32.5s18.5 -32.5 18.5 -52.5s-5.83301 -37.5 -17.5 -52.5s-28 -26.667 -49 -35s-44.833 -12.5 -71.5 -12.5c-28.667 0 -56 5 -82 15l14 74
c10 -3.33301 19.5 -5.83301 28.5 -7.5s16.833 -2.5 23.5 -2.5c13.333 0 24.166 2.83301 32.499 8.5s12.5 13.167 12.5 22.5c0 22 -21 33 -63 33z" />
    <glyph glyph-name="Scaron" unicode="&#x160;" horiz-adv-x="573" 
d="M284 -15c-42.667 0 -81.8359 7.49414 -117.503 22.4941s-66 36.333 -91 64s-42.167 60.834 -51.5 99.501l139 30c8.66699 -27.333 23.834 -48.666 45.501 -63.999s47.5 -23 77.5 -23c21.333 0 40.166 3.83301 56.499 11.5s29 18.167 38 31.5s13.5 28.666 13.5 45.999
c0 22 -8.33301 39.833 -25 53.5s-43.667 24.834 -81 33.501l-32 7c-73.333 16 -127.333 41.833 -162 77.5s-52 79.167 -52 130.5c0 32 6.33301 61.333 19 88s30.167 49.834 52.5 69.501s48.5 35 78.5 46s62.333 16.5 97 16.5c39.333 0 76 -7.33301 110 -22
s62.667 -35.667 86 -63s39 -59.666 47 -96.999l-137 -30c-8 26.667 -21.833 47.167 -41.5 61.5s-42.5 21.5 -68.5 21.5c-18 0 -34.167 -3.5 -48.5 -10.5s-25.666 -16.667 -33.999 -29s-12.5 -26.166 -12.5 -41.499c0 -23.333 9 -41.166 27 -53.499s44.667 -22.5 80 -30.5
l32 -7c72.667 -16 126.5 -41.333 161.5 -76s52.5 -79 52.5 -133c0 -34 -6.5 -65 -19.5 -93s-31.167 -52.333 -54.5 -73s-50.666 -36.5 -81.999 -47.5s-65.666 -16.5 -102.999 -16.5zM220.998 783.994l-147 133h142l74 -59l75 59h138l-147 -133h-135z" />
    <glyph glyph-name="scaron" unicode="&#x161;" horiz-adv-x="491" 
d="M246 -15c-37.333 0 -71.168 5.99902 -101.501 17.999s-56 29 -77 51s-35.5 48 -43.5 78l126 27c6.66699 -20.667 18.667 -37 36 -49s38 -18 62 -18c22.667 0 41.334 5 56.001 15s22 23.667 22 41c0 14.667 -6.5 26.834 -19.5 36.501s-34.5 17.167 -64.5 22.5l-28 5
c-57.333 10 -100.833 28.667 -130.5 56s-44.5 62 -44.5 104c0 33.333 8.66699 62.833 26 88.5s41.333 45.834 72 60.501s66 22 106 22c35.333 0 67.5 -5.83301 96.5 -17.5s53.167 -28.167 72.5 -49.5s32.666 -47 39.999 -77l-125 -26c-6.66699 20 -17.5 35.667 -32.5 47
s-32.5 17 -52.5 17c-20.667 0 -37.667 -5 -51 -15s-20 -22.667 -20 -38c0 -13.333 6.5 -24.5 19.5 -33.5s35.167 -16.167 66.5 -21.5l28 -5c56.667 -10 100 -28.833 130 -56.5s45 -62.834 45 -105.501c0 -26 -5.16699 -49.667 -15.5 -71s-25.166 -40 -44.499 -56
s-42 -28.333 -68 -37s-54.667 -13 -86 -13zM187.998 602.999l-133 143h124l66 -62l67 62h120l-133 -143h-111z" />
    <glyph glyph-name="Tcaron" unicode="&#x164;" horiz-adv-x="631" 
d="M241 0v578h-200v132h549v-132h-200v-578h-149zM248 784l-147 133h142l74 -59l75 59h138l-147 -133h-135z" />
    <glyph glyph-name="tcaron" unicode="&#x165;" horiz-adv-x="438" 
d="M285 -15c-36.667 0 -68.1689 7.16992 -94.502 21.5029s-46.666 35.166 -60.999 62.499s-21.5 60.666 -21.5 99.999v246h-90v113h90v180h140v-180h144v-113h-144v-229c0 -25.333 5.33301 -44.833 16 -58.5s27 -20.5 49 -20.5c11.333 0 23.5 1.66699 36.5 5
s25.5 7.66602 37.5 12.999l25 -105c-17.333 -10.667 -36.666 -19.167 -57.999 -25.5s-44.333 -9.5 -69 -9.5zM324.998 593.003l12 153h114l-44 -153h-82z" />
    <glyph glyph-name="Tbar" unicode="&#x166;" horiz-adv-x="631" 
d="M241 0v270h-123v114h123v194h-200v132h549v-132h-200v-194h123v-114h-123v-270h-149z" />
    <glyph glyph-name="tbar" unicode="&#x167;" horiz-adv-x="438" 
d="M28 231l-0.00195312 92.0029h80v92h-90v113h90v180h140v-180h144v-113h-144v-92h134v-92h-134v-45c0 -25.333 5.33301 -44.833 16 -58.5s27 -20.5 49 -20.5c11.333 0 23.5 1.66699 36.5 5s25.5 7.66602 37.5 12.999l25 -105
c-17.333 -10.667 -36.666 -19.167 -57.999 -25.5s-44.333 -9.5 -69 -9.5c-36.667 0 -68.167 7.16699 -94.5 21.5s-46.666 35.166 -60.999 62.499s-21.5 60.666 -21.5 99.999v62h-80z" />
    <glyph glyph-name="Utilde" unicode="&#x168;" horiz-adv-x="722" 
d="M360 -20c-46.667 0 -88.667 7.16699 -126 21.5s-69.333 35 -96 62s-47.167 59.333 -61.5 97s-21.5 79.834 -21.5 126.501v423h149v-416c0 -36 6.33301 -67.333 19 -94s30.834 -47.167 54.501 -61.5s51.5 -21.5 83.5 -21.5s59.667 7.16699 83 21.5s41.5 34.833 54.5 61.5
s19.5 58 19.5 94v416h149v-423c0 -46.667 -7.16699 -88.834 -21.5 -126.501s-35 -70 -62 -97s-59.333 -47.667 -97 -62s-79.834 -21.5 -126.501 -21.5zM434 780c-16.667 0 -31.4971 2.50098 -44.4971 7.50098s-24.833 10.833 -35.5 17.5s-20.667 12.5 -30 17.5
s-18.666 7.5 -27.999 7.5c-10.667 0 -19.334 -3.83301 -26.001 -11.5s-11.334 -18.5 -14.001 -32.5h-92c3.33301 29.333 10.666 55 21.999 77s25.833 38.833 43.5 50.5s37.834 17.5 60.501 17.5c16 0 30.5 -2.5 43.5 -7.5s24.833 -10.833 35.5 -17.5s20.667 -12.5 30 -17.5
s18.666 -7.5 27.999 -7.5c10 0 18.5 3.83301 25.5 11.5s11.833 18.5 14.5 32.5h92c-2.66699 -30 -9.66699 -55.833 -21 -77.5s-25.833 -38.334 -43.5 -50.001s-37.834 -17.5 -60.501 -17.5z" />
    <glyph glyph-name="utilde" unicode="&#x169;" horiz-adv-x="592" 
d="M294 -15c-48 0 -89.832 10.167 -125.499 30.5s-63.334 49.333 -83.001 87s-29.5 82.167 -29.5 133.5v292h140v-295c0 -38 9 -67.833 27 -89.5s42.333 -32.5 73 -32.5s55 10.833 73 32.5s27 51.5 27 89.5v295h140v-292c0 -38 -5.66699 -72.333 -17 -103
s-27.666 -57 -48.999 -79s-46.833 -39 -76.5 -51s-62.834 -18 -99.501 -18zM361.001 599c-14.667 0 -27.667 2.33301 -39 7s-21.833 10.167 -31.5 16.5s-18.5 11.833 -26.5 16.5s-15.667 7 -23 7c-8 0 -15 -3.66699 -21 -11s-10 -17.666 -12 -30.999h-87
c4.66699 44 16.667 78.333 36 103s43.666 37 72.999 37c14.667 0 27.667 -2.33301 39 -7s21.833 -10.167 31.5 -16.5s18.5 -11.833 26.5 -16.5s15.667 -7 23 -7c8 0 15 3.66699 21 11s10 17.666 12 30.999h87c-4.66699 -44 -16.667 -78.333 -36 -103
s-43.666 -37 -72.999 -37z" />
    <glyph glyph-name="Umacron" unicode="&#x16a;" horiz-adv-x="722" 
d="M360 -20c-46.667 0 -88.667 7.16699 -126 21.5s-69.333 35 -96 62s-47.167 59.333 -61.5 97s-21.5 79.834 -21.5 126.501v423h149v-416c0 -36 6.33301 -67.333 19 -94s30.834 -47.167 54.501 -61.5s51.5 -21.5 83.5 -21.5s59.667 7.16699 83 21.5s41.5 34.833 54.5 61.5
s19.5 58 19.5 94v416h149v-423c0 -46.667 -7.16699 -88.834 -21.5 -126.501s-35 -70 -62 -97s-59.333 -47.667 -97 -62s-79.834 -21.5 -126.501 -21.5zM179 789v100h364v-100h-364z" />
    <glyph glyph-name="umacron" unicode="&#x16b;" horiz-adv-x="592" 
d="M294 -15c-48 0 -89.832 10.167 -125.499 30.5s-63.334 49.333 -83.001 87s-29.5 82.167 -29.5 133.5v292h140v-295c0 -38 9 -67.833 27 -89.5s42.333 -32.5 73 -32.5s55 10.833 73 32.5s27 51.5 27 89.5v295h140v-292c0 -38 -5.66699 -72.333 -17 -103
s-27.666 -57 -48.999 -79s-46.833 -39 -76.5 -51s-62.834 -18 -99.501 -18zM136.001 609v94h318v-94h-318z" />
    <glyph glyph-name="Uring" unicode="&#x16e;" horiz-adv-x="722" 
d="M360 -20c-46.667 0 -88.667 7.16699 -126 21.5s-69.333 35 -96 62s-47.167 59.333 -61.5 97s-21.5 79.834 -21.5 126.501v423h149v-416c0 -36 6.33301 -67.333 19 -94s30.834 -47.167 54.501 -61.5s51.5 -21.5 83.5 -21.5s59.667 7.16699 83 21.5s41.5 34.833 54.5 61.5
s19.5 58 19.5 94v416h149v-423c0 -46.667 -7.16699 -88.834 -21.5 -126.501s-35 -70 -62 -97s-59.333 -47.667 -97 -62s-79.834 -21.5 -126.501 -21.5zM361 751c-22 0 -41.833 5 -59.5 15s-31.667 23.5 -42 40.5s-15.5 35.833 -15.5 56.5s5.16699 39.5 15.5 56.5
s24.333 30.5 42 40.5s37.5 15 59.5 15s41.833 -5 59.5 -15s31.667 -23.5 42 -40.5s15.5 -35.833 15.5 -56.5s-5.16699 -39.5 -15.5 -56.5s-24.333 -30.5 -42 -40.5s-37.5 -15 -59.5 -15zM361 819c11.333 0 21.333 4.16699 30 12.5s13 18.833 13 31.5
s-4.33301 23.167 -13 31.5s-18.667 12.5 -30 12.5s-21.333 -4.16699 -30 -12.5s-13 -18.833 -13 -31.5s4.33301 -23.167 13 -31.5s18.667 -12.5 30 -12.5z" />
    <glyph glyph-name="uring" unicode="&#x16f;" horiz-adv-x="592" 
d="M294 -15c-48 0 -89.832 10.167 -125.499 30.5s-63.334 49.333 -83.001 87s-29.5 82.167 -29.5 133.5v292h140v-295c0 -38 9 -67.833 27 -89.5s42.333 -32.5 73 -32.5s55 10.833 73 32.5s27 51.5 27 89.5v295h140v-292c0 -38 -5.66699 -72.333 -17 -103
s-27.666 -57 -48.999 -79s-46.833 -39 -76.5 -51s-62.834 -18 -99.501 -18zM295.001 576c-21.333 0 -40.666 4.83301 -57.999 14.5s-31 22.667 -41 39s-15 34.833 -15 55.5s5 39.167 15 55.5s23.667 29.333 41 39s36.666 14.5 57.999 14.5s40.666 -4.83301 57.999 -14.5
s31 -22.667 41 -39s15 -34.833 15 -55.5s-5 -39.167 -15 -55.5s-23.667 -29.333 -41 -39s-36.666 -14.5 -57.999 -14.5zM295.001 640c12 0 22.333 4.33301 31 13s13 19.334 13 32.001s-4.33301 23.334 -13 32.001s-19 13 -31 13s-22.333 -4.33301 -31 -13
s-13 -19.334 -13 -32.001s4.33301 -23.334 13 -32.001s19 -13 31 -13z" />
    <glyph glyph-name="Uhungarumlaut" unicode="&#x170;" horiz-adv-x="722" 
d="M360 -20c-46.667 0 -88.667 7.16699 -126 21.5s-69.333 35 -96 62s-47.167 59.333 -61.5 97s-21.5 79.834 -21.5 126.501v423h149v-416c0 -36 6.33301 -67.333 19 -94s30.834 -47.167 54.501 -61.5s51.5 -21.5 83.5 -21.5s59.667 7.16699 83 21.5s41.5 34.833 54.5 61.5
s19.5 58 19.5 94v416h149v-423c0 -46.667 -7.16699 -88.834 -21.5 -126.501s-35 -70 -62 -97s-59.333 -47.667 -97 -62s-79.834 -21.5 -126.501 -21.5zM150 784l135 133h162l-166 -133h-131zM377 784l135 133h162l-166 -133h-131z" />
    <glyph glyph-name="uhungarumlaut" unicode="&#x171;" horiz-adv-x="592" 
d="M294 -15c-48 0 -89.832 10.167 -125.499 30.5s-63.334 49.333 -83.001 87s-29.5 82.167 -29.5 133.5v292h140v-295c0 -38 9 -67.833 27 -89.5s42.333 -32.5 73 -32.5s55 10.833 73 32.5s27 51.5 27 89.5v295h140v-292c0 -38 -5.66699 -72.333 -17 -103
s-27.666 -57 -48.999 -79s-46.833 -39 -76.5 -51s-62.834 -18 -99.501 -18zM135.001 603l97 143h132l-121 -143h-108zM320.001 603l97 143h132l-121 -143h-108z" />
    <glyph glyph-name="Uogonek" unicode="&#x172;" horiz-adv-x="722" 
d="M360 -20c-46.667 0 -88.667 7.16699 -126 21.5s-69.333 35 -96 62s-47.167 59.333 -61.5 97s-21.5 79.834 -21.5 126.501v423h149v-416c0 -36 6.33301 -67.333 19 -94s30.834 -47.167 54.501 -61.5s51.5 -21.5 83.5 -21.5s59.667 7.16699 83 21.5s41.5 34.833 54.5 61.5
s19.5 58 19.5 94v416h149v-423c0 -46.667 -7.16699 -88.834 -21.5 -126.501s-35 -70 -62 -97s-59.333 -47.667 -97 -62s-79.834 -21.5 -126.501 -21.5zM479 -226c-36.667 0 -65.667 8.66699 -87 26s-32 40.333 -32 69c0 27.333 10.333 55.166 31 83.499
s52.334 58.833 95.001 91.5l88 14c-34.667 -34 -60.167 -63.333 -76.5 -88s-24.5 -45.667 -24.5 -63c0 -11.333 3.5 -20.5 10.5 -27.5s16.5 -10.5 28.5 -10.5c7.33301 0 15.166 0.833008 23.499 2.5s15.5 3.83398 21.5 6.50098l12 -87
c-15.333 -5.33301 -30.333 -9.5 -45 -12.5s-29.667 -4.5 -45 -4.5z" />
    <glyph glyph-name="uogonek" unicode="&#x173;" horiz-adv-x="592" 
d="M294 -15c-48 0 -89.832 10.167 -125.499 30.5s-63.334 49.333 -83.001 87s-29.5 82.167 -29.5 133.5v292h140v-295c0 -38 9 -67.833 27 -89.5s42.333 -32.5 73 -32.5s55 10.833 73 32.5s27 51.5 27 89.5v295h140v-292c0 -38 -5.66699 -72.333 -17 -103
s-27.666 -57 -48.999 -79s-46.833 -39 -76.5 -51s-62.834 -18 -99.501 -18zM378.001 -223c-36.667 0 -65.666 8.49805 -86.999 25.498s-32 39.5 -32 67.5c0 26.667 10 53.834 30 81.501s51.667 57.167 95 88.5l85 14c-35.333 -34.667 -61 -63.667 -77 -87
s-24 -43.333 -24 -60c0 -12 3.66699 -21.333 11 -28s17.666 -10 30.999 -10c7.33301 0 14.833 0.833008 22.5 2.5s14.167 3.83398 19.5 6.50098l12 -83c-28 -12 -56.667 -18 -86 -18z" />
    <glyph glyph-name="Wcircumflex" unicode="&#x174;" horiz-adv-x="1044" 
d="M1015 710l-209 -710h-144l-139 509l-139 -509h-146l-209 710h156l130 -513l141 513h137l141 -513l129 513h152zM308 784l147 133h135l147 -133h-142l-74 59l-75 -59h-138z" />
    <glyph glyph-name="wcircumflex" unicode="&#x175;" horiz-adv-x="840" 
d="M186 0l-175 528h144l99 -357l107 357h121l107 -358l101 358h139l-175 -528h-129l-106 357l-106 -357h-127zM232 603l133 143h111l133 -143h-124l-66 62l-67 -62h-120z" />
    <glyph glyph-name="Ycircumflex" unicode="&#x176;" horiz-adv-x="667" 
d="M259 0v276l-248 434h166l159 -299l158 299h162l-248 -434v-276h-149zM119 784l147 133h135l147 -133h-142l-74 59l-75 -59h-138z" />
    <glyph glyph-name="ycircumflex" unicode="&#x177;" horiz-adv-x="561" 
d="M144 -204c-18 0 -34.998 1.83203 -50.998 5.49902s-31 9.5 -45 17.5l27 110c7.33301 -3.33301 16 -6.16602 26 -8.49902s19.333 -3.5 28 -3.5c19.333 0 36.166 5.16699 50.499 15.5s26.166 26.833 35.499 49.5l9 23l-213 523h153l125 -374l113 374h148l-217 -578
c-20 -53.333 -45.5 -92.333 -76.5 -117s-68.5 -37 -112.5 -37zM92.002 602.999l133 143h111l133 -143h-124l-66 62l-67 -62h-120z" />
    <glyph glyph-name="Ydieresis" unicode="&#x178;" horiz-adv-x="667" 
d="M259 0v276l-248 434h166l159 -299l158 299h162l-248 -434v-276h-149zM212 773c-14.667 0 -27.834 3.5 -39.501 10.5s-21 16.167 -28 27.5s-10.5 24 -10.5 38s3.5 26.667 10.5 38s16.333 20.5 28 27.5s24.834 10.5 39.501 10.5s27.834 -3.5 39.501 -10.5
s21 -16.167 28 -27.5s10.5 -24 10.5 -38s-3.5 -26.667 -10.5 -38s-16.333 -20.5 -28 -27.5s-24.834 -10.5 -39.501 -10.5zM454 773c-14.667 0 -27.834 3.5 -39.501 10.5s-21 16.167 -28 27.5s-10.5 24 -10.5 38s3.5 26.667 10.5 38s16.333 20.5 28 27.5
s24.834 10.5 39.501 10.5s27.834 -3.5 39.501 -10.5s21 -16.167 28 -27.5s10.5 -24 10.5 -38s-3.5 -26.667 -10.5 -38s-16.333 -20.5 -28 -27.5s-24.834 -10.5 -39.501 -10.5z" />
    <glyph glyph-name="Zacute" unicode="&#x179;" horiz-adv-x="640" 
d="M37 0v106l361 478h-346v126h532v-106l-361 -478h383v-126h-569zM205 784l138 133h176l-169 -133h-145z" />
    <glyph glyph-name="zacute" unicode="&#x17a;" horiz-adv-x="525" 
d="M39 0v93l256 322h-249v113h423v-93l-257 -322h274v-113h-447zM162 603l114 143h156l-138 -143h-132z" />
    <glyph glyph-name="Zdotaccent" unicode="&#x17b;" horiz-adv-x="640" 
d="M37 0v106l361 478h-346v126h532v-106l-361 -478h383v-126h-569zM318 773c-16 0 -30.167 3.66699 -42.5 11s-22.166 17.166 -29.499 29.499s-11 26.166 -11 41.499s3.66699 29.166 11 41.499s17.166 22.166 29.499 29.499s26.5 11 42.5 11s30.167 -3.66699 42.5 -11
s22.166 -17.166 29.499 -29.499s11 -26.166 11 -41.499s-3.66699 -29.166 -11 -41.499s-17.166 -22.166 -29.499 -29.499s-26.5 -11 -42.5 -11z" />
    <glyph glyph-name="zdotaccent" unicode="&#x17c;" horiz-adv-x="525" 
d="M39 0v93l256 322h-249v113h423v-93l-257 -322h274v-113h-447zM337 671c0 -15.333 -3.5 -29 -10.5 -41s-16.667 -21.5 -29 -28.5s-25.833 -10.5 -40.5 -10.5s-28.167 3.5 -40.5 10.5s-22 16.5 -29 28.5s-10.5 25.667 -10.5 41s3.5 29 10.5 41s16.667 21.5 29 28.5
s25.833 10.5 40.5 10.5s28.167 -3.5 40.5 -10.5s22 -16.5 29 -28.5s10.5 -25.667 10.5 -41z" />
    <glyph glyph-name="Zcaron" unicode="&#x17d;" horiz-adv-x="640" 
d="M37 0v106l361 478h-346v126h532v-106l-361 -478h383v-126h-569zM251 784l-147 133h142l74 -59l75 59h138l-147 -133h-135z" />
    <glyph glyph-name="zcaron" unicode="&#x17e;" horiz-adv-x="525" 
d="M39 0v93l256 322h-249v113h423v-93l-257 -322h274v-113h-447zM202 603l-133 143h124l66 -62l67 62h120l-133 -143h-111z" />
    <glyph glyph-name="uni0218" unicode="&#x218;" horiz-adv-x="573" 
d="M284 -15c-42.667 0 -81.8359 7.49414 -117.503 22.4941s-66 36.333 -91 64s-42.167 60.834 -51.5 99.501l139 30c8.66699 -27.333 23.834 -48.666 45.501 -63.999s47.5 -23 77.5 -23c21.333 0 40.166 3.83301 56.499 11.5s29 18.167 38 31.5s13.5 28.666 13.5 45.999
c0 22 -8.33301 39.833 -25 53.5s-43.667 24.834 -81 33.501l-32 7c-73.333 16 -127.333 41.833 -162 77.5s-52 79.167 -52 130.5c0 32 6.33301 61.333 19 88s30.167 49.834 52.5 69.501s48.5 35 78.5 46s62.333 16.5 97 16.5c39.333 0 76 -7.33301 110 -22
s62.667 -35.667 86 -63s39 -59.666 47 -96.999l-137 -30c-8 26.667 -21.833 47.167 -41.5 61.5s-42.5 21.5 -68.5 21.5c-18 0 -34.167 -3.5 -48.5 -10.5s-25.666 -16.667 -33.999 -29s-12.5 -26.166 -12.5 -41.499c0 -23.333 9 -41.166 27 -53.499s44.667 -22.5 80 -30.5
l32 -7c72.667 -16 126.5 -41.333 161.5 -76s52.5 -79 52.5 -133c0 -34 -6.5 -65 -19.5 -93s-31.167 -52.333 -54.5 -73s-50.666 -36.5 -81.999 -47.5s-65.666 -16.5 -102.999 -16.5zM248.998 -278.006l-23 57.0039c15.333 6 28 13.333 38 22s16.333 17.667 19 27
c-5.33301 -2.66699 -11.666 -4 -18.999 -4c-15.333 0 -28.333 5.33301 -39 16s-16 23.667 -16 39c0 17.333 6.66699 31.666 20 42.999s29.666 17 48.999 17c16 0 30 -3.83301 42 -11.5s21.5 -17.834 28.5 -30.501s10.5 -27.334 10.5 -44.001
c0 -29.333 -9.66699 -55.833 -29 -79.5s-46.333 -40.834 -81 -51.501z" />
    <glyph glyph-name="uni0219" unicode="&#x219;" horiz-adv-x="491" 
d="M246 -15c-37.333 0 -71.168 5.99902 -101.501 17.999s-56 29 -77 51s-35.5 48 -43.5 78l126 27c6.66699 -20.667 18.667 -37 36 -49s38 -18 62 -18c22.667 0 41.334 5 56.001 15s22 23.667 22 41c0 14.667 -6.5 26.834 -19.5 36.501s-34.5 17.167 -64.5 22.5l-28 5
c-57.333 10 -100.833 28.667 -130.5 56s-44.5 62 -44.5 104c0 33.333 8.66699 62.833 26 88.5s41.333 45.834 72 60.501s66 22 106 22c35.333 0 67.5 -5.83301 96.5 -17.5s53.167 -28.167 72.5 -49.5s32.666 -47 39.999 -77l-125 -26c-6.66699 20 -17.5 35.667 -32.5 47
s-32.5 17 -52.5 17c-20.667 0 -37.667 -5 -51 -15s-20 -22.667 -20 -38c0 -13.333 6.5 -24.5 19.5 -33.5s35.167 -16.167 66.5 -21.5l28 -5c56.667 -10 100 -28.833 130 -56.5s45 -62.834 45 -105.501c0 -26 -5.16699 -49.667 -15.5 -71s-25.166 -40 -44.499 -56
s-42 -28.333 -68 -37s-54.667 -13 -86 -13zM212.998 -267.001l-23.001 57.001c14 5.33301 25.833 12.333 35.5 21s16.167 18 19.5 28c-5.33301 -2.66699 -11.333 -4 -18 -4c-15.333 0 -28 5.16699 -38 15.5s-15 23.166 -15 38.499c0 16.667 6.33301 30.5 19 41.5
s28.334 16.5 47.001 16.5c15.333 0 29 -3.66699 41 -11s21.333 -17.5 28 -30.5s10 -27.5 10 -43.5c0 -29.333 -9.5 -55.333 -28.5 -78s-44.833 -39.667 -77.5 -51z" />
    <glyph glyph-name="uni021A" unicode="&#x21a;" horiz-adv-x="631" 
d="M241 0v578h-200v132h549v-132h-200v-578h-149zM280 -278l-23 57.0039c15.333 6 28 13.333 38 22s16.333 17.667 19 27c-5.33301 -2.66699 -11.666 -4 -18.999 -4c-15.333 0 -28.333 5.33301 -39 16s-16 23.667 -16 39c0 17.333 6.66699 31.666 20 42.999
s29.666 17 48.999 17c16 0 30 -3.83301 42 -11.5s21.5 -17.834 28.5 -30.501s10.5 -27.334 10.5 -44.001c0 -29.333 -9.66699 -55.833 -29 -79.5s-46.333 -40.834 -81 -51.501z" />
    <glyph glyph-name="uni021B" unicode="&#x21b;" horiz-adv-x="438" 
d="M285 -15c-36.667 0 -68.1689 7.16992 -94.502 21.5029s-46.666 35.166 -60.999 62.499s-21.5 60.666 -21.5 99.999v246h-90v113h90v180h140v-180h144v-113h-144v-229c0 -25.333 5.33301 -44.833 16 -58.5s27 -20.5 49 -20.5c11.333 0 23.5 1.66699 36.5 5
s25.5 7.66602 37.5 12.999l25 -105c-17.333 -10.667 -36.666 -19.167 -57.999 -25.5s-44.333 -9.5 -69 -9.5zM217.998 -266.997l-23.001 57.001c14 5.33301 25.833 12.333 35.5 21s16.167 18 19.5 28c-5.33301 -2.66699 -11.333 -4 -18 -4c-15.333 0 -28 5.16699 -38 15.5
s-15 23.166 -15 38.499c0 16.667 6.33301 30.5 19 41.5s28.334 16.5 47.001 16.5c15.333 0 29 -3.66699 41 -11s21.333 -17.5 28 -30.5s10 -27.5 10 -43.5c0 -29.333 -9.5 -55.333 -28.5 -78s-44.833 -39.667 -77.5 -51z" />
    <glyph glyph-name="uni0237" unicode="&#x237;" horiz-adv-x="257" 
d="M25 -204c-18 0 -35.332 2.16602 -51.999 6.49902s-32 10.5 -46 18.5l28 108c6.66699 -3.33301 14.167 -6.16602 22.5 -8.49902s16.166 -3.5 23.499 -3.5c19.333 0 34.166 6.33301 44.499 19s15.5 30.667 15.5 54v538h140v-547c0 -36.667 -7.33301 -69 -22 -97
s-35.167 -49.667 -61.5 -65s-57.166 -23 -92.499 -23z" />
    <glyph glyph-name="circumflex" unicode="&#x2c6;" 
d="M108 603l133 143h111l133 -143h-124l-66 62l-67 -62h-120z" />
    <glyph glyph-name="caron" unicode="&#x2c7;" 
d="M241 603l-133 143h124l66 -62l67 62h120l-133 -143h-111z" />
    <glyph glyph-name="uni02C9" unicode="&#x2c9;" 
d="M138 609v94h318v-94h-318z" />
    <glyph glyph-name="uni02CB" unicode="&#x2cb;" 
d="M300 603l-138 143h156l114 -143h-132z" />
    <glyph glyph-name="breve" unicode="&#x2d8;" 
d="M297 601c-30.667 0 -57.999 5.66699 -81.999 17s-43.833 27.333 -59.5 48s-25.834 45 -30.501 73h104c4 -18 12 -31.667 24 -41s26.667 -14 44 -14s31.833 4.66699 43.5 14s19.834 23 24.501 41h104c-4.66699 -28 -14.834 -52.333 -30.501 -73s-35.5 -36.667 -59.5 -48
s-51.333 -17 -82 -17z" />
    <glyph glyph-name="dotaccent" unicode="&#x2d9;" 
d="M377 671c0 -15.333 -3.5 -29 -10.5 -41s-16.667 -21.5 -29 -28.5s-25.833 -10.5 -40.5 -10.5s-28.167 3.5 -40.5 10.5s-22 16.5 -29 28.5s-10.5 25.667 -10.5 41s3.5 29 10.5 41s16.667 21.5 29 28.5s25.833 10.5 40.5 10.5s28.167 -3.5 40.5 -10.5s22 -16.5 29 -28.5
s10.5 -25.667 10.5 -41z" />
    <glyph glyph-name="ring" unicode="&#x2da;" 
d="M297 576c-21.333 0 -40.666 4.83301 -57.999 14.5s-31 22.667 -41 39s-15 34.833 -15 55.5s5 39.167 15 55.5s23.667 29.333 41 39s36.666 14.5 57.999 14.5s40.666 -4.83301 57.999 -14.5s31 -22.667 41 -39s15 -34.833 15 -55.5s-5 -39.167 -15 -55.5
s-23.667 -29.333 -41 -39s-36.666 -14.5 -57.999 -14.5zM297 640c12 0 22.333 4.33301 31 13s13 19.334 13 32.001s-4.33301 23.334 -13 32.001s-19 13 -31 13s-22.333 -4.33301 -31 -13s-13 -19.334 -13 -32.001s4.33301 -23.334 13 -32.001s19 -13 31 -13z" />
    <glyph glyph-name="ogonek" unicode="&#x2db;" 
d="M310 -223c-35.333 0 -63.499 8.16602 -84.499 24.499s-31.5 38.166 -31.5 65.499c0 24.667 10 50 30 76s51.333 53.333 94 82l72 -25c-30.667 -22.667 -52.834 -42.167 -66.501 -58.5s-20.5 -30.166 -20.5 -41.499c0 -9.33301 3.5 -16.833 10.5 -22.5
s16.167 -8.5 27.5 -8.5c8 0 16.333 0.833008 25 2.5s15.667 3.83398 21 6.50098l12 -83c-28 -12 -57.667 -18 -89 -18z" />
    <glyph glyph-name="tilde" unicode="&#x2dc;" 
d="M362 599c-14.667 0 -27.667 2.33301 -39 7s-21.833 10.167 -31.5 16.5s-18.5 11.833 -26.5 16.5s-15.667 7 -23 7c-8 0 -15 -3.66699 -21 -11s-10 -17.666 -12 -30.999h-87c4.66699 44 16.667 78.333 36 103s43.666 37 72.999 37c14.667 0 27.667 -2.33301 39 -7
s21.833 -10.167 31.5 -16.5s18.5 -11.833 26.5 -16.5s15.667 -7 23 -7c8 0 15 3.66699 21 11s10 17.666 12 30.999h87c-4.66699 -44 -16.667 -78.333 -36 -103s-43.666 -37 -72.999 -37z" />
    <glyph glyph-name="hungarumlaut" unicode="&#x2dd;" 
d="M90 603l97 143h132l-121 -143h-108zM275 603l97 143h132l-121 -143h-108z" />
    <glyph glyph-name="gravecomb" unicode="&#x300;" horiz-adv-x="0" 
d="M-37 603l-138 143h156l114 -143h-132z" />
    <glyph glyph-name="acutecomb" unicode="&#x301;" horiz-adv-x="0" 
d="M-95 603l114 143h156l-138 -143h-132z" />
    <glyph glyph-name="uni0302" unicode="&#x302;" horiz-adv-x="0" 
d="M-188 603l133 143h111l133 -143h-124l-66 62l-67 -62h-120z" />
    <glyph glyph-name="tildecomb" unicode="&#x303;" horiz-adv-x="0" 
d="M66 599c-14.667 0 -27.667 2.33301 -39 7s-21.833 10.167 -31.5 16.5s-18.5 11.833 -26.5 16.5s-15.667 7 -23 7c-8 0 -15 -3.66699 -21 -11s-10 -17.666 -12 -30.999h-87c4.66699 44 16.667 78.333 36 103s43.666 37 72.999 37c14.667 0 27.667 -2.33301 39 -7
s21.833 -10.167 31.5 -16.5s18.5 -11.833 26.5 -16.5s15.667 -7 23 -7c8 0 15 3.66699 21 11s10 17.666 12 30.999h87c-4.66699 -44 -16.667 -78.333 -36 -103s-43.666 -37 -72.999 -37z" />
    <glyph glyph-name="uni0304" unicode="&#x304;" horiz-adv-x="0" 
d="M-159 609v94h318v-94h-318z" />
    <glyph glyph-name="uni0306" unicode="&#x306;" horiz-adv-x="0" 
d="M0 601c-30.667 0 -57.999 5.66699 -81.999 17s-43.833 27.333 -59.5 48s-25.834 45 -30.501 73h104c4 -18 12 -31.667 24 -41s26.667 -14 44 -14s31.833 4.66699 43.5 14s19.834 23 24.501 41h104c-4.66699 -28 -14.834 -52.333 -30.501 -73s-35.5 -36.667 -59.5 -48
s-51.333 -17 -82 -17z" />
    <glyph glyph-name="uni0307" unicode="&#x307;" horiz-adv-x="0" 
d="M80 671c0 -15.333 -3.5 -29 -10.5 -41s-16.667 -21.5 -29 -28.5s-25.833 -10.5 -40.5 -10.5s-28.167 3.5 -40.5 10.5s-22 16.5 -29 28.5s-10.5 25.667 -10.5 41s3.5 29 10.5 41s16.667 21.5 29 28.5s25.833 10.5 40.5 10.5s28.167 -3.5 40.5 -10.5s22 -16.5 29 -28.5
s10.5 -25.667 10.5 -41z" />
    <glyph glyph-name="uni0308" unicode="&#x308;" horiz-adv-x="0" 
d="M-107 600c-14 0 -26.667 3.16699 -38 9.5s-20.333 15 -27 26s-10 23.167 -10 36.5s3.33301 25.5 10 36.5s15.667 19.667 27 26s24 9.5 38 9.5s26.667 -3.16699 38 -9.5s20.333 -15 27 -26s10 -23.167 10 -36.5s-3.33301 -25.5 -10 -36.5s-15.667 -19.667 -27 -26
s-24 -9.5 -38 -9.5zM107 600c-14 0 -26.667 3.16699 -38 9.5s-20.333 15 -27 26s-10 23.167 -10 36.5s3.33301 25.5 10 36.5s15.667 19.667 27 26s24 9.5 38 9.5s26.667 -3.16699 38 -9.5s20.333 -15 27 -26s10 -23.167 10 -36.5s-3.33301 -25.5 -10 -36.5
s-15.667 -19.667 -27 -26s-24 -9.5 -38 -9.5z" />
    <glyph glyph-name="uni030A" unicode="&#x30a;" horiz-adv-x="0" 
d="M0 576c-21.333 0 -40.666 4.83301 -57.999 14.5s-31 22.667 -41 39s-15 34.833 -15 55.5s5 39.167 15 55.5s23.667 29.333 41 39s36.666 14.5 57.999 14.5s40.666 -4.83301 57.999 -14.5s31 -22.667 41 -39s15 -34.833 15 -55.5s-5 -39.167 -15 -55.5
s-23.667 -29.333 -41 -39s-36.666 -14.5 -57.999 -14.5zM0 640c12 0 22.333 4.33301 31 13s13 19.334 13 32.001s-4.33301 23.334 -13 32.001s-19 13 -31 13s-22.333 -4.33301 -31 -13s-13 -19.334 -13 -32.001s4.33301 -23.334 13 -32.001s19 -13 31 -13z" />
    <glyph glyph-name="uni030B" unicode="&#x30b;" horiz-adv-x="0" 
d="M-160 603l97 143h132l-121 -143h-108zM25 603l97 143h132l-121 -143h-108z" />
    <glyph glyph-name="uni030C" unicode="&#x30c;" horiz-adv-x="0" 
d="M-55 603l-133 143h124l66 -62l67 62h120l-133 -143h-111z" />
    <glyph glyph-name="uni0312" unicode="&#x312;" horiz-adv-x="0" 
d="M7 581c-15.333 0 -29.001 3.66602 -41.001 10.999s-21.333 17.5 -28 30.5s-10 27.5 -10 43.5c0 29.333 9.33301 55.333 28 78s44.667 39.667 78 51l23 -57c-14 -5.33301 -25.833 -12.333 -35.5 -21s-16.167 -18 -19.5 -28c5.33301 2.66699 11.333 4 18 4
c14.667 0 27.167 -5.16699 37.5 -15.5s15.5 -23.166 15.5 -38.499c0 -16.667 -6.16699 -30.5 -18.5 -41.5s-28.166 -16.5 -47.499 -16.5z" />
    <glyph glyph-name="uni0315" unicode="&#x315;" horiz-adv-x="0" 
d="M67 554l15 192h114l-47 -192h-82z" />
    <glyph glyph-name="dotbelowcomb" unicode="&#x323;" horiz-adv-x="0" 
d="M80 -146c0 -14.667 -3.5 -28.167 -10.5 -40.5s-16.667 -22 -29 -29s-25.833 -10.5 -40.5 -10.5s-28.167 3.5 -40.5 10.5s-22 16.667 -29 29s-10.5 25.833 -10.5 40.5s3.5 28.167 10.5 40.5s16.667 22 29 29s25.833 10.5 40.5 10.5s28.167 -3.5 40.5 -10.5
s22 -16.667 29 -29s10.5 -25.833 10.5 -40.5z" />
    <glyph glyph-name="uni0326" unicode="&#x326;" horiz-adv-x="0" 
d="M-33 -267l-23.001 57.001c14 5.33301 25.833 12.333 35.5 21s16.167 18 19.5 28c-5.33301 -2.66699 -11.333 -4 -18 -4c-15.333 0 -28 5.16699 -38 15.5s-15 23.166 -15 38.499c0 16.667 6.33301 30.5 19 41.5s28.334 16.5 47.001 16.5c15.333 0 29 -3.66699 41 -11
s21.333 -17.5 28 -30.5s10 -27.5 10 -43.5c0 -29.333 -9.5 -55.333 -28.5 -78s-44.833 -39.667 -77.5 -51z" />
    <glyph glyph-name="uni0327" unicode="&#x327;" horiz-adv-x="0" 
d="M-37 11h87.002l-17 -52c21.333 -6.66699 38.166 -17.5 50.499 -32.5s18.5 -32.5 18.5 -52.5s-5.83301 -37.5 -17.5 -52.5s-28 -26.667 -49 -35s-44.833 -12.5 -71.5 -12.5c-28.667 0 -56 5 -82 15l14 74c10 -3.33301 19.5 -5.83301 28.5 -7.5s16.833 -2.5 23.5 -2.5
c13.333 0 24.166 2.83301 32.499 8.5s12.5 13.167 12.5 22.5c0 22 -21 33 -63 33z" />
    <glyph glyph-name="uni0328" unicode="&#x328;" horiz-adv-x="0" 
d="M-80 -223c-35.333 0 -63.499 8.16602 -84.499 24.499s-31.5 38.166 -31.5 65.499c0 24.667 10 50 30 76s51.333 53.333 94 82l72 -25c-30.667 -22.667 -52.834 -42.167 -66.501 -58.5s-20.5 -30.166 -20.5 -41.499c0 -9.33301 3.5 -16.833 10.5 -22.5
s16.167 -8.5 27.5 -8.5c8 0 16.333 0.833008 25 2.5s15.667 3.83398 21 6.50098l12 -83c-28 -12 -57.667 -18 -89 -18z" />
    <glyph glyph-name="uni0E3F" unicode="&#xe3f;" 
d="M62 0l-0.000976562 690.001h176v125h101v-127c40 -4 74.333 -13.667 103 -29s50.667 -35.5 66 -60.5s23 -53.833 23 -86.5c0 -30.667 -6.83301 -58.834 -20.5 -84.501s-33.167 -45.5 -58.5 -59.5c34.667 -13.333 61.5 -34.833 80.5 -64.5s28.5 -65.167 28.5 -106.5
c0 -36.667 -9 -69.167 -27 -97.5s-43.667 -50.833 -77 -67.5s-72.666 -27 -117.999 -31v-141h-101v140h-176zM196.999 572.001v-159.001h97c31.333 0 55.5 6.83301 72.5 20.5s25.5 32.834 25.5 57.501c0 26 -8.66699 46 -26 60s-41.333 21 -72 21h-97zM196.999 118
l111 -0.000976562c36 0 63.833 7.83301 83.5 23.5s29.5 37.834 29.5 66.501c0 30 -9.83301 52.833 -29.5 68.5s-47.5 23.5 -83.5 23.5h-111v-182z" />
    <glyph glyph-name="uni1E24" unicode="&#x1e24;" horiz-adv-x="742" 
d="M65 0v710h149v-277h314v277h149v-710h-149v301h-314v-301h-149zM371 -235c-16 0 -30.167 3.66699 -42.5 11s-22.166 17.166 -29.499 29.499s-11 26.166 -11 41.499s3.66699 29.166 11 41.499s17.166 22.166 29.499 29.499s26.5 11 42.5 11s30.167 -3.66699 42.5 -11
s22.166 -17.166 29.499 -29.499s11 -26.166 11 -41.499s-3.66699 -29.166 -11 -41.499s-17.166 -22.166 -29.499 -29.499s-26.5 -11 -42.5 -11z" />
    <glyph glyph-name="uni1E25" unicode="&#x1e25;" 
d="M56 0v746h140v-276c16 22.667 36.667 40.5 62 53.5s54.333 19.5 87 19.5c38.667 0 72.5 -9.16699 101.5 -27.5s51.5 -44.5 67.5 -78.5s24 -74 24 -120v-317h-140v299c0 36.667 -8.33301 65.5 -25 86.5s-39.667 31.5 -69 31.5c-21.333 0 -40 -4.83301 -56 -14.5
s-28.667 -23.167 -38 -40.5s-14 -37 -14 -59v-303h-140zM377 -146c0 -14.667 -3.5 -28.167 -10.5 -40.5s-16.667 -22 -29 -29s-25.833 -10.5 -40.5 -10.5s-28.167 3.5 -40.5 10.5s-22 16.667 -29 29s-10.5 25.833 -10.5 40.5s3.5 28.167 10.5 40.5s16.667 22 29 29
s25.833 10.5 40.5 10.5s28.167 -3.5 40.5 -10.5s22 -16.667 29 -29s10.5 -25.833 10.5 -40.5z" />
    <glyph glyph-name="uni1E36" unicode="&#x1e36;" horiz-adv-x="544" 
d="M65 0v710h149v-578h290v-132h-439zM284 -235c-16 0 -30.167 3.66699 -42.5 11s-22.166 17.166 -29.499 29.499s-11 26.166 -11 41.499s3.66699 29.166 11 41.499s17.166 22.166 29.499 29.499s26.5 11 42.5 11s30.167 -3.66699 42.5 -11s22.166 -17.166 29.499 -29.499
s11 -26.166 11 -41.499s-3.66699 -29.166 -11 -41.499s-17.166 -22.166 -29.499 -29.499s-26.5 -11 -42.5 -11z" />
    <glyph glyph-name="uni1E37" unicode="&#x1e37;" horiz-adv-x="252" 
d="M56 0v746h140v-746h-140zM205 -146c0 -14.667 -3.5 -28.167 -10.5 -40.5s-16.667 -22 -29 -29s-25.833 -10.5 -40.5 -10.5s-28.167 3.5 -40.5 10.5s-22 16.667 -29 29s-10.5 25.833 -10.5 40.5s3.5 28.167 10.5 40.5s16.667 22 29 29s25.833 10.5 40.5 10.5
s28.167 -3.5 40.5 -10.5s22 -16.667 29 -29s10.5 -25.833 10.5 -40.5z" />
    <glyph glyph-name="Wgrave" unicode="&#x1e80;" horiz-adv-x="1044" 
d="M1015 710l-209 -710h-144l-139 509l-139 -509h-146l-209 710h156l130 -513l141 513h137l141 -513l129 513h152zM490 784l-169 133h176l138 -133h-145z" />
    <glyph glyph-name="wgrave" unicode="&#x1e81;" horiz-adv-x="840" 
d="M186 0l-175 528h144l99 -357l107 357h121l107 -358l101 358h139l-175 -528h-129l-106 357l-106 -357h-127zM383 603l-138 143h156l114 -143h-132z" />
    <glyph glyph-name="Wacute" unicode="&#x1e82;" horiz-adv-x="1044" 
d="M1015 710l-209 -710h-144l-139 509l-139 -509h-146l-209 710h156l130 -513l141 513h137l141 -513l129 513h152zM409 784l138 133h176l-169 -133h-145z" />
    <glyph glyph-name="wacute" unicode="&#x1e83;" horiz-adv-x="840" 
d="M186 0l-175 528h144l99 -357l107 357h121l107 -358l101 358h139l-175 -528h-129l-106 357l-106 -357h-127zM325 603l114 143h156l-138 -143h-132z" />
    <glyph glyph-name="Wdieresis" unicode="&#x1e84;" horiz-adv-x="1044" 
d="M1015 710l-209 -710h-144l-139 509l-139 -509h-146l-209 710h156l130 -513l141 513h137l141 -513l129 513h152zM401 773c-14.667 0 -27.834 3.5 -39.501 10.5s-21 16.167 -28 27.5s-10.5 24 -10.5 38s3.5 26.667 10.5 38s16.333 20.5 28 27.5s24.834 10.5 39.501 10.5
s27.834 -3.5 39.501 -10.5s21 -16.167 28 -27.5s10.5 -24 10.5 -38s-3.5 -26.667 -10.5 -38s-16.333 -20.5 -28 -27.5s-24.834 -10.5 -39.501 -10.5zM643 773c-14.667 0 -27.834 3.5 -39.501 10.5s-21 16.167 -28 27.5s-10.5 24 -10.5 38s3.5 26.667 10.5 38
s16.333 20.5 28 27.5s24.834 10.5 39.501 10.5s27.834 -3.5 39.501 -10.5s21 -16.167 28 -27.5s10.5 -24 10.5 -38s-3.5 -26.667 -10.5 -38s-16.333 -20.5 -28 -27.5s-24.834 -10.5 -39.501 -10.5z" />
    <glyph glyph-name="wdieresis" unicode="&#x1e85;" horiz-adv-x="840" 
d="M186 0l-175 528h144l99 -357l107 357h121l107 -358l101 358h139l-175 -528h-129l-106 357l-106 -357h-127zM313 600c-14 0 -26.667 3.16699 -38 9.5s-20.333 15 -27 26s-10 23.167 -10 36.5s3.33301 25.5 10 36.5s15.667 19.667 27 26s24 9.5 38 9.5
s26.667 -3.16699 38 -9.5s20.333 -15 27 -26s10 -23.167 10 -36.5s-3.33301 -25.5 -10 -36.5s-15.667 -19.667 -27 -26s-24 -9.5 -38 -9.5zM527 600c-14 0 -26.667 3.16699 -38 9.5s-20.333 15 -27 26s-10 23.167 -10 36.5s3.33301 25.5 10 36.5s15.667 19.667 27 26
s24 9.5 38 9.5s26.667 -3.16699 38 -9.5s20.333 -15 27 -26s10 -23.167 10 -36.5s-3.33301 -25.5 -10 -36.5s-15.667 -19.667 -27 -26s-24 -9.5 -38 -9.5z" />
    <glyph glyph-name="uni1E9E" unicode="&#x1e9e;" horiz-adv-x="659" 
d="M388 -15c-22.667 0 -44.166 2.33203 -64.499 6.99902s-39.833 11.334 -58.5 20.001l26 122c11.333 -5.33301 24.166 -9.83301 38.499 -13.5s28.166 -5.5 41.499 -5.5c20.667 0 39.334 4.5 56.001 13.5s29.667 21.167 39 36.5s14 33.333 14 54
c0 31.333 -11.667 56.5 -35 75.5s-55 28.833 -95 29.5l-12 88l107 146c-12.667 10.667 -27.334 19.334 -44.001 26.001s-34.667 10 -54 10c-27.333 0 -51.5 -6.66699 -72.5 -20s-37.5 -32.333 -49.5 -57s-18 -54.334 -18 -89.001v-428h-149v423
c0 45.333 6.66699 86.5 20 123.5s32.333 68.833 57 95.5s54.5 47.167 89.5 61.5s74.167 21.5 117.5 21.5c37.333 0 73 -5.5 107 -16.5s65 -26.5 93 -46.5s51.667 -44.333 71 -73l-124 -171c28.667 -9.33301 53.834 -23.833 75.501 -43.5s38.5 -43 50.5 -70
s18 -56.833 18 -89.5s-6.16699 -63 -18.5 -91s-29.5 -52.5 -51.5 -73.5s-48 -37.167 -78 -48.5s-62.333 -17 -97 -17z" />
    <glyph glyph-name="Ygrave" unicode="&#x1ef2;" horiz-adv-x="667" 
d="M259 0v276l-248 434h166l159 -299l158 299h162l-248 -434v-276h-149zM301 784l-169 133h176l138 -133h-145z" />
    <glyph glyph-name="ygrave" unicode="&#x1ef3;" horiz-adv-x="561" 
d="M144 -204c-18 0 -34.998 1.83203 -50.998 5.49902s-31 9.5 -45 17.5l27 110c7.33301 -3.33301 16 -6.16602 26 -8.49902s19.333 -3.5 28 -3.5c19.333 0 36.166 5.16699 50.499 15.5s26.166 26.833 35.499 49.5l9 23l-213 523h153l125 -374l113 374h148l-217 -578
c-20 -53.333 -45.5 -92.333 -76.5 -117s-68.5 -37 -112.5 -37zM243.002 602.999l-138 143h156l114 -143h-132z" />
    <glyph glyph-name="uni2000" unicode="&#x2000;" horiz-adv-x="500" 
 />
    <glyph glyph-name="uni2001" unicode="&#x2001;" horiz-adv-x="1000" 
 />
    <glyph glyph-name="uni2002" unicode="&#x2002;" horiz-adv-x="500" 
 />
    <glyph glyph-name="uni2003" unicode="&#x2003;" horiz-adv-x="1000" 
 />
    <glyph glyph-name="uni2004" unicode="&#x2004;" horiz-adv-x="333" 
 />
    <glyph glyph-name="uni2005" unicode="&#x2005;" horiz-adv-x="250" 
 />
    <glyph glyph-name="uni2006" unicode="&#x2006;" horiz-adv-x="166" 
 />
    <glyph glyph-name="uni2007" unicode="&#x2007;" 
 />
    <glyph glyph-name="uni2008" unicode="&#x2008;" horiz-adv-x="270" 
 />
    <glyph glyph-name="uni2009" unicode="&#x2009;" horiz-adv-x="200" 
 />
    <glyph glyph-name="uni200A" unicode="&#x200a;" horiz-adv-x="63" 
 />
    <glyph glyph-name="uni200B" unicode="&#x200b;" horiz-adv-x="0" 
 />
    <glyph glyph-name="endash" unicode="&#x2013;" horiz-adv-x="500" 
d="M0 223v104h500v-104h-500z" />
    <glyph glyph-name="emdash" unicode="&#x2014;" horiz-adv-x="1000" 
d="M0 223v104h1000v-104h-1000z" />
    <glyph glyph-name="quoteleft" unicode="&#x2018;" horiz-adv-x="249" 
d="M134 416c-18.667 0 -35.666 5.5 -50.999 16.5s-27.5 26 -36.5 45s-13.5 40.167 -13.5 63.5c0 28.667 6.16699 55.167 18.5 79.5s29.833 45.166 52.5 62.499s49 30 79 38l24 -72c-18 -4.66699 -33.667 -11.834 -47 -21.501s-23.666 -20.667 -30.999 -33
s-11 -25.166 -11 -38.499c0 -4 0.333008 -7.66699 1 -11c7.33301 4.66699 15.666 7 24.999 7c12 0 23 -3 33 -9s17.833 -14 23.5 -24s8.5 -21.333 8.5 -34s-3.33301 -24.167 -10 -34.5s-15.834 -18.666 -27.501 -24.999s-24.167 -9.5 -37.5 -9.5z" />
    <glyph glyph-name="quoteright" unicode="&#x2019;" horiz-adv-x="249" 
d="M115 714c18.667 0 35.665 -5.5 50.998 -16.5s27.5 -26 36.5 -45s13.5 -40.167 13.5 -63.5c0 -28.667 -6.16699 -55.167 -18.5 -79.5s-29.666 -45.166 -51.999 -62.499s-48.833 -30 -79.5 -38l-24 72c17.333 4.66699 32.833 11.834 46.5 21.501s24.167 20.667 31.5 33
s11 25.166 11 38.499c0 4 -0.333008 7.66699 -1 11c-7.33301 -4.66699 -15.666 -7 -24.999 -7c-12 0 -23 3 -33 9s-17.833 14 -23.5 24s-8.5 21.333 -8.5 34s3.33301 24.167 10 34.5s15.667 18.666 27 24.999s24 9.5 38 9.5z" />
    <glyph glyph-name="quotesinglbase" unicode="&#x201a;" horiz-adv-x="250" 
d="M123 158c18.667 0 35.665 -5.5 50.998 -16.5s27.5 -26 36.5 -45s13.5 -40.167 13.5 -63.5c0 -28.667 -6.16699 -55.167 -18.5 -79.5s-29.666 -45.166 -51.999 -62.499s-48.833 -30 -79.5 -38l-24 72c17.333 4.66699 32.833 11.834 46.5 21.501s24.167 20.667 31.5 33
s11 25.166 11 38.499c0 4 -0.333008 7.66699 -1 11c-7.33301 -4.66699 -15.666 -7 -24.999 -7c-12 0 -23 3 -33 9s-17.833 14 -23.5 24s-8.5 21.333 -8.5 34s3.33301 24.167 10 34.5s15.667 18.666 27 24.999s24 9.5 38 9.5z" />
    <glyph glyph-name="quotedblleft" unicode="&#x201c;" horiz-adv-x="466" 
d="M134 416c-18.667 0 -35.666 5.5 -50.999 16.5s-27.5 26 -36.5 45s-13.5 40.167 -13.5 63.5c0 28.667 6.16699 55.167 18.5 79.5s29.833 45.166 52.5 62.499s49 30 79 38l24 -72c-18 -4.66699 -33.667 -11.834 -47 -21.501s-23.666 -20.667 -30.999 -33
s-11 -25.166 -11 -38.499c0 -4 0.333008 -7.66699 1 -11c7.33301 4.66699 15.666 7 24.999 7c12 0 23 -3 33 -9s17.833 -14 23.5 -24s8.5 -21.333 8.5 -34s-3.33301 -24.167 -10 -34.5s-15.834 -18.666 -27.501 -24.999s-24.167 -9.5 -37.5 -9.5zM351.001 416
c-18.667 0 -35.666 5.5 -50.999 16.5s-27.5 26 -36.5 45s-13.5 40.167 -13.5 63.5c0 28.667 6.16699 55.167 18.5 79.5s29.833 45.166 52.5 62.499s49 30 79 38l24 -72c-18 -4.66699 -33.667 -11.834 -47 -21.501s-23.666 -20.667 -30.999 -33s-11 -25.166 -11 -38.499
c0 -4 0.333008 -7.66699 1 -11c7.33301 4.66699 15.666 7 24.999 7c12 0 23 -3 33 -9s17.833 -14 23.5 -24s8.5 -21.333 8.5 -34s-3.33301 -24.167 -10 -34.5s-15.834 -18.666 -27.501 -24.999s-24.167 -9.5 -37.5 -9.5z" />
    <glyph glyph-name="quotedblright" unicode="&#x201d;" horiz-adv-x="466" 
d="M115 714c18.667 0 35.665 -5.5 50.998 -16.5s27.5 -26 36.5 -45s13.5 -40.167 13.5 -63.5c0 -28.667 -6.16699 -55.167 -18.5 -79.5s-29.666 -45.166 -51.999 -62.499s-48.833 -30 -79.5 -38l-24 72c17.333 4.66699 32.833 11.834 46.5 21.501s24.167 20.667 31.5 33
s11 25.166 11 38.499c0 4 -0.333008 7.66699 -1 11c-7.33301 -4.66699 -15.666 -7 -24.999 -7c-12 0 -23 3 -33 9s-17.833 14 -23.5 24s-8.5 21.333 -8.5 34s3.33301 24.167 10 34.5s15.667 18.666 27 24.999s24 9.5 38 9.5zM331.998 714c18.667 0 35.665 -5.5 50.998 -16.5
s27.5 -26 36.5 -45s13.5 -40.167 13.5 -63.5c0 -28.667 -6.16699 -55.167 -18.5 -79.5s-29.666 -45.166 -51.999 -62.499s-48.833 -30 -79.5 -38l-24 72c17.333 4.66699 32.833 11.834 46.5 21.501s24.167 20.667 31.5 33s11 25.166 11 38.499c0 4 -0.333008 7.66699 -1 11
c-7.33301 -4.66699 -15.666 -7 -24.999 -7c-12 0 -23 3 -33 9s-17.833 14 -23.5 24s-8.5 21.333 -8.5 34s3.33301 24.167 10 34.5s15.667 18.666 27 24.999s24 9.5 38 9.5z" />
    <glyph glyph-name="quotedblbase" unicode="&#x201e;" horiz-adv-x="468" 
d="M123 158c18.667 0 35.665 -5.5 50.998 -16.5s27.5 -26 36.5 -45s13.5 -40.167 13.5 -63.5c0 -28.667 -6.16699 -55.167 -18.5 -79.5s-29.666 -45.166 -51.999 -62.499s-48.833 -30 -79.5 -38l-24 72c17.333 4.66699 32.833 11.834 46.5 21.501s24.167 20.667 31.5 33
s11 25.166 11 38.499c0 4 -0.333008 7.66699 -1 11c-7.33301 -4.66699 -15.666 -7 -24.999 -7c-12 0 -23 3 -33 9s-17.833 14 -23.5 24s-8.5 21.333 -8.5 34s3.33301 24.167 10 34.5s15.667 18.666 27 24.999s24 9.5 38 9.5zM340.998 158c18.667 0 35.665 -5.5 50.998 -16.5
s27.5 -26 36.5 -45s13.5 -40.167 13.5 -63.5c0 -28.667 -6.16699 -55.167 -18.5 -79.5s-29.666 -45.166 -51.999 -62.499s-48.833 -30 -79.5 -38l-24 72c17.333 4.66699 32.833 11.834 46.5 21.501s24.167 20.667 31.5 33s11 25.166 11 38.499c0 4 -0.333008 7.66699 -1 11
c-7.33301 -4.66699 -15.666 -7 -24.999 -7c-12 0 -23 3 -33 9s-17.833 14 -23.5 24s-8.5 21.333 -8.5 34s3.33301 24.167 10 34.5s15.667 18.666 27 24.999s24 9.5 38 9.5z" />
    <glyph glyph-name="dagger" unicode="&#x2020;" horiz-adv-x="480" 
d="M176 -82v510h-146v112h146v170h128v-170h146v-112h-146v-510h-128z" />
    <glyph glyph-name="daggerdbl" unicode="&#x2021;" horiz-adv-x="520" 
d="M50 93v112h146v223h-146v112h146v170h128v-170h146v-112h-146v-223h146v-112h-146v-175h-128v175h-146z" />
    <glyph glyph-name="bullet" unicode="&#x2022;" horiz-adv-x="314" 
d="M157 161c-21.333 0 -40.666 5.16699 -57.999 15.5s-31.166 24.166 -41.499 41.499s-15.5 36.666 -15.5 57.999s5.16699 40.666 15.5 57.999s24.166 31.166 41.499 41.499s36.666 15.5 57.999 15.5s40.666 -5.16699 57.999 -15.5s31.166 -24.166 41.499 -41.499
s15.5 -36.666 15.5 -57.999s-5.16699 -40.666 -15.5 -57.999s-24.166 -31.166 -41.499 -41.499s-36.666 -15.5 -57.999 -15.5z" />
    <glyph glyph-name="ellipsis" unicode="&#x2026;" horiz-adv-x="810" 
d="M135 -4c-16.667 0 -31.5 4 -44.5 12s-23.5 18.667 -31.5 32s-12 28 -12 44s4 30.667 12 44s18.5 24 31.5 32s27.833 12 44.5 12s31.5 -4 44.5 -12s23.5 -18.667 31.5 -32s12 -28 12 -44s-4 -30.667 -12 -44s-18.5 -24 -31.5 -32s-27.833 -12 -44.5 -12zM405 -4
c-16.667 0 -31.5 4 -44.5 12s-23.5 18.667 -31.5 32s-12 28 -12 44s4 30.667 12 44s18.5 24 31.5 32s27.833 12 44.5 12s31.5 -4 44.5 -12s23.5 -18.667 31.5 -32s12 -28 12 -44s-4 -30.667 -12 -44s-18.5 -24 -31.5 -32s-27.833 -12 -44.5 -12zM675 -4
c-16.667 0 -31.5 4 -44.5 12s-23.5 18.667 -31.5 32s-12 28 -12 44s4 30.667 12 44s18.5 24 31.5 32s27.833 12 44.5 12s31.5 -4 44.5 -12s23.5 -18.667 31.5 -32s12 -28 12 -44s-4 -30.667 -12 -44s-18.5 -24 -31.5 -32s-27.833 -12 -44.5 -12z" />
    <glyph glyph-name="perthousand" unicode="&#x2030;" horiz-adv-x="1123" 
d="M192 385c-30.667 0 -57.833 6.83301 -81.5 20.5s-42.5 32.167 -56.5 55.5s-21 50 -21 80c0 22.667 4 43.5 12 62.5s19.333 35.667 34 50s31.834 25.5 51.501 33.5s41.167 12 64.5 12c22.667 0 43.667 -4 63 -12s36.333 -19 51 -33s26 -30.5 34 -49.5s12 -39.833 12 -62.5
s-4.16699 -43.5 -12.5 -62.5s-19.833 -35.5 -34.5 -49.5s-31.834 -25 -51.501 -33s-41.167 -12 -64.5 -12zM218.001 0h-112l432 690h112zM137.001 542c0 -18.667 5.5 -34.334 16.5 -47.001s24.5 -19 40.5 -19s29.5 6.33301 40.5 19s16.5 28.334 16.5 47.001
s-5.5 34.334 -16.5 47.001s-24.5 19 -40.5 19s-29.5 -6.33301 -40.5 -19s-16.5 -28.334 -16.5 -47.001zM561.001 -9c-30 0 -57 6.83301 -81 20.5s-43 32.167 -57 55.5s-21 50 -21 80c0 22.667 4 43.5 12 62.5s19.333 35.667 34 50s31.834 25.5 51.501 33.5
s41.167 12 64.5 12c22.667 0 43.667 -4 63 -12s36.333 -19 51 -33s26 -30.5 34 -49.5s12 -39.833 12 -62.5s-4.16699 -43.5 -12.5 -62.5s-19.833 -35.5 -34.5 -49.5s-31.834 -25 -51.501 -33s-41.167 -12 -64.5 -12zM927.001 -9c-30 0 -57 6.83301 -81 20.5
s-43 32.167 -57 55.5s-21 50 -21 80c0 22.667 4 43.5 12 62.5s19.333 35.667 34 50s31.834 25.5 51.501 33.5s41.167 12 64.5 12c22.667 0 43.667 -4 63 -12s36.333 -19 51 -33s26 -30.5 34 -49.5s12 -39.833 12 -62.5s-4.16699 -43.5 -12.5 -62.5
s-19.833 -35.5 -34.5 -49.5s-31.834 -25 -51.501 -33s-41.167 -12 -64.5 -12zM563.001 82c16 0 29.5 6.33301 40.5 19s16.5 28.334 16.5 47.001s-5.5 34.334 -16.5 47.001s-24.5 19 -40.5 19s-29.5 -6.33301 -40.5 -19s-16.5 -28.334 -16.5 -47.001
s5.5 -34.334 16.5 -47.001s24.5 -19 40.5 -19zM929.001 82c16 0 29.5 6.33301 40.5 19s16.5 28.334 16.5 47.001s-5.5 34.334 -16.5 47.001s-24.5 19 -40.5 19s-29.5 -6.33301 -40.5 -19s-16.5 -28.334 -16.5 -47.001s5.5 -34.334 16.5 -47.001s24.5 -19 40.5 -19z" />
    <glyph glyph-name="guilsinglleft" unicode="&#x2039;" horiz-adv-x="311" 
d="M154 93l-134 192l134 192h122l-130 -192l130 -192h-122z" />
    <glyph glyph-name="guilsinglright" unicode="&#x203a;" horiz-adv-x="311" 
d="M35 93l130 192l-130 192h122l134 -192l-134 -192h-122z" />
    <glyph glyph-name="fraction" unicode="&#x2044;" horiz-adv-x="92" 
d="M-226 0l438 690h106l-438 -690h-106z" />
    <glyph glyph-name="uni2080" unicode="&#x2080;" horiz-adv-x="359" 
d="M177 -9c-31.333 0 -58.166 8 -80.499 24s-39.666 38.833 -51.999 68.5s-18.5 64.834 -18.5 105.501c0 41.333 6.33301 77 19 107s30.667 53 54 69s50.666 24 81.999 24s58.166 -8 80.499 -24s39.666 -38.833 51.999 -68.5s18.5 -64.834 18.5 -105.501
c0 -41.333 -6.33301 -77 -19 -107s-30.667 -53 -54 -69s-50.666 -24 -81.999 -24zM179 79c17.333 0 30.666 9.33301 39.999 28s14 46.334 14 83.001s-4.66699 64.334 -14 83.001s-22.666 28 -39.999 28s-30.666 -9.33301 -39.999 -28s-14 -46.334 -14 -83.001
s4.66699 -64.334 14 -83.001s22.666 -28 39.999 -28z" />
    <glyph glyph-name="uni2081" unicode="&#x2081;" horiz-adv-x="359" 
d="M157 0v279l-77 -41l-29 79l118 63h86v-380h-98z" />
    <glyph glyph-name="uni2082" unicode="&#x2082;" horiz-adv-x="359" 
d="M42 0l0.000976562 69.002c10.667 8 22.667 17.5 36 28.5l39 32.5c12.667 10.667 22.667 19.667 30 27c23.333 22 40.666 41.167 51.999 57.5s17 31.833 17 46.5c0 12 -3.66699 22 -11 30s-17.333 12 -30 12c-11.333 0 -21.333 -3.5 -30 -10.5s-14.667 -17.833 -18 -32.5
l-90 14c4 22.667 12.833 42.667 26.5 60s30.5 30.833 50.5 40.5s42.333 14.5 67 14.5c26 0 49 -5.33301 69 -16s35.833 -25.334 47.5 -44.001s17.5 -39.667 17.5 -63c0 -22.667 -6.66699 -45.834 -20 -69.501s-36.333 -49.167 -69 -76.5c-6.66699 -6 -14 -12 -22 -18
l-23 -17h141v-85h-280z" />
    <glyph glyph-name="uni2083" unicode="&#x2083;" horiz-adv-x="359" 
d="M174 -9c-39.333 0 -71.668 10 -97.001 30s-41.666 45.667 -48.999 77l88 14c3.33301 -10.667 9.83301 -19.5 19.5 -26.5s21.5 -10.5 35.5 -10.5s25.833 3.66699 35.5 11s14.5 17.333 14.5 30c0 10.667 -4.5 19.667 -13.5 27s-20.5 11 -34.5 11h-39v80h32
c14 0 25.5 3.33301 34.5 10s13.5 15.667 13.5 27c0 10 -4.16699 18.167 -12.5 24.5s-18.5 9.5 -30.5 9.5c-24 0 -39.667 -11.333 -47 -34l-89 15c7.33301 31.333 23.666 56.333 48.999 75s56.333 28 93 28c26 0 49 -4.5 69 -13.5s35.667 -21.5 47 -37.5s17 -34.667 17 -56
c0 -18.667 -4.66699 -35.167 -14 -49.5s-22.666 -25.833 -39.999 -34.5c20 -8 35.667 -19.667 47 -35s17 -33.666 17 -54.999c0 -22.667 -6.33301 -42.834 -19 -60.501s-30 -31.5 -52 -41.5s-47 -15 -75 -15z" />
    <glyph glyph-name="uni2084" unicode="&#x2084;" horiz-adv-x="359" 
d="M190 0v72h-171v76l155 232h112v-230h39v-78h-39v-72h-96zM109 150h81v121z" />
    <glyph glyph-name="colonmonetary" unicode="&#x20a1;" 
d="M251 -140l22.0029 132.001c-16.667 2 -32.334 5.33301 -47.001 10l-24 -142h-68l29 173c-38.667 27.333 -68.667 66.666 -90 117.999s-32 113 -32 185c0 68.667 9.5 128.667 28.5 180s46 92.5 81 123.5s76.167 50.167 123.5 57.5l20 118h68l-19 -116
c16 -2 31.667 -5.33301 47 -10l21 126h68l-26 -157c24.667 -17.333 45.5 -39.666 62.5 -66.999s29.833 -58.666 38.5 -93.999l-132 -23c-8.66699 32.667 -22.834 56.667 -42.501 72s-42.5 23 -68.5 23c-40.667 0 -71.834 -19.5 -93.501 -58.5s-32.5 -94.833 -32.5 -167.5
s10.5 -127.834 31.5 -165.501s51.167 -56.5 90.5 -56.5c28.667 0 52.667 8.5 72 25.5s33 40.167 41 69.5l138 -23c-9.33301 -38.667 -24 -72.334 -44 -101.001s-44.667 -51.5 -74 -68.5s-62.333 -27.5 -99 -31.5l-22 -132h-68z" />
    <glyph glyph-name="uni20A8" unicode="&#x20a8;" horiz-adv-x="1078" 
d="M63 0v690.001h213c54.667 0 102 -9 142 -27s70.667 -43.5 92 -76.5s32 -72.5 32 -118.5c0 -26.667 -4.66699 -52.167 -14 -76.5s-22.5 -46.333 -39.5 -66s-37.167 -35.834 -60.5 -48.501l153 -277h-157l-120 238c-13.333 -1.33301 -26 -2 -38 -2c-18 0 -39 1.66699 -63 5
v-241h-140zM203 566.001l-0.000976562 -200.999c11.333 -2 22.833 -3.5 34.5 -4.5s23.834 -1.5 36.501 -1.5c40 0 71 9.16699 93 27.5s33 44.166 33 77.499c0 32 -10.833 57 -32.5 75s-52.167 27 -91.5 27h-73zM824.999 -14.998c-35.333 0 -68.334 5.99902 -99.001 17.999
s-56.667 29 -78 51s-36.333 48 -45 78l124 27c6.66699 -20.667 19.167 -37 37.5 -49s38.833 -18 61.5 -18c23.333 0 42.333 5 57 15s22 23.667 22 41s-7.16699 30.333 -21.5 39s-35.166 15.667 -62.499 21l-28 5c-56.667 10 -100 28.5 -130 55.5s-45 61.5 -45 103.5
c0 33.333 8.66699 62.833 26 88.5s41.333 45.834 72 60.501s66 22 106 22c34 0 65.5 -5.83301 94.5 -17.5s53.5 -28.167 73.5 -49.5s33.667 -47 41 -77l-123 -26c-6.66699 20 -17.667 35.667 -33 47s-33 17 -53 17c-20.667 0 -37.834 -5 -51.501 -15
s-20.5 -22.667 -20.5 -38c0 -9.33301 2.5 -17.333 7.5 -24s13.667 -12.667 26 -18s29.833 -10 52.5 -14l28 -5c57.333 -10 100.833 -29 130.5 -57s44.5 -62.667 44.5 -104c0 -25.333 -5.16699 -48.833 -15.5 -70.5s-25 -40.5 -44 -56.5s-41.667 -28.333 -68 -37
s-55.166 -13 -86.499 -13z" />
    <glyph glyph-name="uni20A9" unicode="&#x20a9;" horiz-adv-x="952" 
d="M232 0l-54 205h-150v84h127l-18 69h-109v84h87l-66 248h149l107 -505l111 505h126l111 -503l107 503h143l-66 -248h87v-84h-109l-18 -69h127v-84h-150l-54 -205h-141l-102 460l-102 -460h-143z" />
    <glyph glyph-name="uni20AA" unicode="&#x20aa;" horiz-adv-x="926" 
d="M75 0v690h309c52 0 96.667 -10.5 134 -31.5s66 -51 86 -90s30 -85.5 30 -139.5v-211h-122v206c0 42 -11.667 74.333 -35 97s-56.333 34 -99 34h-181v-555h-122zM292 0v468h122v-332h181c43.333 0 76.5 11.333 99.5 34s34.5 55 34.5 97v423h122v-429
c0 -54 -10 -100.5 -30 -139.5s-48.833 -69 -86.5 -90s-82.167 -31.5 -133.5 -31.5h-309z" />
    <glyph glyph-name="dong" unicode="&#x20ab;" 
d="M236 -15c-31.333 0 -60.499 6.49805 -87.499 19.498s-50.5 31 -70.5 54s-35.667 49.833 -47 80.5s-17 64 -17 100c0 36.667 5.83301 70.834 17.5 102.501s27.834 59.334 48.501 83.001s45 42 73 55s58.333 19.5 91 19.5c28.667 0 55 -5.83301 79 -17.5
s44 -28.167 60 -49.5v109h-127v87h127v62h140v-62h63v-87h-63v-541h-129l-4 68c-16.667 -26 -38.334 -46.333 -65.001 -61s-56.334 -22 -89.001 -22zM270.001 106.998c22 0 41.5 5.83301 58.5 17.5s30.5 27.667 40.5 48s15 43.5 15 69.5s-5 49.167 -15 69.5
s-23.5 36.333 -40.5 48s-36.5 17.5 -58.5 17.5s-41.5 -5.83301 -58.5 -17.5s-30.5 -27.667 -40.5 -48s-15 -43.5 -15 -69.5s5 -49.167 15 -69.5s23.5 -36.333 40.5 -48s36.5 -17.5 58.5 -17.5zM21.001 -158.002v87h532v-87h-532z" />
    </font>
</defs>
</svg>
