<svg xmlns="http://www.w3.org/2000/svg" xmlns:xlink="http://www.w3.org/1999/xlink" width="160.8" height="48" viewBox="0 0 160.8 48"><defs><style>.a{fill:url(#a);}</style><linearGradient id="a" y1="0.5" x2="1" y2="0.5" gradientUnits="objectBoundingBox"><stop offset="0" stop-color="#5a5cc1"/><stop offset="0.506" stop-color="#763aaf"/><stop offset="1" stop-color="#92199e"/></linearGradient></defs><path class="a" d="M32.16,40.582h97.285L39.91,48.355Zm3.367-4.311c-6.816,0-11.993-6.231-11.993-13.889S28.712,8.49,35.527,8.49a9.808,9.808,0,0,1,5.645,1.825V9.141h5.991V35.62H41.172V34.446A9.792,9.792,0,0,1,35.527,36.27Zm0-6.376c3.365,0,5.736-3.32,5.736-7.513s-2.372-7.51-5.736-7.51-5.821,3.32-5.821,7.51S32.167,29.894,35.527,29.894ZM84.073,36.27a9.175,9.175,0,0,0,5.092-1.635v.985h5.991V9.141H89.165V24.7c0,2.918-2,5.382-4.909,5.382s-4.908-2.464-4.908-5.382V9.141H73.357V24.7C73.357,31.078,77.709,36.27,84.073,36.27ZM150.084,8.49a9.175,9.175,0,0,0-5.092,1.635V9.141H139V35.62h5.991V20.065c0-2.918,2-5.382,4.909-5.382s4.908,2.464,4.908,5.382V35.62H160.8V20.065C160.8,13.682,156.447,8.49,150.084,8.49ZM16.943,23.241,26.215,35.62H18.371L10.7,25.361H6.266V35.62H0V2.542H10.355a11.409,11.409,0,0,1,6.588,20.7Zm-1.473-9.3a5.128,5.128,0,0,0-5.115-5.124H6.266V19.076h4.089A5.128,5.128,0,0,0,15.47,13.946Zm85.015,12.9a9.03,9.03,0,0,0,8.907,9.445,12.312,12.312,0,0,0,5.861-1.667L111.3,29.354a3.555,3.555,0,0,1-2,.651,2.959,2.959,0,0,1-2.824-3.249V15.425H111.6V9.14h-5.124v-6.6h-5.991v6.6h-3.17v6.285h3.17V26.849ZM56.749,24.743,65.585,35.62h8.394L62.058,21.553,72.335,9.141h-8.4l-7.188,9.224V.355H50.579V35.62h6.169V24.743Zm79.866-.509-17.258,0c.787,6.051,7.608,9.122,11.7,3.071l5.292,3.065c-3.4,4.841-7.451,5.927-10.611,5.927-6.26,0-12.5-5.713-12.5-13.914,0-7.8,4.974-13.912,11.908-13.912C131.96,8.469,138.091,14.723,136.615,24.234Zm-6.241-5.272c-1.167-6.558-9.53-6.2-10.791,0Z" transform="translate(0 -0.355)"/></svg>